<?xml version="1.0" encoding="utf-8" standalone="no"?>
<!DOCTYPE svg PUBLIC "-//W3C//DTD SVG 1.1//EN"
  "http://www.w3.org/Graphics/SVG/1.1/DTD/svg11.dtd">
<svg xmlns:xlink="http://www.w3.org/1999/xlink" width="372.649629pt" height="371.46577pt" viewBox="0 0 372.649629 371.46577" xmlns="http://www.w3.org/2000/svg" version="1.1">
 <metadata>
  <rdf:RDF xmlns:dc="http://purl.org/dc/elements/1.1/" xmlns:cc="http://creativecommons.org/ns#" xmlns:rdf="http://www.w3.org/1999/02/22-rdf-syntax-ns#">
   <cc:Work>
    <dc:type rdf:resource="http://purl.org/dc/dcmitype/StillImage"/>
    <dc:date>2023-08-29T17:56:04.396758</dc:date>
    <dc:format>image/svg+xml</dc:format>
    <dc:creator>
     <cc:Agent>
      <dc:title>Matplotlib v3.7.1, https://matplotlib.org/</dc:title>
     </cc:Agent>
    </dc:creator>
   </cc:Work>
  </rdf:RDF>
 </metadata>
 <defs>
  <style type="text/css">*{stroke-linejoin: round; stroke-linecap: butt}</style>
 </defs>
 <g id="figure_1">
  <g id="patch_1">
   <path d="M 0 371.46577 
L 372.649629 371.46577 
L 372.649629 0 
L 0 0 
z
" style="fill: #ffffff"/>
  </g>
  <g id="axes_1">
   <g id="patch_2">
    <path d="M 7.2 356.444405 
L 342 356.444405 
L 342 23.804405 
L 7.2 23.804405 
z
" style="fill: #ffffff"/>
   </g>
   <g id="PolyCollection_1">
    <defs>
     <path id="m7cb50a5759" d="M 123.872727 -30.141364 
L 123.872727 -129.933364 
L 125.409917 -128.443931 
L 126.947107 -126.998305 
L 128.484298 -125.594582 
L 130.021488 -124.230964 
L 131.558678 -122.905759 
L 133.095868 -121.617364 
L 134.633058 -120.364268 
L 136.170248 -119.14504 
L 137.707438 -117.958324 
L 139.244628 -116.802838 
L 140.781818 -115.677364 
L 142.319008 -114.580749 
L 143.856198 -113.511896 
L 145.393388 -112.469764 
L 146.930579 -111.453364 
L 148.467769 -110.461755 
L 150.004959 -109.494039 
L 151.542149 -108.549364 
L 153.079339 -107.626917 
L 154.616529 -106.725922 
L 156.153719 -105.84564 
L 157.690909 -104.985364 
L 159.228099 -104.14442 
L 160.765289 -103.322164 
L 162.302479 -102.51798 
L 163.839669 -101.731277 
L 165.37686 -100.961493 
L 166.91405 -100.208088 
L 168.45124 -99.470543 
L 169.98843 -98.748364 
L 171.52562 -98.041076 
L 173.06281 -97.348221 
L 174.6 -96.669364 
L 176.13719 -96.004084 
L 177.67438 -95.351978 
L 179.21157 -94.712658 
L 180.74876 -94.085753 
L 182.28595 -93.470903 
L 183.82314 -92.867764 
L 185.360331 -92.276006 
L 186.897521 -91.695308 
L 188.434711 -91.125364 
L 189.971901 -90.565878 
L 191.509091 -90.016564 
L 193.046281 -89.477148 
L 194.583471 -88.947364 
L 196.120661 -88.426957 
L 197.657851 -87.91568 
L 199.195041 -87.413295 
L 200.732231 -86.919571 
L 202.269421 -86.434287 
L 203.806612 -85.957229 
L 205.343802 -85.488188 
L 206.880992 -85.026964 
L 208.418182 -84.573364 
L 209.955372 -84.1272 
L 211.492562 -83.688291 
L 213.029752 -83.256461 
L 214.566942 -82.83154 
L 216.104132 -82.413364 
L 217.641322 -82.001774 
L 219.178512 -81.596614 
L 220.715702 -81.197736 
L 222.252893 -80.804995 
L 223.790083 -80.41825 
L 225.327273 -80.037364 
L 226.864463 -79.662206 
L 228.401653 -79.292648 
L 229.938843 -78.928564 
L 231.476033 -78.569835 
L 233.013223 -78.216342 
L 234.550413 -77.867973 
L 236.087603 -77.524616 
L 237.624793 -77.186164 
L 239.161983 -76.852513 
L 240.699174 -76.523561 
L 242.236364 -76.19921 
L 243.773554 -75.879364 
L 245.310744 -75.56393 
L 246.847934 -75.252816 
L 248.385124 -74.945936 
L 249.922314 -74.643202 
L 251.459504 -74.344532 
L 252.996694 -74.049844 
L 254.533884 -73.75906 
L 256.071074 -73.472101 
L 257.608264 -73.188894 
L 259.145455 -72.909364 
L 260.682645 -72.633442 
L 262.219835 -72.361057 
L 263.757025 -72.092141 
L 265.294215 -71.82663 
L 266.831405 -71.564459 
L 268.368595 -71.305564 
L 269.905785 -71.049886 
L 271.442975 -70.797364 
L 272.980165 -70.547941 
L 274.517355 -70.301559 
L 276.054545 -70.058164 
L 276.054545 -30.141364 
L 276.054545 -30.141364 
L 274.517355 -30.141364 
L 272.980165 -30.141364 
L 271.442975 -30.141364 
L 269.905785 -30.141364 
L 268.368595 -30.141364 
L 266.831405 -30.141364 
L 265.294215 -30.141364 
L 263.757025 -30.141364 
L 262.219835 -30.141364 
L 260.682645 -30.141364 
L 259.145455 -30.141364 
L 257.608264 -30.141364 
L 256.071074 -30.141364 
L 254.533884 -30.141364 
L 252.996694 -30.141364 
L 251.459504 -30.141364 
L 249.922314 -30.141364 
L 248.385124 -30.141364 
L 246.847934 -30.141364 
L 245.310744 -30.141364 
L 243.773554 -30.141364 
L 242.236364 -30.141364 
L 240.699174 -30.141364 
L 239.161983 -30.141364 
L 237.624793 -30.141364 
L 236.087603 -30.141364 
L 234.550413 -30.141364 
L 233.013223 -30.141364 
L 231.476033 -30.141364 
L 229.938843 -30.141364 
L 228.401653 -30.141364 
L 226.864463 -30.141364 
L 225.327273 -30.141364 
L 223.790083 -30.141364 
L 222.252893 -30.141364 
L 220.715702 -30.141364 
L 219.178512 -30.141364 
L 217.641322 -30.141364 
L 216.104132 -30.141364 
L 214.566942 -30.141364 
L 213.029752 -30.141364 
L 211.492562 -30.141364 
L 209.955372 -30.141364 
L 208.418182 -30.141364 
L 206.880992 -30.141364 
L 205.343802 -30.141364 
L 203.806612 -30.141364 
L 202.269421 -30.141364 
L 200.732231 -30.141364 
L 199.195041 -30.141364 
L 197.657851 -30.141364 
L 196.120661 -30.141364 
L 194.583471 -30.141364 
L 193.046281 -30.141364 
L 191.509091 -30.141364 
L 189.971901 -30.141364 
L 188.434711 -30.141364 
L 186.897521 -30.141364 
L 185.360331 -30.141364 
L 183.82314 -30.141364 
L 182.28595 -30.141364 
L 180.74876 -30.141364 
L 179.21157 -30.141364 
L 177.67438 -30.141364 
L 176.13719 -30.141364 
L 174.6 -30.141364 
L 173.06281 -30.141364 
L 171.52562 -30.141364 
L 169.98843 -30.141364 
L 168.45124 -30.141364 
L 166.91405 -30.141364 
L 165.37686 -30.141364 
L 163.839669 -30.141364 
L 162.302479 -30.141364 
L 160.765289 -30.141364 
L 159.228099 -30.141364 
L 157.690909 -30.141364 
L 156.153719 -30.141364 
L 154.616529 -30.141364 
L 153.079339 -30.141364 
L 151.542149 -30.141364 
L 150.004959 -30.141364 
L 148.467769 -30.141364 
L 146.930579 -30.141364 
L 145.393388 -30.141364 
L 143.856198 -30.141364 
L 142.319008 -30.141364 
L 140.781818 -30.141364 
L 139.244628 -30.141364 
L 137.707438 -30.141364 
L 136.170248 -30.141364 
L 134.633058 -30.141364 
L 133.095868 -30.141364 
L 131.558678 -30.141364 
L 130.021488 -30.141364 
L 128.484298 -30.141364 
L 126.947107 -30.141364 
L 125.409917 -30.141364 
L 123.872727 -30.141364 
z
" style="stroke: #0000ff; stroke-opacity: 0.3"/>
    </defs>
    <g clip-path="url(#p3ef22585c5)">
     <use xlink:href="#m7cb50a5759" x="0" y="371.46577" style="fill: #0000ff; fill-opacity: 0.3; stroke: #0000ff; stroke-opacity: 0.3"/>
    </g>
   </g>
   <g id="matplotlib.axis_1">
    <g id="xtick_1">
     <g id="line2d_1">
      <defs>
       <path id="m3f153065fe" d="M 0 0 
L 0 3.5 
" style="stroke: #000000; stroke-width: 0.8"/>
      </defs>
      <g>
       <use xlink:href="#m3f153065fe" x="123.872727" y="341.324405" style="stroke: #000000; stroke-width: 0.8"/>
      </g>
     </g>
     <g id="text_1">
      <!-- $1$ -->
      <g transform="translate(119.760584 360.777705) scale(0.18 -0.18)">
       <defs>
        <path id="CMR17-31" d="M 1702 4058 
C 1702 4192 1696 4192 1606 4192 
C 1357 3916 979 3827 621 3827 
C 602 3827 570 3827 563 3808 
C 557 3795 557 3782 557 3648 
C 755 3648 1088 3686 1344 3839 
L 1344 461 
C 1344 236 1331 160 781 160 
L 589 160 
L 589 0 
C 896 0 1216 0 1523 0 
C 1830 0 2150 0 2458 0 
L 2458 160 
L 2266 160 
C 1715 160 1702 230 1702 458 
L 1702 4058 
z
" transform="scale(0.015625)"/>
       </defs>
       <use xlink:href="#CMR17-31" transform="scale(0.996264)"/>
      </g>
     </g>
    </g>
    <g id="xtick_2">
     <g id="line2d_2">
      <g>
       <use xlink:href="#m3f153065fe" x="276.054545" y="341.324405" style="stroke: #000000; stroke-width: 0.8"/>
      </g>
     </g>
     <g id="text_2">
      <!-- $b$ -->
      <g transform="translate(272.321717 360.777705) scale(0.18 -0.18)">
       <defs>
        <path id="CMMI12-62" d="M 1478 4257 
C 1485 4283 1498 4321 1498 4352 
C 1498 4416 1434 4416 1421 4416 
C 1414 4416 1184 4393 1069 4377 
C 960 4377 864 4358 749 4358 
C 595 4345 550 4339 550 4224 
C 550 4160 614 4160 678 4160 
C 1005 4160 1005 4103 1005 4040 
C 1005 3996 954 3811 928 3696 
L 774 3085 
C 710 2831 346 1387 320 1272 
C 288 1114 288 1005 288 922 
C 288 274 653 -64 1069 -64 
C 1811 -64 2579 888 2579 1814 
C 2579 2401 2246 2816 1766 2816 
C 1434 2816 1133 2542 1011 2414 
L 1478 4257 
z
M 1075 64 
C 870 64 646 217 646 715 
C 646 926 666 1047 781 1494 
C 800 1577 902 1986 928 2069 
C 941 2120 1318 2689 1754 2689 
C 2035 2689 2163 2408 2163 2076 
C 2163 1769 1984 1047 1824 715 
C 1664 370 1370 64 1075 64 
z
" transform="scale(0.015625)"/>
       </defs>
       <use xlink:href="#CMMI12-62" transform="scale(0.996264)"/>
      </g>
     </g>
    </g>
   </g>
   <g id="matplotlib.axis_2"/>
   <g id="line2d_3">
    <path d="M 55.898182 38.924405 
L 57.934901 56.265642 
L 59.97162 71.725868 
L 62.008339 85.595388 
L 64.045058 98.107693 
L 66.081777 109.452707 
L 68.118496 119.786498 
L 70.155215 129.238499 
L 72.870841 140.65407 
L 75.586466 150.903516 
L 78.302092 160.156838 
L 81.017717 168.552523 
L 83.733342 176.204525 
L 86.448968 183.207465 
L 89.164593 189.640565 
L 91.880219 195.57066 
L 94.595844 201.054526 
L 97.990376 207.355131 
L 101.384908 213.11405 
L 104.77944 218.398259 
L 108.173971 223.264131 
L 111.568503 227.759453 
L 114.963035 231.924999 
L 119.036473 236.53729 
L 123.109911 240.776405 
L 127.183349 244.685873 
L 131.256787 248.302706 
L 136.009132 252.194488 
L 140.761476 255.773703 
L 145.513821 259.076552 
L 150.266165 262.133856 
L 155.697416 265.360944 
L 161.128667 268.335316 
L 167.238824 271.414813 
L 173.348982 274.244975 
L 180.138045 277.132415 
L 186.927109 279.781532 
L 194.395079 282.453986 
L 202.541955 285.116655 
L 210.688831 287.548886 
L 219.514614 289.9569 
L 229.019303 292.320063 
L 239.202898 294.622072 
L 250.0654 296.850539 
L 261.606808 298.996506 
L 274.506029 301.162406 
L 288.084156 303.215076 
L 303.020096 305.243568 
L 319.313848 307.223699 
L 326.781818 308.060405 
L 326.781818 308.060405 
" clip-path="url(#p3ef22585c5)" style="fill: none; stroke: #ff0000; stroke-width: 3; stroke-linecap: square"/>
   </g>
   <g id="line2d_4">
    <path d="M 342 341.324405 
" style="fill: none; stroke: #000000; stroke-width: 1.5; stroke-linecap: square"/>
    <defs>
     <path id="me16eab8b66" d="M 3 0 
L -3 -3 
L -3 3 
z
" style="stroke: #000000; stroke-linejoin: miter"/>
    </defs>
    <g>
     <use xlink:href="#me16eab8b66" x="342" y="341.324405" style="stroke: #000000; stroke-linejoin: miter"/>
    </g>
   </g>
   <g id="line2d_5">
    <path d="M 22.418182 23.804405 
" style="fill: none; stroke: #000000; stroke-width: 1.5; stroke-linecap: square"/>
    <defs>
     <path id="m68de39b0db" d="M 0 -3 
L -3 3 
L 3 3 
z
" style="stroke: #000000; stroke-linejoin: miter"/>
    </defs>
    <g>
     <use xlink:href="#m68de39b0db" x="22.418182" y="23.804405" style="stroke: #000000; stroke-linejoin: miter"/>
    </g>
   </g>
   <g id="patch_3">
    <path d="M 22.418182 356.444405 
L 22.418182 23.804405 
" style="fill: none; stroke: #000000; stroke-width: 2; stroke-linejoin: miter; stroke-linecap: square"/>
   </g>
   <g id="patch_4">
    <path d="M 7.2 341.324405 
L 342 341.324405 
" style="fill: none; stroke: #000000; stroke-width: 2; stroke-linejoin: miter; stroke-linecap: square"/>
   </g>
   <g id="text_3">
    <!-- $x$ -->
    <g transform="translate(352.145455 356.444405) scale(0.24 -0.24)">
     <defs>
      <path id="CMMI12-78" d="M 3034 2606 
C 2829 2567 2752 2414 2752 2293 
C 2752 2139 2874 2088 2963 2088 
C 3155 2088 3290 2254 3290 2427 
C 3290 2695 2982 2816 2714 2816 
C 2323 2816 2106 2433 2048 2312 
C 1901 2816 1504 2816 1389 2816 
C 736 2816 390 1980 390 1839 
C 390 1814 416 1782 461 1782 
C 512 1782 525 1820 538 1846 
C 755 2555 1184 2689 1370 2689 
C 1658 2689 1715 2420 1715 2267 
C 1715 2127 1677 1980 1600 1673 
L 1382 798 
C 1286 415 1101 64 762 64 
C 730 64 570 64 435 147 
C 666 192 717 383 717 460 
C 717 588 621 664 499 664 
C 346 664 179 530 179 326 
C 179 57 480 -64 755 -64 
C 1062 -64 1280 179 1414 441 
C 1517 64 1837 -64 2074 -64 
C 2726 -64 3072 773 3072 913 
C 3072 945 3046 971 3008 971 
C 2950 971 2944 939 2925 888 
C 2752 326 2381 64 2093 64 
C 1869 64 1747 230 1747 492 
C 1747 632 1773 734 1875 1156 
L 2099 2024 
C 2195 2408 2413 2689 2707 2689 
C 2720 2689 2899 2689 3034 2606 
z
" transform="scale(0.015625)"/>
     </defs>
     <use xlink:href="#CMMI12-78" transform="scale(0.996264)"/>
    </g>
   </g>
   <g id="text_4">
    <!-- $y$ -->
    <g transform="translate(32.563636 23.804405) scale(0.24 -0.24)">
     <defs>
      <path id="CMMI12-79" d="M 1683 -700 
C 1510 -939 1261 -1152 947 -1152 
C 870 -1152 563 -1152 467 -889 
C 486 -895 518 -895 531 -895 
C 723 -895 851 -729 851 -582 
C 851 -435 730 -384 634 -384 
C 531 -384 307 -458 307 -759 
C 307 -1071 582 -1286 947 -1286 
C 1587 -1286 2234 -700 2413 6 
L 3040 2485 
C 3046 2517 3059 2556 3059 2594 
C 3059 2689 2982 2753 2886 2753 
C 2829 2753 2694 2727 2643 2535 
L 2170 658 
C 2138 543 2138 530 2086 460 
C 1958 281 1747 64 1440 64 
C 1082 64 1050 415 1050 588 
C 1050 952 1222 1443 1395 1903 
C 1466 2088 1504 2178 1504 2305 
C 1504 2574 1312 2816 998 2816 
C 410 2816 173 1890 173 1839 
C 173 1814 198 1782 243 1782 
C 301 1782 307 1807 333 1897 
C 486 2433 730 2689 979 2689 
C 1037 2689 1146 2689 1146 2478 
C 1146 2312 1075 2127 979 1884 
C 666 1047 666 837 666 683 
C 666 77 1101 -64 1421 -64 
C 1606 -64 1837 -6 2061 230 
L 2067 224 
C 1971 -147 1907 -392 1683 -700 
z
" transform="scale(0.015625)"/>
     </defs>
     <use xlink:href="#CMMI12-79" transform="scale(0.996264)"/>
    </g>
   </g>
   <g id="text_5">
    <!-- $S$ -->
    <g transform="translate(187.281818 321.366005) scale(0.2 -0.2)">
     <defs>
      <path id="CMMI12-53" d="M 4064 4423 
C 4064 4480 4019 4480 4006 4480 
C 3981 4480 3974 4474 3898 4378 
C 3859 4333 3597 4001 3590 3995 
C 3379 4410 2957 4480 2688 4480 
C 1875 4480 1139 3743 1139 3025 
C 1139 2549 1427 2269 1741 2161 
C 1811 2135 2189 2033 2381 1989 
C 2707 1900 2790 1875 2925 1735 
C 2950 1703 3078 1557 3078 1258 
C 3078 667 2528 57 1888 57 
C 1363 57 781 280 781 991 
C 781 1112 806 1265 826 1328 
C 826 1348 832 1378 832 1391 
C 832 1417 819 1449 768 1449 
C 710 1449 704 1436 678 1328 
L 352 24 
C 352 18 326 -64 326 -71 
C 326 -128 378 -128 390 -128 
C 416 -128 422 -122 499 -26 
L 794 356 
C 947 126 1280 -128 1875 -128 
C 2701 -128 3456 666 3456 1460 
C 3456 1728 3392 1963 3149 2197 
C 3014 2331 2899 2363 2310 2516 
C 1882 2630 1824 2649 1709 2751 
C 1600 2858 1517 3011 1517 3227 
C 1517 3761 2061 4308 2669 4308 
C 3296 4308 3590 3926 3590 3323 
C 3590 3158 3558 2986 3558 2961 
C 3558 2903 3610 2903 3629 2903 
C 3686 2903 3693 2922 3718 3024 
L 4064 4423 
z
" transform="scale(0.015625)"/>
     </defs>
     <use xlink:href="#CMMI12-53" transform="scale(0.996264)"/>
    </g>
   </g>
  </g>
 </g>
 <defs>
  <clipPath id="p3ef22585c5">
   <rect x="7.2" y="23.804405" width="334.8" height="332.64"/>
  </clipPath>
 </defs>
</svg>