<?xml version="1.0" encoding="utf-8" standalone="no"?>
<!DOCTYPE svg PUBLIC "-//W3C//DTD SVG 1.1//EN"
  "http://www.w3.org/Graphics/SVG/1.1/DTD/svg11.dtd">
<svg xmlns:xlink="http://www.w3.org/1999/xlink" width="792pt" height="360pt" viewBox="0 0 792 360" xmlns="http://www.w3.org/2000/svg" version="1.1">
 <metadata>
  <rdf:RDF xmlns:dc="http://purl.org/dc/elements/1.1/" xmlns:cc="http://creativecommons.org/ns#" xmlns:rdf="http://www.w3.org/1999/02/22-rdf-syntax-ns#">
   <cc:Work>
    <dc:type rdf:resource="http://purl.org/dc/dcmitype/StillImage"/>
    <dc:date>2023-08-24T18:05:13.194968</dc:date>
    <dc:format>image/svg+xml</dc:format>
    <dc:creator>
     <cc:Agent>
      <dc:title>Matplotlib v3.7.1, https://matplotlib.org/</dc:title>
     </cc:Agent>
    </dc:creator>
   </cc:Work>
  </rdf:RDF>
 </metadata>
 <defs>
  <style type="text/css">*{stroke-linejoin: round; stroke-linecap: butt}</style>
 </defs>
 <g id="figure_1">
  <g id="patch_1">
   <path d="M 0 360 
L 792 360 
L 792 0 
L 0 0 
z
" style="fill: #ffffff"/>
  </g>
  <g id="axes_1">
   <g id="patch_2">
    <path d="M 99 320.4 
L 378 320.4 
L 378 43.2 
L 99 43.2 
z
" style="fill: #ffffff"/>
   </g>
   <g id="PolyCollection_1">
    <defs>
     <path id="mfbd341d1fd" d="M 162.409091 -52.2 
L 162.409091 -102.6 
L 163.289533 -101.740162 
L 164.169975 -100.90917 
L 165.050417 -100.105596 
L 165.930859 -99.328106 
L 166.811301 -98.57545 
L 167.691742 -97.846456 
L 168.572184 -97.140026 
L 169.452626 -96.455129 
L 170.333068 -95.790794 
L 171.21351 -95.146109 
L 172.093952 -94.520216 
L 172.974394 -93.912304 
L 173.854836 -93.321609 
L 174.735278 -92.747411 
L 175.61572 -92.189027 
L 176.496162 -91.645814 
L 177.376604 -91.117161 
L 178.257046 -90.602491 
L 179.137488 -90.101255 
L 180.017929 -89.612936 
L 180.898371 -89.137039 
L 181.778813 -88.673098 
L 182.659255 -88.220666 
L 183.539697 -87.779321 
L 184.420139 -87.34866 
L 185.300581 -86.928301 
L 186.181023 -86.517877 
L 187.061465 -86.117041 
L 187.941907 -85.72546 
L 188.822349 -85.342818 
L 189.702791 -84.968812 
L 190.583233 -84.603152 
L 191.463675 -84.245564 
L 192.344116 -83.895781 
L 193.224558 -83.553552 
L 194.105 -83.218634 
L 194.985442 -82.890796 
L 195.865884 -82.569815 
L 196.746326 -82.255479 
L 197.626768 -81.947583 
L 198.50721 -81.645932 
L 199.387652 -81.350336 
L 200.268094 -81.060617 
L 201.148536 -80.776599 
L 202.028978 -80.498118 
L 202.90942 -80.225011 
L 203.789862 -79.957126 
L 204.670303 -79.694313 
L 205.550745 -79.436431 
L 206.431187 -79.183341 
L 207.311629 -78.934912 
L 208.192071 -78.691015 
L 209.072513 -78.451528 
L 209.952955 -78.216332 
L 210.833397 -77.985314 
L 211.713839 -77.758361 
L 212.594281 -77.53537 
L 213.474723 -77.316235 
L 214.355165 -77.100859 
L 215.235607 -76.889145 
L 216.116049 -76.681001 
L 216.99649 -76.476338 
L 217.876932 -76.275068 
L 218.757374 -76.077107 
L 219.637816 -75.882376 
L 220.518258 -75.690795 
L 221.3987 -75.502289 
L 222.279142 -75.316785 
L 223.159584 -75.13421 
L 224.040026 -74.954497 
L 224.920468 -74.777579 
L 225.80091 -74.60339 
L 226.681352 -74.431869 
L 227.561794 -74.262954 
L 228.442236 -74.096586 
L 229.322677 -73.932709 
L 230.203119 -73.771266 
L 231.083561 -73.612205 
L 231.964003 -73.455471 
L 232.844445 -73.301016 
L 233.724887 -73.148789 
L 234.605329 -72.998743 
L 235.485771 -72.850831 
L 236.366213 -72.705008 
L 237.246655 -72.56123 
L 238.127097 -72.419454 
L 239.007539 -72.279639 
L 239.887981 -72.141745 
L 240.768423 -72.005731 
L 241.648864 -71.87156 
L 242.529306 -71.739195 
L 243.409748 -71.608599 
L 244.29019 -71.479737 
L 245.170632 -71.352575 
L 246.051074 -71.22708 
L 246.931516 -71.103218 
L 247.811958 -70.980959 
L 248.6924 -70.860271 
L 249.572842 -70.741124 
L 249.572842 -52.2 
L 249.572842 -52.2 
L 248.6924 -52.2 
L 247.811958 -52.2 
L 246.931516 -52.2 
L 246.051074 -52.2 
L 245.170632 -52.2 
L 244.29019 -52.2 
L 243.409748 -52.2 
L 242.529306 -52.2 
L 241.648864 -52.2 
L 240.768423 -52.2 
L 239.887981 -52.2 
L 239.007539 -52.2 
L 238.127097 -52.2 
L 237.246655 -52.2 
L 236.366213 -52.2 
L 235.485771 -52.2 
L 234.605329 -52.2 
L 233.724887 -52.2 
L 232.844445 -52.2 
L 231.964003 -52.2 
L 231.083561 -52.2 
L 230.203119 -52.2 
L 229.322677 -52.2 
L 228.442236 -52.2 
L 227.561794 -52.2 
L 226.681352 -52.2 
L 225.80091 -52.2 
L 224.920468 -52.2 
L 224.040026 -52.2 
L 223.159584 -52.2 
L 222.279142 -52.2 
L 221.3987 -52.2 
L 220.518258 -52.2 
L 219.637816 -52.2 
L 218.757374 -52.2 
L 217.876932 -52.2 
L 216.99649 -52.2 
L 216.116049 -52.2 
L 215.235607 -52.2 
L 214.355165 -52.2 
L 213.474723 -52.2 
L 212.594281 -52.2 
L 211.713839 -52.2 
L 210.833397 -52.2 
L 209.952955 -52.2 
L 209.072513 -52.2 
L 208.192071 -52.2 
L 207.311629 -52.2 
L 206.431187 -52.2 
L 205.550745 -52.2 
L 204.670303 -52.2 
L 203.789862 -52.2 
L 202.90942 -52.2 
L 202.028978 -52.2 
L 201.148536 -52.2 
L 200.268094 -52.2 
L 199.387652 -52.2 
L 198.50721 -52.2 
L 197.626768 -52.2 
L 196.746326 -52.2 
L 195.865884 -52.2 
L 194.985442 -52.2 
L 194.105 -52.2 
L 193.224558 -52.2 
L 192.344116 -52.2 
L 191.463675 -52.2 
L 190.583233 -52.2 
L 189.702791 -52.2 
L 188.822349 -52.2 
L 187.941907 -52.2 
L 187.061465 -52.2 
L 186.181023 -52.2 
L 185.300581 -52.2 
L 184.420139 -52.2 
L 183.539697 -52.2 
L 182.659255 -52.2 
L 181.778813 -52.2 
L 180.898371 -52.2 
L 180.017929 -52.2 
L 179.137488 -52.2 
L 178.257046 -52.2 
L 177.376604 -52.2 
L 176.496162 -52.2 
L 175.61572 -52.2 
L 174.735278 -52.2 
L 173.854836 -52.2 
L 172.974394 -52.2 
L 172.093952 -52.2 
L 171.21351 -52.2 
L 170.333068 -52.2 
L 169.452626 -52.2 
L 168.572184 -52.2 
L 167.691742 -52.2 
L 166.811301 -52.2 
L 165.930859 -52.2 
L 165.050417 -52.2 
L 164.169975 -52.2 
L 163.289533 -52.2 
L 162.409091 -52.2 
z
" style="stroke: #0000ff; stroke-opacity: 0.3"/>
    </defs>
    <g clip-path="url(#p01a9763a91)">
     <use xlink:href="#mfbd341d1fd" x="0" y="360" style="fill: #0000ff; fill-opacity: 0.3; stroke: #0000ff; stroke-opacity: 0.3"/>
    </g>
   </g>
   <g id="PolyCollection_2">
    <defs>
     <path id="m705c1c9dc3" d="M 162.409091 -52.2 
L 162.409091 -102.6 
L 161.54367 -103.474762 
L 160.707282 -104.349523 
L 159.89849 -105.224285 
L 159.115951 -106.099047 
L 158.358407 -106.973808 
L 157.62468 -107.84857 
L 156.913663 -108.723332 
L 156.224318 -109.598093 
L 155.555669 -110.472855 
L 154.906798 -111.347617 
L 154.276841 -112.222378 
L 153.664981 -113.09714 
L 153.070451 -113.971902 
L 152.492524 -114.846663 
L 151.930515 -115.721425 
L 151.383774 -116.596187 
L 150.851688 -117.470948 
L 150.333676 -118.34571 
L 149.829186 -119.220472 
L 149.337695 -120.095233 
L 148.858708 -120.969995 
L 148.391754 -121.844756 
L 147.936384 -122.719518 
L 147.492174 -123.59428 
L 147.058717 -124.469041 
L 146.635627 -125.343803 
L 146.222539 -126.218565 
L 145.819099 -127.093326 
L 145.424976 -127.968088 
L 145.039849 -128.84285 
L 144.663414 -129.717611 
L 144.295381 -130.592373 
L 143.93547 -131.467135 
L 143.583416 -132.341896 
L 143.238965 -133.216658 
L 142.901872 -134.09142 
L 142.571905 -134.966181 
L 142.24884 -135.840943 
L 141.932463 -136.715705 
L 141.622567 -137.590466 
L 141.318957 -138.465228 
L 141.021442 -139.33999 
L 140.729841 -140.214751 
L 140.44398 -141.089513 
L 140.16369 -141.964275 
L 139.88881 -142.839036 
L 139.619185 -143.713798 
L 139.354666 -144.58856 
L 139.095109 -145.463321 
L 138.840376 -146.338083 
L 138.590333 -147.212845 
L 138.344853 -148.087606 
L 138.103811 -148.962368 
L 137.867088 -149.83713 
L 137.634569 -150.711891 
L 137.406143 -151.586653 
L 137.181703 -152.461415 
L 136.961146 -153.336176 
L 136.744371 -154.210938 
L 136.531283 -155.085699 
L 136.321787 -155.960461 
L 136.115794 -156.835223 
L 135.913217 -157.709984 
L 135.713972 -158.584746 
L 135.517976 -159.459508 
L 135.325151 -160.334269 
L 135.135421 -161.209031 
L 134.948712 -162.083793 
L 134.764952 -162.958554 
L 134.584072 -163.833316 
L 134.406005 -164.708078 
L 134.230685 -165.582839 
L 134.05805 -166.457601 
L 133.888038 -167.332363 
L 133.72059 -168.207124 
L 133.555649 -169.081886 
L 133.393158 -169.956648 
L 133.233063 -170.831409 
L 133.075312 -171.706171 
L 132.919854 -172.580933 
L 132.766639 -173.455694 
L 132.615618 -174.330456 
L 132.466746 -175.205218 
L 132.319976 -176.079979 
L 132.175264 -176.954741 
L 132.032568 -177.829503 
L 131.891845 -178.704264 
L 131.753055 -179.579026 
L 131.616158 -180.453788 
L 131.481116 -181.328549 
L 131.347891 -182.203311 
L 131.216447 -183.078073 
L 131.086748 -183.952834 
L 130.958761 -184.827596 
L 130.83245 -185.702358 
L 130.707785 -186.577119 
L 130.584731 -187.451881 
L 130.463259 -188.326642 
L 130.343339 -189.201404 
L 130.343339 -52.2 
L 130.343339 -52.2 
L 130.463259 -52.2 
L 130.584731 -52.2 
L 130.707785 -52.2 
L 130.83245 -52.2 
L 130.958761 -52.2 
L 131.086748 -52.2 
L 131.216447 -52.2 
L 131.347891 -52.2 
L 131.481116 -52.2 
L 131.616158 -52.2 
L 131.753055 -52.2 
L 131.891845 -52.2 
L 132.032568 -52.2 
L 132.175264 -52.2 
L 132.319976 -52.2 
L 132.466746 -52.2 
L 132.615618 -52.2 
L 132.766639 -52.2 
L 132.919854 -52.2 
L 133.075312 -52.2 
L 133.233063 -52.2 
L 133.393158 -52.2 
L 133.555649 -52.2 
L 133.72059 -52.2 
L 133.888038 -52.2 
L 134.05805 -52.2 
L 134.230685 -52.2 
L 134.406005 -52.2 
L 134.584072 -52.2 
L 134.764952 -52.2 
L 134.948712 -52.2 
L 135.135421 -52.2 
L 135.325151 -52.2 
L 135.517976 -52.2 
L 135.713972 -52.2 
L 135.913217 -52.2 
L 136.115794 -52.2 
L 136.321787 -52.2 
L 136.531283 -52.2 
L 136.744371 -52.2 
L 136.961146 -52.2 
L 137.181703 -52.2 
L 137.406143 -52.2 
L 137.634569 -52.2 
L 137.867088 -52.2 
L 138.103811 -52.2 
L 138.344853 -52.2 
L 138.590333 -52.2 
L 138.840376 -52.2 
L 139.095109 -52.2 
L 139.354666 -52.2 
L 139.619185 -52.2 
L 139.88881 -52.2 
L 140.16369 -52.2 
L 140.44398 -52.2 
L 140.729841 -52.2 
L 141.021442 -52.2 
L 141.318957 -52.2 
L 141.622567 -52.2 
L 141.932463 -52.2 
L 142.24884 -52.2 
L 142.571905 -52.2 
L 142.901872 -52.2 
L 143.238965 -52.2 
L 143.583416 -52.2 
L 143.93547 -52.2 
L 144.295381 -52.2 
L 144.663414 -52.2 
L 145.039849 -52.2 
L 145.424976 -52.2 
L 145.819099 -52.2 
L 146.222539 -52.2 
L 146.635627 -52.2 
L 147.058717 -52.2 
L 147.492174 -52.2 
L 147.936384 -52.2 
L 148.391754 -52.2 
L 148.858708 -52.2 
L 149.337695 -52.2 
L 149.829186 -52.2 
L 150.333676 -52.2 
L 150.851688 -52.2 
L 151.383774 -52.2 
L 151.930515 -52.2 
L 152.492524 -52.2 
L 153.070451 -52.2 
L 153.664981 -52.2 
L 154.276841 -52.2 
L 154.906798 -52.2 
L 155.555669 -52.2 
L 156.224318 -52.2 
L 156.913663 -52.2 
L 157.62468 -52.2 
L 158.358407 -52.2 
L 159.115951 -52.2 
L 159.89849 -52.2 
L 160.707282 -52.2 
L 161.54367 -52.2 
L 162.409091 -52.2 
z
" style="stroke: #008000; stroke-opacity: 0.3"/>
    </defs>
    <g clip-path="url(#p01a9763a91)">
     <use xlink:href="#m705c1c9dc3" x="0" y="360" style="fill: #008000; fill-opacity: 0.3; stroke: #008000; stroke-opacity: 0.3"/>
    </g>
   </g>
   <g id="PolyCollection_3">
    <defs>
     <path id="m5c2724bce7" d="M 111.681818 -52.2 
L 111.681818 -189.201404 
L 130.343339 -189.201404 
L 130.343339 -52.2 
L 130.343339 -52.2 
L 111.681818 -52.2 
z
" style="stroke: #ffa500; stroke-opacity: 0.3"/>
    </defs>
    <g clip-path="url(#p01a9763a91)">
     <use xlink:href="#m5c2724bce7" x="0" y="360" style="fill: #ffa500; fill-opacity: 0.3; stroke: #ffa500; stroke-opacity: 0.3"/>
    </g>
   </g>
   <g id="matplotlib.axis_1">
    <g id="xtick_1">
     <g id="line2d_1">
      <path d="M 130.343339 320.4 
L 130.343339 43.2 
" clip-path="url(#p01a9763a91)" style="fill: none; stroke-dasharray: 0.8,1.32; stroke-dashoffset: 0; stroke: #b0b0b0; stroke-width: 0.8"/>
     </g>
     <g id="line2d_2">
      <defs>
       <path id="mb9b82c34a9" d="M 0 0 
L 0 3.5 
" style="stroke: #000000; stroke-width: 0.8"/>
      </defs>
      <g>
       <use xlink:href="#mb9b82c34a9" x="130.343339" y="307.8" style="stroke: #000000; stroke-width: 0.8"/>
      </g>
     </g>
     <g id="text_1">
      <!-- $\frac 1e$ -->
      <g transform="translate(127.270534 329.950324) scale(0.18 -0.18)">
       <defs>
        <path id="CMR17-31" d="M 1702 4058 
C 1702 4192 1696 4192 1606 4192 
C 1357 3916 979 3827 621 3827 
C 602 3827 570 3827 563 3808 
C 557 3795 557 3782 557 3648 
C 755 3648 1088 3686 1344 3839 
L 1344 461 
C 1344 236 1331 160 781 160 
L 589 160 
L 589 0 
C 896 0 1216 0 1523 0 
C 1830 0 2150 0 2458 0 
L 2458 160 
L 2266 160 
C 1715 160 1702 230 1702 458 
L 1702 4058 
z
" transform="scale(0.015625)"/>
        <path id="CMMI12-65" d="M 1146 1479 
C 1318 1479 1754 1479 2061 1595 
C 2547 1783 2592 2158 2592 2274 
C 2592 2558 2349 2816 1926 2816 
C 1254 2816 288 2210 288 1073 
C 288 402 672 -64 1254 -64 
C 2125 -64 2675 609 2675 692 
C 2675 730 2637 762 2611 762 
C 2592 762 2586 756 2528 699 
C 2118 159 1510 64 1267 64 
C 902 64 710 350 710 822 
C 710 911 710 1071 806 1479 
L 1146 1479 
z
M 838 1600 
C 1114 2592 1722 2689 1926 2689 
C 2208 2689 2400 2522 2400 2277 
C 2400 1600 1376 1600 1107 1600 
L 838 1600 
z
" transform="scale(0.015625)"/>
       </defs>
       <use xlink:href="#CMR17-31" transform="translate(0 39.226102) scale(0.697382)"/>
       <use xlink:href="#CMMI12-65" transform="translate(0.167463 -34.355253) scale(0.697382)"/>
       <path d="M 0 24.410885 
L 31.983182 24.410885 
L 31.983182 25.40233 
L 0 25.40233 
L 0 24.410885 
z
"/>
      </g>
     </g>
    </g>
    <g id="xtick_2">
     <g id="line2d_3">
      <path d="M 162.409091 320.4 
L 162.409091 43.2 
" clip-path="url(#p01a9763a91)" style="fill: none; stroke-dasharray: 0.8,1.32; stroke-dashoffset: 0; stroke: #b0b0b0; stroke-width: 0.8"/>
     </g>
     <g id="line2d_4">
      <g>
       <use xlink:href="#mb9b82c34a9" x="162.409091" y="307.8" style="stroke: #000000; stroke-width: 0.8"/>
      </g>
     </g>
     <g id="text_2">
      <!-- 1 -->
      <g transform="translate(158.296948 327.2533) scale(0.18 -0.18)">
       <use xlink:href="#CMR17-31" transform="scale(0.996264)"/>
      </g>
     </g>
    </g>
    <g id="xtick_3">
     <g id="line2d_5">
      <path d="M 213.136364 320.4 
L 213.136364 43.2 
" clip-path="url(#p01a9763a91)" style="fill: none; stroke-dasharray: 0.8,1.32; stroke-dashoffset: 0; stroke: #b0b0b0; stroke-width: 0.8"/>
     </g>
     <g id="line2d_6">
      <g>
       <use xlink:href="#mb9b82c34a9" x="213.136364" y="307.8" style="stroke: #000000; stroke-width: 0.8"/>
      </g>
     </g>
     <g id="text_3">
      <!-- 2 -->
      <g transform="translate(209.024221 327.2533) scale(0.18 -0.18)">
       <defs>
        <path id="CMR17-32" d="M 2669 989 
L 2554 989 
C 2490 536 2438 459 2413 420 
C 2381 369 1920 369 1830 369 
L 602 369 
C 832 619 1280 1072 1824 1597 
C 2214 1967 2669 2402 2669 3035 
C 2669 3790 2067 4224 1395 4224 
C 691 4224 262 3604 262 3030 
C 262 2780 448 2748 525 2748 
C 589 2748 781 2787 781 3010 
C 781 3207 614 3264 525 3264 
C 486 3264 448 3258 422 3245 
C 544 3790 915 4058 1306 4058 
C 1862 4058 2227 3617 2227 3035 
C 2227 2479 1901 2000 1536 1584 
L 262 146 
L 262 0 
L 2515 0 
L 2669 989 
z
" transform="scale(0.015625)"/>
       </defs>
       <use xlink:href="#CMR17-32" transform="scale(0.996264)"/>
      </g>
     </g>
    </g>
    <g id="xtick_4">
     <g id="line2d_7">
      <path d="M 249.572842 320.4 
L 249.572842 43.2 
" clip-path="url(#p01a9763a91)" style="fill: none; stroke-dasharray: 0.8,1.32; stroke-dashoffset: 0; stroke: #b0b0b0; stroke-width: 0.8"/>
     </g>
     <g id="line2d_8">
      <g>
       <use xlink:href="#mb9b82c34a9" x="249.572842" y="307.8" style="stroke: #000000; stroke-width: 0.8"/>
      </g>
     </g>
     <g id="text_4">
      <!-- $e$ -->
      <g transform="translate(245.503766 327.2533) scale(0.18 -0.18)">
       <use xlink:href="#CMMI12-65" transform="scale(0.996264)"/>
      </g>
     </g>
    </g>
    <g id="xtick_5">
     <g id="line2d_9">
      <path d="M 263.863636 320.4 
L 263.863636 43.2 
" clip-path="url(#p01a9763a91)" style="fill: none; stroke-dasharray: 0.8,1.32; stroke-dashoffset: 0; stroke: #b0b0b0; stroke-width: 0.8"/>
     </g>
     <g id="line2d_10">
      <g>
       <use xlink:href="#mb9b82c34a9" x="263.863636" y="307.8" style="stroke: #000000; stroke-width: 0.8"/>
      </g>
     </g>
     <g id="text_5">
      <!-- 3 -->
      <g transform="translate(259.751493 327.2533) scale(0.18 -0.18)">
       <defs>
        <path id="CMR17-33" d="M 1414 2157 
C 1984 2157 2234 1662 2234 1090 
C 2234 320 1824 25 1453 25 
C 1114 25 563 194 390 693 
C 422 680 454 680 486 680 
C 640 680 755 782 755 948 
C 755 1133 614 1216 486 1216 
C 378 1216 211 1165 211 926 
C 211 335 787 -128 1466 -128 
C 2176 -128 2720 430 2720 1085 
C 2720 1707 2208 2157 1600 2227 
C 2086 2328 2554 2756 2554 3329 
C 2554 3820 2048 4179 1472 4179 
C 890 4179 378 3829 378 3329 
C 378 3110 544 3072 627 3072 
C 762 3072 877 3155 877 3321 
C 877 3486 762 3569 627 3569 
C 602 3569 570 3569 544 3557 
C 730 3959 1235 4032 1459 4032 
C 1683 4032 2106 3925 2106 3320 
C 2106 3143 2080 2828 1862 2550 
C 1670 2304 1453 2304 1242 2284 
C 1210 2284 1062 2269 1037 2269 
C 992 2263 966 2257 966 2208 
C 966 2163 973 2157 1101 2157 
L 1414 2157 
z
" transform="scale(0.015625)"/>
       </defs>
       <use xlink:href="#CMR17-33" transform="scale(0.996264)"/>
      </g>
     </g>
    </g>
    <g id="xtick_6">
     <g id="line2d_11">
      <path d="M 314.590909 320.4 
L 314.590909 43.2 
" clip-path="url(#p01a9763a91)" style="fill: none; stroke-dasharray: 0.8,1.32; stroke-dashoffset: 0; stroke: #b0b0b0; stroke-width: 0.8"/>
     </g>
     <g id="line2d_12">
      <g>
       <use xlink:href="#mb9b82c34a9" x="314.590909" y="307.8" style="stroke: #000000; stroke-width: 0.8"/>
      </g>
     </g>
     <g id="text_6">
      <!-- 4 -->
      <g transform="translate(310.478766 327.2533) scale(0.18 -0.18)">
       <defs>
        <path id="CMR17-34" d="M 2150 4122 
C 2150 4256 2144 4256 2029 4256 
L 128 1254 
L 128 1088 
L 1779 1088 
L 1779 457 
C 1779 224 1766 160 1318 160 
L 1197 160 
L 1197 0 
C 1402 0 1747 0 1965 0 
C 2182 0 2528 0 2733 0 
L 2733 160 
L 2611 160 
C 2163 160 2150 224 2150 457 
L 2150 1088 
L 2803 1088 
L 2803 1254 
L 2150 1254 
L 2150 4122 
z
M 1798 3703 
L 1798 1254 
L 256 1254 
L 1798 3703 
z
" transform="scale(0.015625)"/>
       </defs>
       <use xlink:href="#CMR17-34" transform="scale(0.996264)"/>
      </g>
     </g>
    </g>
    <g id="xtick_7">
     <g id="line2d_13">
      <path d="M 365.318182 320.4 
L 365.318182 43.2 
" clip-path="url(#p01a9763a91)" style="fill: none; stroke-dasharray: 0.8,1.32; stroke-dashoffset: 0; stroke: #b0b0b0; stroke-width: 0.8"/>
     </g>
     <g id="line2d_14">
      <g>
       <use xlink:href="#mb9b82c34a9" x="365.318182" y="307.8" style="stroke: #000000; stroke-width: 0.8"/>
      </g>
     </g>
     <g id="text_7">
      <!-- 5 -->
      <g transform="translate(361.206039 327.2533) scale(0.18 -0.18)">
       <defs>
        <path id="CMR17-35" d="M 730 3692 
C 794 3666 1056 3584 1325 3584 
C 1920 3584 2246 3911 2432 4100 
C 2432 4157 2432 4192 2394 4192 
C 2387 4192 2374 4192 2323 4163 
C 2099 4058 1837 3973 1517 3973 
C 1325 3973 1037 3999 723 4139 
C 653 4171 640 4171 634 4171 
C 602 4171 595 4164 595 4037 
L 595 2203 
C 595 2089 595 2057 659 2057 
C 691 2057 704 2070 736 2114 
C 941 2401 1222 2522 1542 2522 
C 1766 2522 2246 2382 2246 1289 
C 2246 1085 2246 715 2054 421 
C 1894 159 1645 25 1370 25 
C 947 25 518 320 403 814 
C 429 807 480 795 506 795 
C 589 795 749 840 749 1038 
C 749 1210 627 1280 506 1280 
C 358 1280 262 1190 262 1011 
C 262 454 704 -128 1382 -128 
C 2042 -128 2669 440 2669 1264 
C 2669 2030 2170 2624 1549 2624 
C 1222 2624 947 2503 730 2274 
L 730 3692 
z
" transform="scale(0.015625)"/>
       </defs>
       <use xlink:href="#CMR17-35" transform="scale(0.996264)"/>
      </g>
     </g>
    </g>
   </g>
   <g id="matplotlib.axis_2">
    <g id="ytick_1">
     <g id="line2d_15">
      <path d="M 99 257.4 
L 378 257.4 
" clip-path="url(#p01a9763a91)" style="fill: none; stroke-dasharray: 0.8,1.32; stroke-dashoffset: 0; stroke: #b0b0b0; stroke-width: 0.8"/>
     </g>
     <g id="line2d_16">
      <defs>
       <path id="m99cca37ffb" d="M 0 0 
L -3.5 0 
" style="stroke: #000000; stroke-width: 0.8"/>
      </defs>
      <g>
       <use xlink:href="#m99cca37ffb" x="111.681818" y="257.4" style="stroke: #000000; stroke-width: 0.8"/>
      </g>
     </g>
     <g id="text_8">
      <!-- $\mathdefault{1}$ -->
      <g transform="translate(96.457532 263.62665) scale(0.18 -0.18)">
       <use xlink:href="#CMR17-31" transform="scale(0.996264)"/>
      </g>
     </g>
    </g>
    <g id="ytick_2">
     <g id="line2d_17">
      <path d="M 99 207 
L 378 207 
" clip-path="url(#p01a9763a91)" style="fill: none; stroke-dasharray: 0.8,1.32; stroke-dashoffset: 0; stroke: #b0b0b0; stroke-width: 0.8"/>
     </g>
     <g id="line2d_18">
      <g>
       <use xlink:href="#m99cca37ffb" x="111.681818" y="207" style="stroke: #000000; stroke-width: 0.8"/>
      </g>
     </g>
     <g id="text_9">
      <!-- $\mathdefault{2}$ -->
      <g transform="translate(96.457532 213.22665) scale(0.18 -0.18)">
       <use xlink:href="#CMR17-32" transform="scale(0.996264)"/>
      </g>
     </g>
    </g>
    <g id="ytick_3">
     <g id="line2d_19">
      <path d="M 99 156.6 
L 378 156.6 
" clip-path="url(#p01a9763a91)" style="fill: none; stroke-dasharray: 0.8,1.32; stroke-dashoffset: 0; stroke: #b0b0b0; stroke-width: 0.8"/>
     </g>
     <g id="line2d_20">
      <g>
       <use xlink:href="#m99cca37ffb" x="111.681818" y="156.6" style="stroke: #000000; stroke-width: 0.8"/>
      </g>
     </g>
     <g id="text_10">
      <!-- $\mathdefault{3}$ -->
      <g transform="translate(96.457532 162.82665) scale(0.18 -0.18)">
       <use xlink:href="#CMR17-33" transform="scale(0.996264)"/>
      </g>
     </g>
    </g>
    <g id="ytick_4">
     <g id="line2d_21">
      <path d="M 99 106.2 
L 378 106.2 
" clip-path="url(#p01a9763a91)" style="fill: none; stroke-dasharray: 0.8,1.32; stroke-dashoffset: 0; stroke: #b0b0b0; stroke-width: 0.8"/>
     </g>
     <g id="line2d_22">
      <g>
       <use xlink:href="#m99cca37ffb" x="111.681818" y="106.2" style="stroke: #000000; stroke-width: 0.8"/>
      </g>
     </g>
     <g id="text_11">
      <!-- $\mathdefault{4}$ -->
      <g transform="translate(96.457532 112.42665) scale(0.18 -0.18)">
       <use xlink:href="#CMR17-34" transform="scale(0.996264)"/>
      </g>
     </g>
    </g>
    <g id="ytick_5">
     <g id="line2d_23">
      <path d="M 99 55.8 
L 378 55.8 
" clip-path="url(#p01a9763a91)" style="fill: none; stroke-dasharray: 0.8,1.32; stroke-dashoffset: 0; stroke: #b0b0b0; stroke-width: 0.8"/>
     </g>
     <g id="line2d_24">
      <g>
       <use xlink:href="#m99cca37ffb" x="111.681818" y="55.8" style="stroke: #000000; stroke-width: 0.8"/>
      </g>
     </g>
     <g id="text_12">
      <!-- $\mathdefault{5}$ -->
      <g transform="translate(96.457532 62.02665) scale(0.18 -0.18)">
       <use xlink:href="#CMR17-35" transform="scale(0.996264)"/>
      </g>
     </g>
    </g>
   </g>
   <g id="line2d_25">
    <path d="M 121.827273 55.8 
L 123.047779 82.860403 
L 124.268284 104.672727 
L 125.48879 122.628729 
L 126.709296 137.66802 
L 127.929802 150.447887 
L 129.150308 161.441921 
L 130.370813 171 
L 132.201572 183.205204 
L 134.032331 193.410922 
L 135.86309 202.071293 
L 137.693848 209.51261 
L 139.524607 215.975342 
L 141.355366 221.640617 
L 143.186124 226.647458 
L 145.016883 231.104348 
L 146.847642 235.09718 
L 149.288653 239.816227 
L 151.729665 243.96 
L 154.170677 247.627648 
L 156.611688 250.896774 
L 159.0527 253.828986 
L 162.103964 257.095008 
L 165.155229 259.988302 
L 168.206494 262.569231 
L 171.257758 264.885787 
L 174.919275 267.370567 
L 178.580793 269.583352 
L 182.852563 271.87717 
L 187.124334 273.911223 
L 192.006357 275.97094 
L 196.88838 277.794628 
L 202.380656 279.611606 
L 208.483185 281.388652 
L 215.195967 283.1014 
L 222.519002 284.733242 
L 230.45229 286.273988 
L 239.606083 287.814311 
L 249.37013 289.231579 
L 260.354682 290.603489 
L 273.169993 291.968162 
L 287.20581 293.234159 
L 303.072386 294.44169 
L 321.379973 295.60793 
L 342.738824 296.734962 
L 365.318182 297.72 
L 365.318182 297.72 
" clip-path="url(#p01a9763a91)" style="fill: none; stroke: #ff0000; stroke-width: 3; stroke-linecap: square"/>
   </g>
   <g id="line2d_26">
    <path d="M 378 307.8 
" style="fill: none; stroke: #000000; stroke-width: 1.5; stroke-linecap: square"/>
    <defs>
     <path id="mad5e46f197" d="M 3 0 
L -3 -3 
L -3 3 
z
" style="stroke: #000000; stroke-linejoin: miter"/>
    </defs>
    <g>
     <use xlink:href="#mad5e46f197" x="378" y="307.8" style="stroke: #000000; stroke-linejoin: miter"/>
    </g>
   </g>
   <g id="line2d_27">
    <path d="M 111.681818 43.2 
" style="fill: none; stroke: #000000; stroke-width: 1.5; stroke-linecap: square"/>
    <defs>
     <path id="m85a279e276" d="M 0 -3 
L -3 3 
L 3 3 
z
" style="stroke: #000000; stroke-linejoin: miter"/>
    </defs>
    <g>
     <use xlink:href="#m85a279e276" x="111.681818" y="43.2" style="stroke: #000000; stroke-linejoin: miter"/>
    </g>
   </g>
   <g id="patch_3">
    <path d="M 111.681818 320.4 
L 111.681818 43.2 
" style="fill: none; stroke: #000000; stroke-width: 2; stroke-linejoin: miter; stroke-linecap: square"/>
   </g>
   <g id="patch_4">
    <path d="M 99 307.8 
L 378 307.8 
" style="fill: none; stroke: #000000; stroke-width: 2; stroke-linejoin: miter; stroke-linecap: square"/>
   </g>
   <g id="text_13">
    <!-- $x$ -->
    <g transform="translate(378 320.4) scale(0.24 -0.24)">
     <defs>
      <path id="CMMI12-78" d="M 3034 2606 
C 2829 2567 2752 2414 2752 2293 
C 2752 2139 2874 2088 2963 2088 
C 3155 2088 3290 2254 3290 2427 
C 3290 2695 2982 2816 2714 2816 
C 2323 2816 2106 2433 2048 2312 
C 1901 2816 1504 2816 1389 2816 
C 736 2816 390 1980 390 1839 
C 390 1814 416 1782 461 1782 
C 512 1782 525 1820 538 1846 
C 755 2555 1184 2689 1370 2689 
C 1658 2689 1715 2420 1715 2267 
C 1715 2127 1677 1980 1600 1673 
L 1382 798 
C 1286 415 1101 64 762 64 
C 730 64 570 64 435 147 
C 666 192 717 383 717 460 
C 717 588 621 664 499 664 
C 346 664 179 530 179 326 
C 179 57 480 -64 755 -64 
C 1062 -64 1280 179 1414 441 
C 1517 64 1837 -64 2074 -64 
C 2726 -64 3072 773 3072 913 
C 3072 945 3046 971 3008 971 
C 2950 971 2944 939 2925 888 
C 2752 326 2381 64 2093 64 
C 1869 64 1747 230 1747 492 
C 1747 632 1773 734 1875 1156 
L 2099 2024 
C 2195 2408 2413 2689 2707 2689 
C 2720 2689 2899 2689 3034 2606 
z
" transform="scale(0.015625)"/>
     </defs>
     <use xlink:href="#CMMI12-78" transform="scale(0.996264)"/>
    </g>
   </g>
   <g id="text_14">
    <!-- $y$ -->
    <g transform="translate(116.754545 45.72) scale(0.24 -0.24)">
     <defs>
      <path id="CMMI12-79" d="M 1683 -700 
C 1510 -939 1261 -1152 947 -1152 
C 870 -1152 563 -1152 467 -889 
C 486 -895 518 -895 531 -895 
C 723 -895 851 -729 851 -582 
C 851 -435 730 -384 634 -384 
C 531 -384 307 -458 307 -759 
C 307 -1071 582 -1286 947 -1286 
C 1587 -1286 2234 -700 2413 6 
L 3040 2485 
C 3046 2517 3059 2556 3059 2594 
C 3059 2689 2982 2753 2886 2753 
C 2829 2753 2694 2727 2643 2535 
L 2170 658 
C 2138 543 2138 530 2086 460 
C 1958 281 1747 64 1440 64 
C 1082 64 1050 415 1050 588 
C 1050 952 1222 1443 1395 1903 
C 1466 2088 1504 2178 1504 2305 
C 1504 2574 1312 2816 998 2816 
C 410 2816 173 1890 173 1839 
C 173 1814 198 1782 243 1782 
C 301 1782 307 1807 333 1897 
C 486 2433 730 2689 979 2689 
C 1037 2689 1146 2689 1146 2478 
C 1146 2312 1075 2127 979 1884 
C 666 1047 666 837 666 683 
C 666 77 1101 -64 1421 -64 
C 1606 -64 1837 -6 2061 230 
L 2067 224 
C 1971 -147 1907 -392 1683 -700 
z
" transform="scale(0.015625)"/>
     </defs>
     <use xlink:href="#CMMI12-79" transform="scale(0.996264)"/>
    </g>
   </g>
   <g id="text_15">
    <!-- $1$ -->
    <g transform="translate(197.918182 297.72) scale(0.2 -0.2)">
     <use xlink:href="#CMR17-31" transform="scale(0.996264)"/>
    </g>
   </g>
   <g id="text_16">
    <!-- ? -->
    <g transform="translate(142.118182 272.52) scale(0.2 -0.2)">
     <defs>
      <path id="CMR17-3f" d="M 1350 1437 
C 1350 2037 1658 2567 2118 2930 
C 2240 3019 2464 3198 2464 3600 
C 2464 4117 2074 4480 1318 4480 
C 678 4480 294 4045 294 3628 
C 294 3382 506 3382 525 3382 
C 595 3382 755 3426 755 3611 
C 755 3770 634 3840 525 3840 
C 499 3840 467 3834 448 3828 
C 582 4222 966 4378 1306 4378 
C 2048 4378 2054 3868 2054 3632 
C 2054 3243 1933 3108 1811 2981 
C 1389 2529 1235 1929 1235 1463 
L 1235 1214 
C 1235 1106 1235 1081 1293 1081 
C 1350 1081 1350 1106 1350 1214 
L 1350 1437 
z
M 1555 261 
C 1555 401 1440 522 1293 522 
C 1152 522 1030 408 1030 261 
C 1030 121 1146 0 1293 0 
C 1434 0 1555 115 1555 261 
z
" transform="scale(0.015625)"/>
     </defs>
     <use xlink:href="#CMR17-3f" transform="scale(0.996264)"/>
    </g>
   </g>
  </g>
  <g id="axes_2">
   <g id="patch_5">
    <path d="M 433.8 320.4 
L 712.8 320.4 
L 712.8 43.2 
L 433.8 43.2 
z
" style="fill: #ffffff"/>
   </g>
   <g id="PolyCollection_4">
    <defs>
     <path id="mea4cae1804" d="M 497.209091 -52.2 
L 497.209091 -102.6 
L 498.089533 -101.740162 
L 498.969975 -100.90917 
L 499.850417 -100.105596 
L 500.730859 -99.328106 
L 501.611301 -98.57545 
L 502.491742 -97.846456 
L 503.372184 -97.140026 
L 504.252626 -96.455129 
L 505.133068 -95.790794 
L 506.01351 -95.146109 
L 506.893952 -94.520216 
L 507.774394 -93.912304 
L 508.654836 -93.321609 
L 509.535278 -92.747411 
L 510.41572 -92.189027 
L 511.296162 -91.645814 
L 512.176604 -91.117161 
L 513.057046 -90.602491 
L 513.937488 -90.101255 
L 514.817929 -89.612936 
L 515.698371 -89.137039 
L 516.578813 -88.673098 
L 517.459255 -88.220666 
L 518.339697 -87.779321 
L 519.220139 -87.34866 
L 520.100581 -86.928301 
L 520.981023 -86.517877 
L 521.861465 -86.117041 
L 522.741907 -85.72546 
L 523.622349 -85.342818 
L 524.502791 -84.968812 
L 525.383233 -84.603152 
L 526.263675 -84.245564 
L 527.144116 -83.895781 
L 528.024558 -83.553552 
L 528.905 -83.218634 
L 529.785442 -82.890796 
L 530.665884 -82.569815 
L 531.546326 -82.255479 
L 532.426768 -81.947583 
L 533.30721 -81.645932 
L 534.187652 -81.350336 
L 535.068094 -81.060617 
L 535.948536 -80.776599 
L 536.828978 -80.498118 
L 537.70942 -80.225011 
L 538.589862 -79.957126 
L 539.470303 -79.694313 
L 540.350745 -79.436431 
L 541.231187 -79.183341 
L 542.111629 -78.934912 
L 542.992071 -78.691015 
L 543.872513 -78.451528 
L 544.752955 -78.216332 
L 545.633397 -77.985314 
L 546.513839 -77.758361 
L 547.394281 -77.53537 
L 548.274723 -77.316235 
L 549.155165 -77.100859 
L 550.035607 -76.889145 
L 550.916049 -76.681001 
L 551.79649 -76.476338 
L 552.676932 -76.275068 
L 553.557374 -76.077107 
L 554.437816 -75.882376 
L 555.318258 -75.690795 
L 556.1987 -75.502289 
L 557.079142 -75.316785 
L 557.959584 -75.13421 
L 558.840026 -74.954497 
L 559.720468 -74.777579 
L 560.60091 -74.60339 
L 561.481352 -74.431869 
L 562.361794 -74.262954 
L 563.242236 -74.096586 
L 564.122677 -73.932709 
L 565.003119 -73.771266 
L 565.883561 -73.612205 
L 566.764003 -73.455471 
L 567.644445 -73.301016 
L 568.524887 -73.148789 
L 569.405329 -72.998743 
L 570.285771 -72.850831 
L 571.166213 -72.705008 
L 572.046655 -72.56123 
L 572.927097 -72.419454 
L 573.807539 -72.279639 
L 574.687981 -72.141745 
L 575.568423 -72.005731 
L 576.448864 -71.87156 
L 577.329306 -71.739195 
L 578.209748 -71.608599 
L 579.09019 -71.479737 
L 579.970632 -71.352575 
L 580.851074 -71.22708 
L 581.731516 -71.103218 
L 582.611958 -70.980959 
L 583.4924 -70.860271 
L 584.372842 -70.741124 
L 584.372842 -52.2 
L 584.372842 -52.2 
L 583.4924 -52.2 
L 582.611958 -52.2 
L 581.731516 -52.2 
L 580.851074 -52.2 
L 579.970632 -52.2 
L 579.09019 -52.2 
L 578.209748 -52.2 
L 577.329306 -52.2 
L 576.448864 -52.2 
L 575.568423 -52.2 
L 574.687981 -52.2 
L 573.807539 -52.2 
L 572.927097 -52.2 
L 572.046655 -52.2 
L 571.166213 -52.2 
L 570.285771 -52.2 
L 569.405329 -52.2 
L 568.524887 -52.2 
L 567.644445 -52.2 
L 566.764003 -52.2 
L 565.883561 -52.2 
L 565.003119 -52.2 
L 564.122677 -52.2 
L 563.242236 -52.2 
L 562.361794 -52.2 
L 561.481352 -52.2 
L 560.60091 -52.2 
L 559.720468 -52.2 
L 558.840026 -52.2 
L 557.959584 -52.2 
L 557.079142 -52.2 
L 556.1987 -52.2 
L 555.318258 -52.2 
L 554.437816 -52.2 
L 553.557374 -52.2 
L 552.676932 -52.2 
L 551.79649 -52.2 
L 550.916049 -52.2 
L 550.035607 -52.2 
L 549.155165 -52.2 
L 548.274723 -52.2 
L 547.394281 -52.2 
L 546.513839 -52.2 
L 545.633397 -52.2 
L 544.752955 -52.2 
L 543.872513 -52.2 
L 542.992071 -52.2 
L 542.111629 -52.2 
L 541.231187 -52.2 
L 540.350745 -52.2 
L 539.470303 -52.2 
L 538.589862 -52.2 
L 537.70942 -52.2 
L 536.828978 -52.2 
L 535.948536 -52.2 
L 535.068094 -52.2 
L 534.187652 -52.2 
L 533.30721 -52.2 
L 532.426768 -52.2 
L 531.546326 -52.2 
L 530.665884 -52.2 
L 529.785442 -52.2 
L 528.905 -52.2 
L 528.024558 -52.2 
L 527.144116 -52.2 
L 526.263675 -52.2 
L 525.383233 -52.2 
L 524.502791 -52.2 
L 523.622349 -52.2 
L 522.741907 -52.2 
L 521.861465 -52.2 
L 520.981023 -52.2 
L 520.100581 -52.2 
L 519.220139 -52.2 
L 518.339697 -52.2 
L 517.459255 -52.2 
L 516.578813 -52.2 
L 515.698371 -52.2 
L 514.817929 -52.2 
L 513.937488 -52.2 
L 513.057046 -52.2 
L 512.176604 -52.2 
L 511.296162 -52.2 
L 510.41572 -52.2 
L 509.535278 -52.2 
L 508.654836 -52.2 
L 507.774394 -52.2 
L 506.893952 -52.2 
L 506.01351 -52.2 
L 505.133068 -52.2 
L 504.252626 -52.2 
L 503.372184 -52.2 
L 502.491742 -52.2 
L 501.611301 -52.2 
L 500.730859 -52.2 
L 499.850417 -52.2 
L 498.969975 -52.2 
L 498.089533 -52.2 
L 497.209091 -52.2 
z
" style="stroke: #0000ff; stroke-opacity: 0.3"/>
    </defs>
    <g clip-path="url(#p174070eeb5)">
     <use xlink:href="#mea4cae1804" x="0" y="360" style="fill: #0000ff; fill-opacity: 0.3; stroke: #0000ff; stroke-opacity: 0.3"/>
    </g>
   </g>
   <g id="PolyCollection_5">
    <defs>
     <path id="m4cf2eab871" d="M 446.481818 -102.6 
L 497.209091 -102.6 
L 496.34367 -103.474762 
L 495.507282 -104.349523 
L 494.69849 -105.224285 
L 493.915951 -106.099047 
L 493.158407 -106.973808 
L 492.42468 -107.84857 
L 491.713663 -108.723332 
L 491.024318 -109.598093 
L 490.355669 -110.472855 
L 489.706798 -111.347617 
L 489.076841 -112.222378 
L 488.464981 -113.09714 
L 487.870451 -113.971902 
L 487.292524 -114.846663 
L 486.730515 -115.721425 
L 486.183774 -116.596187 
L 485.651688 -117.470948 
L 485.133676 -118.34571 
L 484.629186 -119.220472 
L 484.137695 -120.095233 
L 483.658708 -120.969995 
L 483.191754 -121.844756 
L 482.736384 -122.719518 
L 482.292174 -123.59428 
L 481.858717 -124.469041 
L 481.435627 -125.343803 
L 481.022539 -126.218565 
L 480.619099 -127.093326 
L 480.224976 -127.968088 
L 479.839849 -128.84285 
L 479.463414 -129.717611 
L 479.095381 -130.592373 
L 478.73547 -131.467135 
L 478.383416 -132.341896 
L 478.038965 -133.216658 
L 477.701872 -134.09142 
L 477.371905 -134.966181 
L 477.04884 -135.840943 
L 476.732463 -136.715705 
L 476.422567 -137.590466 
L 476.118957 -138.465228 
L 475.821442 -139.33999 
L 475.529841 -140.214751 
L 475.24398 -141.089513 
L 474.96369 -141.964275 
L 474.68881 -142.839036 
L 474.419185 -143.713798 
L 474.154666 -144.58856 
L 473.895109 -145.463321 
L 473.640376 -146.338083 
L 473.390333 -147.212845 
L 473.144853 -148.087606 
L 472.903811 -148.962368 
L 472.667088 -149.83713 
L 472.434569 -150.711891 
L 472.206143 -151.586653 
L 471.981703 -152.461415 
L 471.761146 -153.336176 
L 471.544371 -154.210938 
L 471.331283 -155.085699 
L 471.121787 -155.960461 
L 470.915794 -156.835223 
L 470.713217 -157.709984 
L 470.513972 -158.584746 
L 470.317976 -159.459508 
L 470.125151 -160.334269 
L 469.935421 -161.209031 
L 469.748712 -162.083793 
L 469.564952 -162.958554 
L 469.384072 -163.833316 
L 469.206005 -164.708078 
L 469.030685 -165.582839 
L 468.85805 -166.457601 
L 468.688038 -167.332363 
L 468.52059 -168.207124 
L 468.355649 -169.081886 
L 468.193158 -169.956648 
L 468.033063 -170.831409 
L 467.875312 -171.706171 
L 467.719854 -172.580933 
L 467.566639 -173.455694 
L 467.415618 -174.330456 
L 467.266746 -175.205218 
L 467.119976 -176.079979 
L 466.975264 -176.954741 
L 466.832568 -177.829503 
L 466.691845 -178.704264 
L 466.553055 -179.579026 
L 466.416158 -180.453788 
L 466.281116 -181.328549 
L 466.147891 -182.203311 
L 466.016447 -183.078073 
L 465.886748 -183.952834 
L 465.758761 -184.827596 
L 465.63245 -185.702358 
L 465.507785 -186.577119 
L 465.384731 -187.451881 
L 465.263259 -188.326642 
L 465.143339 -189.201404 
L 446.481818 -189.201404 
L 446.481818 -189.201404 
L 446.481818 -188.326642 
L 446.481818 -187.451881 
L 446.481818 -186.577119 
L 446.481818 -185.702358 
L 446.481818 -184.827596 
L 446.481818 -183.952834 
L 446.481818 -183.078073 
L 446.481818 -182.203311 
L 446.481818 -181.328549 
L 446.481818 -180.453788 
L 446.481818 -179.579026 
L 446.481818 -178.704264 
L 446.481818 -177.829503 
L 446.481818 -176.954741 
L 446.481818 -176.079979 
L 446.481818 -175.205218 
L 446.481818 -174.330456 
L 446.481818 -173.455694 
L 446.481818 -172.580933 
L 446.481818 -171.706171 
L 446.481818 -170.831409 
L 446.481818 -169.956648 
L 446.481818 -169.081886 
L 446.481818 -168.207124 
L 446.481818 -167.332363 
L 446.481818 -166.457601 
L 446.481818 -165.582839 
L 446.481818 -164.708078 
L 446.481818 -163.833316 
L 446.481818 -162.958554 
L 446.481818 -162.083793 
L 446.481818 -161.209031 
L 446.481818 -160.334269 
L 446.481818 -159.459508 
L 446.481818 -158.584746 
L 446.481818 -157.709984 
L 446.481818 -156.835223 
L 446.481818 -155.960461 
L 446.481818 -155.085699 
L 446.481818 -154.210938 
L 446.481818 -153.336176 
L 446.481818 -152.461415 
L 446.481818 -151.586653 
L 446.481818 -150.711891 
L 446.481818 -149.83713 
L 446.481818 -148.962368 
L 446.481818 -148.087606 
L 446.481818 -147.212845 
L 446.481818 -146.338083 
L 446.481818 -145.463321 
L 446.481818 -144.58856 
L 446.481818 -143.713798 
L 446.481818 -142.839036 
L 446.481818 -141.964275 
L 446.481818 -141.089513 
L 446.481818 -140.214751 
L 446.481818 -139.33999 
L 446.481818 -138.465228 
L 446.481818 -137.590466 
L 446.481818 -136.715705 
L 446.481818 -135.840943 
L 446.481818 -134.966181 
L 446.481818 -134.09142 
L 446.481818 -133.216658 
L 446.481818 -132.341896 
L 446.481818 -131.467135 
L 446.481818 -130.592373 
L 446.481818 -129.717611 
L 446.481818 -128.84285 
L 446.481818 -127.968088 
L 446.481818 -127.093326 
L 446.481818 -126.218565 
L 446.481818 -125.343803 
L 446.481818 -124.469041 
L 446.481818 -123.59428 
L 446.481818 -122.719518 
L 446.481818 -121.844756 
L 446.481818 -120.969995 
L 446.481818 -120.095233 
L 446.481818 -119.220472 
L 446.481818 -118.34571 
L 446.481818 -117.470948 
L 446.481818 -116.596187 
L 446.481818 -115.721425 
L 446.481818 -114.846663 
L 446.481818 -113.971902 
L 446.481818 -113.09714 
L 446.481818 -112.222378 
L 446.481818 -111.347617 
L 446.481818 -110.472855 
L 446.481818 -109.598093 
L 446.481818 -108.723332 
L 446.481818 -107.84857 
L 446.481818 -106.973808 
L 446.481818 -106.099047 
L 446.481818 -105.224285 
L 446.481818 -104.349523 
L 446.481818 -103.474762 
L 446.481818 -102.6 
z
" style="stroke: #0000ff; stroke-opacity: 0.3"/>
    </defs>
    <g clip-path="url(#p174070eeb5)">
     <use xlink:href="#m4cf2eab871" x="0" y="360" style="fill: #0000ff; fill-opacity: 0.3; stroke: #0000ff; stroke-opacity: 0.3"/>
    </g>
   </g>
   <g id="PolyCollection_6">
    <defs>
     <path id="md1a085d903" d="M 446.481818 -52.2 
L 446.481818 -102.6 
L 497.209091 -102.6 
L 497.209091 -52.2 
L 497.209091 -52.2 
L 446.481818 -52.2 
z
" style="stroke: #a52a2a; stroke-opacity: 0.3"/>
    </defs>
    <g clip-path="url(#p174070eeb5)">
     <use xlink:href="#md1a085d903" x="0" y="360" style="fill: #a52a2a; fill-opacity: 0.3; stroke: #a52a2a; stroke-opacity: 0.3"/>
    </g>
   </g>
   <g id="matplotlib.axis_3">
    <g id="xtick_8">
     <g id="line2d_28">
      <path d="M 497.209091 320.4 
L 497.209091 43.2 
" clip-path="url(#p174070eeb5)" style="fill: none; stroke-dasharray: 0.8,1.32; stroke-dashoffset: 0; stroke: #b0b0b0; stroke-width: 0.8"/>
     </g>
     <g id="line2d_29">
      <g>
       <use xlink:href="#mb9b82c34a9" x="497.209091" y="307.8" style="stroke: #000000; stroke-width: 0.8"/>
      </g>
     </g>
     <g id="text_17">
      <!-- 1 -->
      <g transform="translate(493.096948 327.2533) scale(0.18 -0.18)">
       <use xlink:href="#CMR17-31" transform="scale(0.996264)"/>
      </g>
     </g>
    </g>
    <g id="xtick_9">
     <g id="line2d_30">
      <path d="M 547.936364 320.4 
L 547.936364 43.2 
" clip-path="url(#p174070eeb5)" style="fill: none; stroke-dasharray: 0.8,1.32; stroke-dashoffset: 0; stroke: #b0b0b0; stroke-width: 0.8"/>
     </g>
     <g id="line2d_31">
      <g>
       <use xlink:href="#mb9b82c34a9" x="547.936364" y="307.8" style="stroke: #000000; stroke-width: 0.8"/>
      </g>
     </g>
     <g id="text_18">
      <!-- 2 -->
      <g transform="translate(543.824221 327.2533) scale(0.18 -0.18)">
       <use xlink:href="#CMR17-32" transform="scale(0.996264)"/>
      </g>
     </g>
    </g>
    <g id="xtick_10">
     <g id="line2d_32">
      <path d="M 584.372842 320.4 
L 584.372842 43.2 
" clip-path="url(#p174070eeb5)" style="fill: none; stroke-dasharray: 0.8,1.32; stroke-dashoffset: 0; stroke: #b0b0b0; stroke-width: 0.8"/>
     </g>
     <g id="line2d_33">
      <g>
       <use xlink:href="#mb9b82c34a9" x="584.372842" y="307.8" style="stroke: #000000; stroke-width: 0.8"/>
      </g>
     </g>
     <g id="text_19">
      <!-- $e$ -->
      <g transform="translate(580.303766 327.2533) scale(0.18 -0.18)">
       <use xlink:href="#CMMI12-65" transform="scale(0.996264)"/>
      </g>
     </g>
    </g>
    <g id="xtick_11">
     <g id="line2d_34">
      <path d="M 598.663636 320.4 
L 598.663636 43.2 
" clip-path="url(#p174070eeb5)" style="fill: none; stroke-dasharray: 0.8,1.32; stroke-dashoffset: 0; stroke: #b0b0b0; stroke-width: 0.8"/>
     </g>
     <g id="line2d_35">
      <g>
       <use xlink:href="#mb9b82c34a9" x="598.663636" y="307.8" style="stroke: #000000; stroke-width: 0.8"/>
      </g>
     </g>
     <g id="text_20">
      <!-- 3 -->
      <g transform="translate(594.551493 327.2533) scale(0.18 -0.18)">
       <use xlink:href="#CMR17-33" transform="scale(0.996264)"/>
      </g>
     </g>
    </g>
    <g id="xtick_12">
     <g id="line2d_36">
      <path d="M 649.390909 320.4 
L 649.390909 43.2 
" clip-path="url(#p174070eeb5)" style="fill: none; stroke-dasharray: 0.8,1.32; stroke-dashoffset: 0; stroke: #b0b0b0; stroke-width: 0.8"/>
     </g>
     <g id="line2d_37">
      <g>
       <use xlink:href="#mb9b82c34a9" x="649.390909" y="307.8" style="stroke: #000000; stroke-width: 0.8"/>
      </g>
     </g>
     <g id="text_21">
      <!-- 4 -->
      <g transform="translate(645.278766 327.2533) scale(0.18 -0.18)">
       <use xlink:href="#CMR17-34" transform="scale(0.996264)"/>
      </g>
     </g>
    </g>
    <g id="xtick_13">
     <g id="line2d_38">
      <path d="M 700.118182 320.4 
L 700.118182 43.2 
" clip-path="url(#p174070eeb5)" style="fill: none; stroke-dasharray: 0.8,1.32; stroke-dashoffset: 0; stroke: #b0b0b0; stroke-width: 0.8"/>
     </g>
     <g id="line2d_39">
      <g>
       <use xlink:href="#mb9b82c34a9" x="700.118182" y="307.8" style="stroke: #000000; stroke-width: 0.8"/>
      </g>
     </g>
     <g id="text_22">
      <!-- 5 -->
      <g transform="translate(696.006039 327.2533) scale(0.18 -0.18)">
       <use xlink:href="#CMR17-35" transform="scale(0.996264)"/>
      </g>
     </g>
    </g>
   </g>
   <g id="matplotlib.axis_4">
    <g id="ytick_6">
     <g id="line2d_40">
      <path d="M 433.8 257.4 
L 712.8 257.4 
" clip-path="url(#p174070eeb5)" style="fill: none; stroke-dasharray: 0.8,1.32; stroke-dashoffset: 0; stroke: #b0b0b0; stroke-width: 0.8"/>
     </g>
     <g id="line2d_41">
      <g>
       <use xlink:href="#m99cca37ffb" x="446.481818" y="257.4" style="stroke: #000000; stroke-width: 0.8"/>
      </g>
     </g>
     <g id="text_23">
      <!-- 1 -->
      <g transform="translate(431.257532 263.62665) scale(0.18 -0.18)">
       <use xlink:href="#CMR17-31" transform="scale(0.996264)"/>
      </g>
     </g>
    </g>
    <g id="ytick_7">
     <g id="line2d_42">
      <path d="M 433.8 207 
L 712.8 207 
" clip-path="url(#p174070eeb5)" style="fill: none; stroke-dasharray: 0.8,1.32; stroke-dashoffset: 0; stroke: #b0b0b0; stroke-width: 0.8"/>
     </g>
     <g id="line2d_43">
      <g>
       <use xlink:href="#m99cca37ffb" x="446.481818" y="207" style="stroke: #000000; stroke-width: 0.8"/>
      </g>
     </g>
     <g id="text_24">
      <!-- 2 -->
      <g transform="translate(431.257532 213.22665) scale(0.18 -0.18)">
       <use xlink:href="#CMR17-32" transform="scale(0.996264)"/>
      </g>
     </g>
    </g>
    <g id="ytick_8">
     <g id="line2d_44">
      <path d="M 433.8 170.798596 
L 712.8 170.798596 
" clip-path="url(#p174070eeb5)" style="fill: none; stroke-dasharray: 0.8,1.32; stroke-dashoffset: 0; stroke: #b0b0b0; stroke-width: 0.8"/>
     </g>
     <g id="line2d_45">
      <g>
       <use xlink:href="#m99cca37ffb" x="446.481818" y="170.798596" style="stroke: #000000; stroke-width: 0.8"/>
      </g>
     </g>
     <g id="text_25">
      <!-- $e$ -->
      <g transform="translate(431.343666 177.025246) scale(0.18 -0.18)">
       <use xlink:href="#CMMI12-65" transform="scale(0.996264)"/>
      </g>
     </g>
    </g>
    <g id="ytick_9">
     <g id="line2d_46">
      <path d="M 433.8 156.6 
L 712.8 156.6 
" clip-path="url(#p174070eeb5)" style="fill: none; stroke-dasharray: 0.8,1.32; stroke-dashoffset: 0; stroke: #b0b0b0; stroke-width: 0.8"/>
     </g>
     <g id="line2d_47">
      <g>
       <use xlink:href="#m99cca37ffb" x="446.481818" y="156.6" style="stroke: #000000; stroke-width: 0.8"/>
      </g>
     </g>
     <g id="text_26">
      <!-- 3 -->
      <g transform="translate(431.257532 162.82665) scale(0.18 -0.18)">
       <use xlink:href="#CMR17-33" transform="scale(0.996264)"/>
      </g>
     </g>
    </g>
    <g id="ytick_10">
     <g id="line2d_48">
      <path d="M 433.8 106.2 
L 712.8 106.2 
" clip-path="url(#p174070eeb5)" style="fill: none; stroke-dasharray: 0.8,1.32; stroke-dashoffset: 0; stroke: #b0b0b0; stroke-width: 0.8"/>
     </g>
     <g id="line2d_49">
      <g>
       <use xlink:href="#m99cca37ffb" x="446.481818" y="106.2" style="stroke: #000000; stroke-width: 0.8"/>
      </g>
     </g>
     <g id="text_27">
      <!-- 4 -->
      <g transform="translate(431.257532 112.42665) scale(0.18 -0.18)">
       <use xlink:href="#CMR17-34" transform="scale(0.996264)"/>
      </g>
     </g>
    </g>
    <g id="ytick_11">
     <g id="line2d_50">
      <path d="M 433.8 55.8 
L 712.8 55.8 
" clip-path="url(#p174070eeb5)" style="fill: none; stroke-dasharray: 0.8,1.32; stroke-dashoffset: 0; stroke: #b0b0b0; stroke-width: 0.8"/>
     </g>
     <g id="line2d_51">
      <g>
       <use xlink:href="#m99cca37ffb" x="446.481818" y="55.8" style="stroke: #000000; stroke-width: 0.8"/>
      </g>
     </g>
     <g id="text_28">
      <!-- 5 -->
      <g transform="translate(431.257532 62.02665) scale(0.18 -0.18)">
       <use xlink:href="#CMR17-35" transform="scale(0.996264)"/>
      </g>
     </g>
    </g>
   </g>
   <g id="line2d_52">
    <path d="M 456.627273 55.8 
L 457.847779 82.860403 
L 459.068284 104.672727 
L 460.28879 122.628729 
L 461.509296 137.66802 
L 462.729802 150.447887 
L 463.950308 161.441921 
L 465.170813 171 
L 467.001572 183.205204 
L 468.832331 193.410922 
L 470.66309 202.071293 
L 472.493848 209.51261 
L 474.324607 215.975342 
L 476.155366 221.640617 
L 477.986124 226.647458 
L 479.816883 231.104348 
L 481.647642 235.09718 
L 484.088653 239.816227 
L 486.529665 243.96 
L 488.970677 247.627648 
L 491.411688 250.896774 
L 493.8527 253.828986 
L 496.903964 257.095008 
L 499.955229 259.988302 
L 503.006494 262.569231 
L 506.057758 264.885787 
L 509.719275 267.370567 
L 513.380793 269.583352 
L 517.652563 271.87717 
L 521.924334 273.911223 
L 526.806357 275.97094 
L 531.68838 277.794628 
L 537.180656 279.611606 
L 543.283185 281.388652 
L 549.995967 283.1014 
L 557.319002 284.733242 
L 565.25229 286.273988 
L 574.406083 287.814311 
L 584.17013 289.231579 
L 595.154682 290.603489 
L 607.969993 291.968162 
L 622.00581 293.234159 
L 637.872386 294.44169 
L 656.179973 295.60793 
L 677.538824 296.734962 
L 700.118182 297.72 
L 700.118182 297.72 
" clip-path="url(#p174070eeb5)" style="fill: none; stroke: #ff0000; stroke-width: 3; stroke-linecap: square"/>
   </g>
   <g id="line2d_53">
    <path d="M 712.8 307.8 
" style="fill: none; stroke: #000000; stroke-width: 1.5; stroke-linecap: square"/>
    <g>
     <use xlink:href="#mad5e46f197" x="712.8" y="307.8" style="stroke: #000000; stroke-linejoin: miter"/>
    </g>
   </g>
   <g id="line2d_54">
    <path d="M 446.481818 43.2 
" style="fill: none; stroke: #000000; stroke-width: 1.5; stroke-linecap: square"/>
    <g>
     <use xlink:href="#m85a279e276" x="446.481818" y="43.2" style="stroke: #000000; stroke-linejoin: miter"/>
    </g>
   </g>
   <g id="patch_6">
    <path d="M 446.481818 320.4 
L 446.481818 43.2 
" style="fill: none; stroke: #000000; stroke-width: 2; stroke-linejoin: miter; stroke-linecap: square"/>
   </g>
   <g id="patch_7">
    <path d="M 433.8 307.8 
L 712.8 307.8 
" style="fill: none; stroke: #000000; stroke-width: 2; stroke-linejoin: miter; stroke-linecap: square"/>
   </g>
   <g id="text_29">
    <!-- $x$ -->
    <g transform="translate(712.8 320.4) scale(0.24 -0.24)">
     <use xlink:href="#CMMI12-78" transform="scale(0.996264)"/>
    </g>
   </g>
   <g id="text_30">
    <!-- $y$ -->
    <g transform="translate(451.554545 45.72) scale(0.24 -0.24)">
     <use xlink:href="#CMMI12-79" transform="scale(0.996264)"/>
    </g>
   </g>
   <g id="text_31">
    <!-- $1$ -->
    <g transform="translate(532.718182 297.72) scale(0.2 -0.2)">
     <use xlink:href="#CMR17-31" transform="scale(0.996264)"/>
    </g>
   </g>
  </g>
 </g>
 <defs>
  <clipPath id="p01a9763a91">
   <rect x="99" y="43.2" width="279" height="277.2"/>
  </clipPath>
  <clipPath id="p174070eeb5">
   <rect x="433.8" y="43.2" width="279" height="277.2"/>
  </clipPath>
 </defs>
</svg>
