<?xml version="1.0" encoding="utf-8" standalone="no"?>
<!DOCTYPE svg PUBLIC "-//W3C//DTD SVG 1.1//EN"
  "http://www.w3.org/Graphics/SVG/1.1/DTD/svg11.dtd">
<svg xmlns:xlink="http://www.w3.org/1999/xlink" width="626.127452pt" height="411.530991pt" viewBox="0 0 626.127452 411.530991" xmlns="http://www.w3.org/2000/svg" version="1.1">
 <metadata>
  <rdf:RDF xmlns:dc="http://purl.org/dc/elements/1.1/" xmlns:cc="http://creativecommons.org/ns#" xmlns:rdf="http://www.w3.org/1999/02/22-rdf-syntax-ns#">
   <cc:Work>
    <dc:type rdf:resource="http://purl.org/dc/dcmitype/StillImage"/>
    <dc:date>2023-08-26T14:47:07.688105</dc:date>
    <dc:format>image/svg+xml</dc:format>
    <dc:creator>
     <cc:Agent>
      <dc:title>Matplotlib v3.7.1, https://matplotlib.org/</dc:title>
     </cc:Agent>
    </dc:creator>
   </cc:Work>
  </rdf:RDF>
 </metadata>
 <defs>
  <style type="text/css">*{stroke-linejoin: round; stroke-linecap: butt}</style>
 </defs>
 <g id="figure_1">
  <g id="patch_1">
   <path d="M 0 411.530991 
L 626.127452 411.530991 
L 626.127452 0 
L 0 0 
z
" style="fill: #ffffff"/>
  </g>
  <g id="axes_1">
   <g id="patch_2">
    <path d="M 52.703166 359.676997 
L 610.703166 359.676997 
L 610.703166 27.036997 
L 52.703166 27.036997 
z
" style="fill: #ffffff"/>
   </g>
   <g id="matplotlib.axis_1">
    <g id="xtick_1">
     <g id="line2d_1">
      <path d="M 52.703166 359.676997 
L 52.703166 27.036997 
" clip-path="url(#pa443594ad2)" style="fill: none; stroke-dasharray: 0.8,1.32; stroke-dashoffset: 0; stroke: #b0b0b0; stroke-width: 0.8"/>
     </g>
     <g id="line2d_2">
      <defs>
       <path id="mef2867203e" d="M 0 0 
L 0 3.5 
" style="stroke: #000000; stroke-width: 0.8"/>
      </defs>
      <g>
       <use xlink:href="#mef2867203e" x="52.703166" y="359.676997" style="stroke: #000000; stroke-width: 0.8"/>
      </g>
     </g>
     <g id="text_1">
      <!-- $\mathdefault{2}$ -->
      <g transform="translate(48.591023 379.130297) scale(0.18 -0.18)">
       <defs>
        <path id="CMR17-32" d="M 2669 989 
L 2554 989 
C 2490 536 2438 459 2413 420 
C 2381 369 1920 369 1830 369 
L 602 369 
C 832 619 1280 1072 1824 1597 
C 2214 1967 2669 2402 2669 3035 
C 2669 3790 2067 4224 1395 4224 
C 691 4224 262 3604 262 3030 
C 262 2780 448 2748 525 2748 
C 589 2748 781 2787 781 3010 
C 781 3207 614 3264 525 3264 
C 486 3264 448 3258 422 3245 
C 544 3790 915 4058 1306 4058 
C 1862 4058 2227 3617 2227 3035 
C 2227 2479 1901 2000 1536 1584 
L 262 146 
L 262 0 
L 2515 0 
L 2669 989 
z
" transform="scale(0.015625)"/>
       </defs>
       <use xlink:href="#CMR17-32" transform="scale(0.996264)"/>
      </g>
     </g>
    </g>
    <g id="xtick_2">
     <g id="line2d_3">
      <path d="M 114.703166 359.676997 
L 114.703166 27.036997 
" clip-path="url(#pa443594ad2)" style="fill: none; stroke-dasharray: 0.8,1.32; stroke-dashoffset: 0; stroke: #b0b0b0; stroke-width: 0.8"/>
     </g>
     <g id="line2d_4">
      <g>
       <use xlink:href="#mef2867203e" x="114.703166" y="359.676997" style="stroke: #000000; stroke-width: 0.8"/>
      </g>
     </g>
     <g id="text_2">
      <!-- $\mathdefault{4}$ -->
      <g transform="translate(110.591023 379.130297) scale(0.18 -0.18)">
       <defs>
        <path id="CMR17-34" d="M 2150 4122 
C 2150 4256 2144 4256 2029 4256 
L 128 1254 
L 128 1088 
L 1779 1088 
L 1779 457 
C 1779 224 1766 160 1318 160 
L 1197 160 
L 1197 0 
C 1402 0 1747 0 1965 0 
C 2182 0 2528 0 2733 0 
L 2733 160 
L 2611 160 
C 2163 160 2150 224 2150 457 
L 2150 1088 
L 2803 1088 
L 2803 1254 
L 2150 1254 
L 2150 4122 
z
M 1798 3703 
L 1798 1254 
L 256 1254 
L 1798 3703 
z
" transform="scale(0.015625)"/>
       </defs>
       <use xlink:href="#CMR17-34" transform="scale(0.996264)"/>
      </g>
     </g>
    </g>
    <g id="xtick_3">
     <g id="line2d_5">
      <path d="M 176.703166 359.676997 
L 176.703166 27.036997 
" clip-path="url(#pa443594ad2)" style="fill: none; stroke-dasharray: 0.8,1.32; stroke-dashoffset: 0; stroke: #b0b0b0; stroke-width: 0.8"/>
     </g>
     <g id="line2d_6">
      <g>
       <use xlink:href="#mef2867203e" x="176.703166" y="359.676997" style="stroke: #000000; stroke-width: 0.8"/>
      </g>
     </g>
     <g id="text_3">
      <!-- $\mathdefault{6}$ -->
      <g transform="translate(172.591023 379.130297) scale(0.18 -0.18)">
       <defs>
        <path id="CMR17-36" d="M 678 2176 
C 678 3690 1395 4032 1811 4032 
C 1946 4032 2272 4009 2400 3776 
C 2298 3776 2106 3776 2106 3553 
C 2106 3381 2246 3323 2336 3323 
C 2394 3323 2566 3348 2566 3560 
C 2566 3954 2246 4179 1805 4179 
C 1043 4179 243 3390 243 1984 
C 243 253 966 -128 1478 -128 
C 2099 -128 2688 427 2688 1283 
C 2688 2081 2170 2662 1517 2662 
C 1126 2662 838 2407 678 1960 
L 678 2176 
z
M 1478 25 
C 691 25 691 1200 691 1436 
C 691 1896 909 2560 1504 2560 
C 1613 2560 1926 2560 2138 2120 
C 2253 1870 2253 1609 2253 1289 
C 2253 944 2253 690 2118 434 
C 1978 171 1773 25 1478 25 
z
" transform="scale(0.015625)"/>
       </defs>
       <use xlink:href="#CMR17-36" transform="scale(0.996264)"/>
      </g>
     </g>
    </g>
    <g id="xtick_4">
     <g id="line2d_7">
      <path d="M 238.703166 359.676997 
L 238.703166 27.036997 
" clip-path="url(#pa443594ad2)" style="fill: none; stroke-dasharray: 0.8,1.32; stroke-dashoffset: 0; stroke: #b0b0b0; stroke-width: 0.8"/>
     </g>
     <g id="line2d_8">
      <g>
       <use xlink:href="#mef2867203e" x="238.703166" y="359.676997" style="stroke: #000000; stroke-width: 0.8"/>
      </g>
     </g>
     <g id="text_4">
      <!-- $\mathdefault{8}$ -->
      <g transform="translate(234.591023 379.130297) scale(0.18 -0.18)">
       <defs>
        <path id="CMR17-38" d="M 1741 2264 
C 2144 2467 2554 2773 2554 3263 
C 2554 3841 1990 4179 1472 4179 
C 890 4179 378 3759 378 3180 
C 378 3021 416 2747 666 2505 
C 730 2442 998 2251 1171 2130 
C 883 1983 211 1634 211 934 
C 211 279 838 -128 1459 -128 
C 2144 -128 2720 362 2720 1010 
C 2720 1590 2330 1857 2074 2029 
L 1741 2264 
z
M 902 2822 
C 851 2854 595 3051 595 3351 
C 595 3739 998 4032 1459 4032 
C 1965 4032 2336 3676 2336 3262 
C 2336 2669 1670 2331 1638 2331 
C 1632 2331 1626 2331 1574 2370 
L 902 2822 
z
M 2080 1519 
C 2176 1449 2483 1240 2483 851 
C 2483 381 2010 25 1472 25 
C 890 25 448 438 448 940 
C 448 1443 838 1862 1280 2060 
L 2080 1519 
z
" transform="scale(0.015625)"/>
       </defs>
       <use xlink:href="#CMR17-38" transform="scale(0.996264)"/>
      </g>
     </g>
    </g>
    <g id="xtick_5">
     <g id="line2d_9">
      <path d="M 300.703166 359.676997 
L 300.703166 27.036997 
" clip-path="url(#pa443594ad2)" style="fill: none; stroke-dasharray: 0.8,1.32; stroke-dashoffset: 0; stroke: #b0b0b0; stroke-width: 0.8"/>
     </g>
     <g id="line2d_10">
      <g>
       <use xlink:href="#mef2867203e" x="300.703166" y="359.676997" style="stroke: #000000; stroke-width: 0.8"/>
      </g>
     </g>
     <g id="text_5">
      <!-- $\mathdefault{10}$ -->
      <g transform="translate(292.47888 379.130297) scale(0.18 -0.18)">
       <defs>
        <path id="CMR17-31" d="M 1702 4058 
C 1702 4192 1696 4192 1606 4192 
C 1357 3916 979 3827 621 3827 
C 602 3827 570 3827 563 3808 
C 557 3795 557 3782 557 3648 
C 755 3648 1088 3686 1344 3839 
L 1344 461 
C 1344 236 1331 160 781 160 
L 589 160 
L 589 0 
C 896 0 1216 0 1523 0 
C 1830 0 2150 0 2458 0 
L 2458 160 
L 2266 160 
C 1715 160 1702 230 1702 458 
L 1702 4058 
z
" transform="scale(0.015625)"/>
        <path id="CMR17-30" d="M 2688 2025 
C 2688 2416 2682 3080 2413 3591 
C 2176 4039 1798 4198 1466 4198 
C 1158 4198 768 4058 525 3597 
C 269 3118 243 2524 243 2025 
C 243 1661 250 1106 448 619 
C 723 -39 1216 -128 1466 -128 
C 1760 -128 2208 -7 2470 600 
C 2662 1042 2688 1559 2688 2025 
z
M 1466 -26 
C 1056 -26 813 325 723 812 
C 653 1188 653 1738 653 2096 
C 653 2588 653 2997 736 3387 
C 858 3929 1216 4096 1466 4096 
C 1728 4096 2067 3923 2189 3400 
C 2272 3036 2278 2607 2278 2096 
C 2278 1680 2278 1169 2202 792 
C 2067 95 1690 -26 1466 -26 
z
" transform="scale(0.015625)"/>
       </defs>
       <use xlink:href="#CMR17-31" transform="scale(0.996264)"/>
       <use xlink:href="#CMR17-30" transform="translate(45.690477 0) scale(0.996264)"/>
      </g>
     </g>
    </g>
    <g id="xtick_6">
     <g id="line2d_11">
      <path d="M 362.703166 359.676997 
L 362.703166 27.036997 
" clip-path="url(#pa443594ad2)" style="fill: none; stroke-dasharray: 0.8,1.32; stroke-dashoffset: 0; stroke: #b0b0b0; stroke-width: 0.8"/>
     </g>
     <g id="line2d_12">
      <g>
       <use xlink:href="#mef2867203e" x="362.703166" y="359.676997" style="stroke: #000000; stroke-width: 0.8"/>
      </g>
     </g>
     <g id="text_6">
      <!-- $\mathdefault{12}$ -->
      <g transform="translate(354.47888 379.130297) scale(0.18 -0.18)">
       <use xlink:href="#CMR17-31" transform="scale(0.996264)"/>
       <use xlink:href="#CMR17-32" transform="translate(45.690477 0) scale(0.996264)"/>
      </g>
     </g>
    </g>
    <g id="xtick_7">
     <g id="line2d_13">
      <path d="M 424.703166 359.676997 
L 424.703166 27.036997 
" clip-path="url(#pa443594ad2)" style="fill: none; stroke-dasharray: 0.8,1.32; stroke-dashoffset: 0; stroke: #b0b0b0; stroke-width: 0.8"/>
     </g>
     <g id="line2d_14">
      <g>
       <use xlink:href="#mef2867203e" x="424.703166" y="359.676997" style="stroke: #000000; stroke-width: 0.8"/>
      </g>
     </g>
     <g id="text_7">
      <!-- $\mathdefault{14}$ -->
      <g transform="translate(416.47888 379.130297) scale(0.18 -0.18)">
       <use xlink:href="#CMR17-31" transform="scale(0.996264)"/>
       <use xlink:href="#CMR17-34" transform="translate(45.690477 0) scale(0.996264)"/>
      </g>
     </g>
    </g>
    <g id="xtick_8">
     <g id="line2d_15">
      <path d="M 486.703166 359.676997 
L 486.703166 27.036997 
" clip-path="url(#pa443594ad2)" style="fill: none; stroke-dasharray: 0.8,1.32; stroke-dashoffset: 0; stroke: #b0b0b0; stroke-width: 0.8"/>
     </g>
     <g id="line2d_16">
      <g>
       <use xlink:href="#mef2867203e" x="486.703166" y="359.676997" style="stroke: #000000; stroke-width: 0.8"/>
      </g>
     </g>
     <g id="text_8">
      <!-- $\mathdefault{16}$ -->
      <g transform="translate(478.47888 379.130297) scale(0.18 -0.18)">
       <use xlink:href="#CMR17-31" transform="scale(0.996264)"/>
       <use xlink:href="#CMR17-36" transform="translate(45.690477 0) scale(0.996264)"/>
      </g>
     </g>
    </g>
    <g id="xtick_9">
     <g id="line2d_17">
      <path d="M 548.703166 359.676997 
L 548.703166 27.036997 
" clip-path="url(#pa443594ad2)" style="fill: none; stroke-dasharray: 0.8,1.32; stroke-dashoffset: 0; stroke: #b0b0b0; stroke-width: 0.8"/>
     </g>
     <g id="line2d_18">
      <g>
       <use xlink:href="#mef2867203e" x="548.703166" y="359.676997" style="stroke: #000000; stroke-width: 0.8"/>
      </g>
     </g>
     <g id="text_9">
      <!-- $\mathdefault{18}$ -->
      <g transform="translate(540.47888 379.130297) scale(0.18 -0.18)">
       <use xlink:href="#CMR17-31" transform="scale(0.996264)"/>
       <use xlink:href="#CMR17-38" transform="translate(45.690477 0) scale(0.996264)"/>
      </g>
     </g>
    </g>
    <g id="xtick_10">
     <g id="line2d_19">
      <path d="M 610.703166 359.676997 
L 610.703166 27.036997 
" clip-path="url(#pa443594ad2)" style="fill: none; stroke-dasharray: 0.8,1.32; stroke-dashoffset: 0; stroke: #b0b0b0; stroke-width: 0.8"/>
     </g>
     <g id="line2d_20">
      <g>
       <use xlink:href="#mef2867203e" x="610.703166" y="359.676997" style="stroke: #000000; stroke-width: 0.8"/>
      </g>
     </g>
     <g id="text_10">
      <!-- $\mathdefault{20}$ -->
      <g transform="translate(602.47888 379.130297) scale(0.18 -0.18)">
       <use xlink:href="#CMR17-32" transform="scale(0.996264)"/>
       <use xlink:href="#CMR17-30" transform="translate(45.690477 0) scale(0.996264)"/>
      </g>
     </g>
    </g>
    <g id="text_11">
     <!-- $n$ -->
     <g transform="translate(325.880161 400.455358) scale(0.2 -0.2)">
      <defs>
       <path id="CMMI12-6e" d="M 1318 1871 
C 1331 1910 1491 2229 1728 2433 
C 1894 2586 2112 2689 2362 2689 
C 2618 2689 2707 2497 2707 2242 
C 2707 1878 2445 1150 2317 805 
C 2259 651 2227 568 2227 453 
C 2227 166 2426 -64 2733 -64 
C 3328 -64 3552 875 3552 913 
C 3552 945 3526 971 3488 971 
C 3430 971 3424 952 3392 843 
C 3245 319 3002 64 2752 64 
C 2688 64 2586 64 2586 269 
C 2586 429 2656 621 2694 710 
C 2822 1063 3091 1780 3091 2145 
C 3091 2528 2867 2816 2381 2816 
C 1811 2816 1510 2415 1395 2255 
C 1376 2618 1114 2816 832 2816 
C 627 2816 486 2695 378 2478 
C 262 2248 173 1865 173 1839 
C 173 1814 198 1782 243 1782 
C 294 1782 301 1788 339 1935 
C 442 2325 557 2689 813 2689 
C 960 2689 1011 2586 1011 2395 
C 1011 2254 947 2005 902 1807 
L 723 1118 
C 698 996 627 709 595 594 
C 550 428 480 128 480 96 
C 480 6 550 -64 646 -64 
C 723 -64 813 -26 864 70 
C 877 102 934 326 966 453 
L 1107 1028 
L 1318 1871 
z
" transform="scale(0.015625)"/>
      </defs>
      <use xlink:href="#CMMI12-6e" transform="scale(0.996264)"/>
     </g>
    </g>
   </g>
   <g id="matplotlib.axis_2">
    <g id="ytick_1">
     <g id="line2d_21">
      <path d="M 52.703166 337.547579 
L 610.703166 337.547579 
" clip-path="url(#pa443594ad2)" style="fill: none; stroke-dasharray: 0.8,1.32; stroke-dashoffset: 0; stroke: #b0b0b0; stroke-width: 0.8"/>
     </g>
     <g id="line2d_22">
      <defs>
       <path id="m16ab9a266e" d="M 0 0 
L -3.5 0 
" style="stroke: #000000; stroke-width: 0.8"/>
      </defs>
      <g>
       <use xlink:href="#m16ab9a266e" x="52.703166" y="337.547579" style="stroke: #000000; stroke-width: 0.8"/>
      </g>
     </g>
     <g id="text_12">
      <!-- $\mathdefault{10^{-15}}$ -->
      <g transform="translate(7.2 343.774229) scale(0.18 -0.18)">
       <defs>
        <path id="CMSY10-0" d="M 4218 1472 
C 4326 1472 4442 1472 4442 1600 
C 4442 1728 4326 1728 4218 1728 
L 755 1728 
C 646 1728 531 1728 531 1600 
C 531 1472 646 1472 755 1472 
L 4218 1472 
z
" transform="scale(0.015625)"/>
        <path id="CMR17-35" d="M 730 3692 
C 794 3666 1056 3584 1325 3584 
C 1920 3584 2246 3911 2432 4100 
C 2432 4157 2432 4192 2394 4192 
C 2387 4192 2374 4192 2323 4163 
C 2099 4058 1837 3973 1517 3973 
C 1325 3973 1037 3999 723 4139 
C 653 4171 640 4171 634 4171 
C 602 4171 595 4164 595 4037 
L 595 2203 
C 595 2089 595 2057 659 2057 
C 691 2057 704 2070 736 2114 
C 941 2401 1222 2522 1542 2522 
C 1766 2522 2246 2382 2246 1289 
C 2246 1085 2246 715 2054 421 
C 1894 159 1645 25 1370 25 
C 947 25 518 320 403 814 
C 429 807 480 795 506 795 
C 589 795 749 840 749 1038 
C 749 1210 627 1280 506 1280 
C 358 1280 262 1190 262 1011 
C 262 454 704 -128 1382 -128 
C 2042 -128 2669 440 2669 1264 
C 2669 2030 2170 2624 1549 2624 
C 1222 2624 947 2503 730 2274 
L 730 3692 
z
" transform="scale(0.015625)"/>
       </defs>
       <use xlink:href="#CMR17-31" transform="scale(0.996264)"/>
       <use xlink:href="#CMR17-30" transform="translate(45.690477 0) scale(0.996264)"/>
       <use xlink:href="#CMSY10-0" transform="translate(91.380954 36.153639) scale(0.697382)"/>
       <use xlink:href="#CMR17-31" transform="translate(145.621947 36.153639) scale(0.697382)"/>
       <use xlink:href="#CMR17-35" transform="translate(177.605129 36.153639) scale(0.697382)"/>
      </g>
     </g>
    </g>
    <g id="ytick_2">
     <g id="line2d_23">
      <path d="M 52.703166 297.781193 
L 610.703166 297.781193 
" clip-path="url(#pa443594ad2)" style="fill: none; stroke-dasharray: 0.8,1.32; stroke-dashoffset: 0; stroke: #b0b0b0; stroke-width: 0.8"/>
     </g>
     <g id="line2d_24">
      <g>
       <use xlink:href="#m16ab9a266e" x="52.703166" y="297.781193" style="stroke: #000000; stroke-width: 0.8"/>
      </g>
     </g>
     <g id="text_13">
      <!-- $\mathdefault{10^{-13}}$ -->
      <g transform="translate(7.2 304.007843) scale(0.18 -0.18)">
       <defs>
        <path id="CMR17-33" d="M 1414 2157 
C 1984 2157 2234 1662 2234 1090 
C 2234 320 1824 25 1453 25 
C 1114 25 563 194 390 693 
C 422 680 454 680 486 680 
C 640 680 755 782 755 948 
C 755 1133 614 1216 486 1216 
C 378 1216 211 1165 211 926 
C 211 335 787 -128 1466 -128 
C 2176 -128 2720 430 2720 1085 
C 2720 1707 2208 2157 1600 2227 
C 2086 2328 2554 2756 2554 3329 
C 2554 3820 2048 4179 1472 4179 
C 890 4179 378 3829 378 3329 
C 378 3110 544 3072 627 3072 
C 762 3072 877 3155 877 3321 
C 877 3486 762 3569 627 3569 
C 602 3569 570 3569 544 3557 
C 730 3959 1235 4032 1459 4032 
C 1683 4032 2106 3925 2106 3320 
C 2106 3143 2080 2828 1862 2550 
C 1670 2304 1453 2304 1242 2284 
C 1210 2284 1062 2269 1037 2269 
C 992 2263 966 2257 966 2208 
C 966 2163 973 2157 1101 2157 
L 1414 2157 
z
" transform="scale(0.015625)"/>
       </defs>
       <use xlink:href="#CMR17-31" transform="scale(0.996264)"/>
       <use xlink:href="#CMR17-30" transform="translate(45.690477 0) scale(0.996264)"/>
       <use xlink:href="#CMSY10-0" transform="translate(91.380954 36.153639) scale(0.697382)"/>
       <use xlink:href="#CMR17-31" transform="translate(145.621947 36.153639) scale(0.697382)"/>
       <use xlink:href="#CMR17-33" transform="translate(177.605129 36.153639) scale(0.697382)"/>
      </g>
     </g>
    </g>
    <g id="ytick_3">
     <g id="line2d_25">
      <path d="M 52.703166 258.014806 
L 610.703166 258.014806 
" clip-path="url(#pa443594ad2)" style="fill: none; stroke-dasharray: 0.8,1.32; stroke-dashoffset: 0; stroke: #b0b0b0; stroke-width: 0.8"/>
     </g>
     <g id="line2d_26">
      <g>
       <use xlink:href="#m16ab9a266e" x="52.703166" y="258.014806" style="stroke: #000000; stroke-width: 0.8"/>
      </g>
     </g>
     <g id="text_14">
      <!-- $\mathdefault{10^{-11}}$ -->
      <g transform="translate(7.2 264.241456) scale(0.18 -0.18)">
       <use xlink:href="#CMR17-31" transform="scale(0.996264)"/>
       <use xlink:href="#CMR17-30" transform="translate(45.690477 0) scale(0.996264)"/>
       <use xlink:href="#CMSY10-0" transform="translate(91.380954 36.153639) scale(0.697382)"/>
       <use xlink:href="#CMR17-31" transform="translate(145.621947 36.153639) scale(0.697382)"/>
       <use xlink:href="#CMR17-31" transform="translate(177.605129 36.153639) scale(0.697382)"/>
      </g>
     </g>
    </g>
    <g id="ytick_4">
     <g id="line2d_27">
      <path d="M 52.703166 218.248419 
L 610.703166 218.248419 
" clip-path="url(#pa443594ad2)" style="fill: none; stroke-dasharray: 0.8,1.32; stroke-dashoffset: 0; stroke: #b0b0b0; stroke-width: 0.8"/>
     </g>
     <g id="line2d_28">
      <g>
       <use xlink:href="#m16ab9a266e" x="52.703166" y="218.248419" style="stroke: #000000; stroke-width: 0.8"/>
      </g>
     </g>
     <g id="text_15">
      <!-- $\mathdefault{10^{-9}}$ -->
      <g transform="translate(13.345609 224.47507) scale(0.18 -0.18)">
       <defs>
        <path id="CMR17-39" d="M 2253 1864 
C 2253 464 1670 31 1190 31 
C 1043 31 685 31 538 294 
C 704 268 826 357 826 518 
C 826 692 685 749 595 749 
C 538 749 365 723 365 506 
C 365 71 742 -128 1203 -128 
C 1939 -128 2688 674 2688 2073 
C 2688 3817 1971 4179 1485 4179 
C 851 4179 243 3628 243 2778 
C 243 1991 762 1408 1414 1408 
C 1952 1408 2189 1903 2253 2112 
L 2253 1864 
z
M 1427 1510 
C 1254 1510 1011 1542 813 1922 
C 678 2169 678 2461 678 2771 
C 678 3146 678 3405 858 3684 
C 947 3817 1114 4032 1485 4032 
C 2240 4032 2240 2885 2240 2632 
C 2240 2182 2035 1510 1427 1510 
z
" transform="scale(0.015625)"/>
       </defs>
       <use xlink:href="#CMR17-31" transform="scale(0.996264)"/>
       <use xlink:href="#CMR17-30" transform="translate(45.690477 0) scale(0.996264)"/>
       <use xlink:href="#CMSY10-0" transform="translate(91.380954 36.153639) scale(0.697382)"/>
       <use xlink:href="#CMR17-39" transform="translate(145.621947 36.153639) scale(0.697382)"/>
      </g>
     </g>
    </g>
    <g id="ytick_5">
     <g id="line2d_29">
      <path d="M 52.703166 178.482033 
L 610.703166 178.482033 
" clip-path="url(#pa443594ad2)" style="fill: none; stroke-dasharray: 0.8,1.32; stroke-dashoffset: 0; stroke: #b0b0b0; stroke-width: 0.8"/>
     </g>
     <g id="line2d_30">
      <g>
       <use xlink:href="#m16ab9a266e" x="52.703166" y="178.482033" style="stroke: #000000; stroke-width: 0.8"/>
      </g>
     </g>
     <g id="text_16">
      <!-- $\mathdefault{10^{-7}}$ -->
      <g transform="translate(13.345609 184.708683) scale(0.18 -0.18)">
       <defs>
        <path id="CMR17-37" d="M 2886 3941 
L 2886 4081 
L 1382 4081 
C 634 4081 621 4165 595 4288 
L 480 4288 
L 294 3094 
L 410 3094 
C 429 3215 474 3540 550 3661 
C 589 3712 1062 3712 1171 3712 
L 2579 3712 
L 1869 2661 
C 1395 1954 1069 999 1069 165 
C 1069 89 1069 -128 1299 -128 
C 1530 -128 1530 89 1530 171 
L 1530 465 
C 1530 1508 1709 2196 2003 2636 
L 2886 3941 
z
" transform="scale(0.015625)"/>
       </defs>
       <use xlink:href="#CMR17-31" transform="scale(0.996264)"/>
       <use xlink:href="#CMR17-30" transform="translate(45.690477 0) scale(0.996264)"/>
       <use xlink:href="#CMSY10-0" transform="translate(91.380954 36.153639) scale(0.697382)"/>
       <use xlink:href="#CMR17-37" transform="translate(145.621947 36.153639) scale(0.697382)"/>
      </g>
     </g>
    </g>
    <g id="ytick_6">
     <g id="line2d_31">
      <path d="M 52.703166 138.715646 
L 610.703166 138.715646 
" clip-path="url(#pa443594ad2)" style="fill: none; stroke-dasharray: 0.8,1.32; stroke-dashoffset: 0; stroke: #b0b0b0; stroke-width: 0.8"/>
     </g>
     <g id="line2d_32">
      <g>
       <use xlink:href="#m16ab9a266e" x="52.703166" y="138.715646" style="stroke: #000000; stroke-width: 0.8"/>
      </g>
     </g>
     <g id="text_17">
      <!-- $\mathdefault{10^{-5}}$ -->
      <g transform="translate(13.345609 144.942296) scale(0.18 -0.18)">
       <use xlink:href="#CMR17-31" transform="scale(0.996264)"/>
       <use xlink:href="#CMR17-30" transform="translate(45.690477 0) scale(0.996264)"/>
       <use xlink:href="#CMSY10-0" transform="translate(91.380954 36.153639) scale(0.697382)"/>
       <use xlink:href="#CMR17-35" transform="translate(145.621947 36.153639) scale(0.697382)"/>
      </g>
     </g>
    </g>
    <g id="ytick_7">
     <g id="line2d_33">
      <path d="M 52.703166 98.94926 
L 610.703166 98.94926 
" clip-path="url(#pa443594ad2)" style="fill: none; stroke-dasharray: 0.8,1.32; stroke-dashoffset: 0; stroke: #b0b0b0; stroke-width: 0.8"/>
     </g>
     <g id="line2d_34">
      <g>
       <use xlink:href="#m16ab9a266e" x="52.703166" y="98.94926" style="stroke: #000000; stroke-width: 0.8"/>
      </g>
     </g>
     <g id="text_18">
      <!-- $\mathdefault{10^{-3}}$ -->
      <g transform="translate(13.345609 105.17591) scale(0.18 -0.18)">
       <use xlink:href="#CMR17-31" transform="scale(0.996264)"/>
       <use xlink:href="#CMR17-30" transform="translate(45.690477 0) scale(0.996264)"/>
       <use xlink:href="#CMSY10-0" transform="translate(91.380954 36.153639) scale(0.697382)"/>
       <use xlink:href="#CMR17-33" transform="translate(145.621947 36.153639) scale(0.697382)"/>
      </g>
     </g>
    </g>
    <g id="ytick_8">
     <g id="line2d_35">
      <path d="M 52.703166 59.182873 
L 610.703166 59.182873 
" clip-path="url(#pa443594ad2)" style="fill: none; stroke-dasharray: 0.8,1.32; stroke-dashoffset: 0; stroke: #b0b0b0; stroke-width: 0.8"/>
     </g>
     <g id="line2d_36">
      <g>
       <use xlink:href="#m16ab9a266e" x="52.703166" y="59.182873" style="stroke: #000000; stroke-width: 0.8"/>
      </g>
     </g>
     <g id="text_19">
      <!-- $\mathdefault{10^{-1}}$ -->
      <g transform="translate(13.345609 65.409523) scale(0.18 -0.18)">
       <use xlink:href="#CMR17-31" transform="scale(0.996264)"/>
       <use xlink:href="#CMR17-30" transform="translate(45.690477 0) scale(0.996264)"/>
       <use xlink:href="#CMSY10-0" transform="translate(91.380954 36.153639) scale(0.697382)"/>
       <use xlink:href="#CMR17-31" transform="translate(145.621947 36.153639) scale(0.697382)"/>
      </g>
     </g>
    </g>
   </g>
   <g id="line2d_37">
    <path d="M 52.703166 64.893778 
L 83.703166 69.09846 
L 114.703166 86.986777 
L 145.703166 105.502661 
L 176.703166 108.441728 
L 207.703166 129.815255 
L 238.703166 151.563512 
L 269.703166 153.748571 
L 300.703166 177.645105 
L 331.703166 201.763118 
L 362.703166 203.503977 
L 393.703166 229.344598 
L 424.703166 255.33189 
L 455.703166 256.778876 
L 486.703166 284.202961 
L 517.703166 311.685853 
L 548.703166 312.921552 
L 579.703166 338.571559 
L 579.820238 412.530991 
" clip-path="url(#pa443594ad2)" style="fill: none; stroke: #ff0000; stroke-width: 2; stroke-linecap: square"/>
    <defs>
     <path id="m9691398ebb" d="M 0 3 
C 0.795609 3 1.55874 2.683901 2.12132 2.12132 
C 2.683901 1.55874 3 0.795609 3 0 
C 3 -0.795609 2.683901 -1.55874 2.12132 -2.12132 
C 1.55874 -2.683901 0.795609 -3 0 -3 
C -0.795609 -3 -1.55874 -2.683901 -2.12132 -2.12132 
C -2.683901 -1.55874 -3 -0.795609 -3 0 
C -3 0.795609 -2.683901 1.55874 -2.12132 2.12132 
C -1.55874 2.683901 -0.795609 3 0 3 
z
" style="stroke: #0000ff"/>
    </defs>
    <g clip-path="url(#pa443594ad2)">
     <use xlink:href="#m9691398ebb" x="52.703166" y="64.893778" style="fill: #ff0000; stroke: #0000ff"/>
     <use xlink:href="#m9691398ebb" x="83.703166" y="69.09846" style="fill: #ff0000; stroke: #0000ff"/>
     <use xlink:href="#m9691398ebb" x="114.703166" y="86.986777" style="fill: #ff0000; stroke: #0000ff"/>
     <use xlink:href="#m9691398ebb" x="145.703166" y="105.502661" style="fill: #ff0000; stroke: #0000ff"/>
     <use xlink:href="#m9691398ebb" x="176.703166" y="108.441728" style="fill: #ff0000; stroke: #0000ff"/>
     <use xlink:href="#m9691398ebb" x="207.703166" y="129.815255" style="fill: #ff0000; stroke: #0000ff"/>
     <use xlink:href="#m9691398ebb" x="238.703166" y="151.563512" style="fill: #ff0000; stroke: #0000ff"/>
     <use xlink:href="#m9691398ebb" x="269.703166" y="153.748571" style="fill: #ff0000; stroke: #0000ff"/>
     <use xlink:href="#m9691398ebb" x="300.703166" y="177.645105" style="fill: #ff0000; stroke: #0000ff"/>
     <use xlink:href="#m9691398ebb" x="331.703166" y="201.763118" style="fill: #ff0000; stroke: #0000ff"/>
     <use xlink:href="#m9691398ebb" x="362.703166" y="203.503977" style="fill: #ff0000; stroke: #0000ff"/>
     <use xlink:href="#m9691398ebb" x="393.703166" y="229.344598" style="fill: #ff0000; stroke: #0000ff"/>
     <use xlink:href="#m9691398ebb" x="424.703166" y="255.33189" style="fill: #ff0000; stroke: #0000ff"/>
     <use xlink:href="#m9691398ebb" x="455.703166" y="256.778876" style="fill: #ff0000; stroke: #0000ff"/>
     <use xlink:href="#m9691398ebb" x="486.703166" y="284.202961" style="fill: #ff0000; stroke: #0000ff"/>
     <use xlink:href="#m9691398ebb" x="517.703166" y="311.685853" style="fill: #ff0000; stroke: #0000ff"/>
     <use xlink:href="#m9691398ebb" x="548.703166" y="312.921552" style="fill: #ff0000; stroke: #0000ff"/>
     <use xlink:href="#m9691398ebb" x="579.703166" y="338.571559" style="fill: #ff0000; stroke: #0000ff"/>
     <use xlink:href="#m9691398ebb" x="610.703166" y="19922.492944" style="fill: #ff0000; stroke: #0000ff"/>
    </g>
   </g>
   <g id="line2d_38">
    <path d="M 52.703166 52.442121 
L 83.703166 64.893778 
L 114.703166 79.110657 
L 145.703166 94.80926 
L 176.703166 111.781226 
L 207.703166 129.867937 
L 238.703166 148.945048 
L 269.703166 168.91267 
L 300.703166 189.688916 
L 331.703166 211.205503 
L 362.703166 233.404669 
L 393.703166 256.237231 
L 424.703166 279.66549 
L 455.703166 303.735241 
L 486.703166 330.659241 
L 486.832711 412.530991 
" clip-path="url(#pa443594ad2)" style="fill: none; stroke: #ffa500; stroke-width: 2; stroke-linecap: square"/>
    <defs>
     <path id="m8bcfa19ebe" d="M 0 3 
C 0.795609 3 1.55874 2.683901 2.12132 2.12132 
C 2.683901 1.55874 3 0.795609 3 0 
C 3 -0.795609 2.683901 -1.55874 2.12132 -2.12132 
C 1.55874 -2.683901 0.795609 -3 0 -3 
C -0.795609 -3 -1.55874 -2.683901 -2.12132 -2.12132 
C -2.683901 -1.55874 -3 -0.795609 -3 0 
C -3 0.795609 -2.683901 1.55874 -2.12132 2.12132 
C -1.55874 2.683901 -0.795609 3 0 3 
z
" style="stroke: #a52a2a"/>
    </defs>
    <g clip-path="url(#pa443594ad2)">
     <use xlink:href="#m8bcfa19ebe" x="52.703166" y="52.442121" style="fill: #ffa500; stroke: #a52a2a"/>
     <use xlink:href="#m8bcfa19ebe" x="83.703166" y="64.893778" style="fill: #ffa500; stroke: #a52a2a"/>
     <use xlink:href="#m8bcfa19ebe" x="114.703166" y="79.110657" style="fill: #ffa500; stroke: #a52a2a"/>
     <use xlink:href="#m8bcfa19ebe" x="145.703166" y="94.80926" style="fill: #ffa500; stroke: #a52a2a"/>
     <use xlink:href="#m8bcfa19ebe" x="176.703166" y="111.781226" style="fill: #ffa500; stroke: #a52a2a"/>
     <use xlink:href="#m8bcfa19ebe" x="207.703166" y="129.867937" style="fill: #ffa500; stroke: #a52a2a"/>
     <use xlink:href="#m8bcfa19ebe" x="238.703166" y="148.945048" style="fill: #ffa500; stroke: #a52a2a"/>
     <use xlink:href="#m8bcfa19ebe" x="269.703166" y="168.91267" style="fill: #ffa500; stroke: #a52a2a"/>
     <use xlink:href="#m8bcfa19ebe" x="300.703166" y="189.688916" style="fill: #ffa500; stroke: #a52a2a"/>
     <use xlink:href="#m8bcfa19ebe" x="331.703166" y="211.205503" style="fill: #ffa500; stroke: #a52a2a"/>
     <use xlink:href="#m8bcfa19ebe" x="362.703166" y="233.404669" style="fill: #ffa500; stroke: #a52a2a"/>
     <use xlink:href="#m8bcfa19ebe" x="393.703166" y="256.237231" style="fill: #ffa500; stroke: #a52a2a"/>
     <use xlink:href="#m8bcfa19ebe" x="424.703166" y="279.66549" style="fill: #ffa500; stroke: #a52a2a"/>
     <use xlink:href="#m8bcfa19ebe" x="455.703166" y="303.735241" style="fill: #ffa500; stroke: #a52a2a"/>
     <use xlink:href="#m8bcfa19ebe" x="486.703166" y="330.659241" style="fill: #ffa500; stroke: #a52a2a"/>
     <use xlink:href="#m8bcfa19ebe" x="517.703166" y="19922.492944" style="fill: #ffa500; stroke: #a52a2a"/>
     <use xlink:href="#m8bcfa19ebe" x="548.703166" y="19922.492944" style="fill: #ffa500; stroke: #a52a2a"/>
     <use xlink:href="#m8bcfa19ebe" x="579.703166" y="19922.492944" style="fill: #ffa500; stroke: #a52a2a"/>
     <use xlink:href="#m8bcfa19ebe" x="610.703166" y="19922.492944" style="fill: #ffa500; stroke: #a52a2a"/>
    </g>
   </g>
   <g id="line2d_39">
    <path d="M 52.703166 42.156997 
L 83.703166 50.239118 
L 114.703166 64.893778 
L 145.703166 79.984608 
L 176.703166 96.679078 
L 207.703166 114.520041 
L 238.703166 133.40496 
L 269.703166 153.214869 
L 300.703166 173.859804 
L 331.703166 195.265315 
L 362.703166 217.369292 
L 393.703166 240.119054 
L 424.703166 263.469299 
L 455.703166 287.380092 
L 486.703166 311.87991 
L 517.703166 335.070303 
L 517.825759 412.530991 
M 579.595535 412.530991 
L 579.703166 344.556997 
L 579.810797 412.530991 
" clip-path="url(#pa443594ad2)" style="fill: none; stroke: #bfbf00; stroke-width: 2; stroke-linecap: square"/>
    <defs>
     <path id="m795df74a3c" d="M 0 3 
C 0.795609 3 1.55874 2.683901 2.12132 2.12132 
C 2.683901 1.55874 3 0.795609 3 0 
C 3 -0.795609 2.683901 -1.55874 2.12132 -2.12132 
C 1.55874 -2.683901 0.795609 -3 0 -3 
C -0.795609 -3 -1.55874 -2.683901 -2.12132 -2.12132 
C -2.683901 -1.55874 -3 -0.795609 -3 0 
C -3 0.795609 -2.683901 1.55874 -2.12132 2.12132 
C -1.55874 2.683901 -0.795609 3 0 3 
z
" style="stroke: #008000"/>
    </defs>
    <g clip-path="url(#pa443594ad2)">
     <use xlink:href="#m795df74a3c" x="52.703166" y="42.156997" style="fill: #bfbf00; stroke: #008000"/>
     <use xlink:href="#m795df74a3c" x="83.703166" y="50.239118" style="fill: #bfbf00; stroke: #008000"/>
     <use xlink:href="#m795df74a3c" x="114.703166" y="64.893778" style="fill: #bfbf00; stroke: #008000"/>
     <use xlink:href="#m795df74a3c" x="145.703166" y="79.984608" style="fill: #bfbf00; stroke: #008000"/>
     <use xlink:href="#m795df74a3c" x="176.703166" y="96.679078" style="fill: #bfbf00; stroke: #008000"/>
     <use xlink:href="#m795df74a3c" x="207.703166" y="114.520041" style="fill: #bfbf00; stroke: #008000"/>
     <use xlink:href="#m795df74a3c" x="238.703166" y="133.40496" style="fill: #bfbf00; stroke: #008000"/>
     <use xlink:href="#m795df74a3c" x="269.703166" y="153.214869" style="fill: #bfbf00; stroke: #008000"/>
     <use xlink:href="#m795df74a3c" x="300.703166" y="173.859804" style="fill: #bfbf00; stroke: #008000"/>
     <use xlink:href="#m795df74a3c" x="331.703166" y="195.265315" style="fill: #bfbf00; stroke: #008000"/>
     <use xlink:href="#m795df74a3c" x="362.703166" y="217.369292" style="fill: #bfbf00; stroke: #008000"/>
     <use xlink:href="#m795df74a3c" x="393.703166" y="240.119054" style="fill: #bfbf00; stroke: #008000"/>
     <use xlink:href="#m795df74a3c" x="424.703166" y="263.469299" style="fill: #bfbf00; stroke: #008000"/>
     <use xlink:href="#m795df74a3c" x="455.703166" y="287.380092" style="fill: #bfbf00; stroke: #008000"/>
     <use xlink:href="#m795df74a3c" x="486.703166" y="311.87991" style="fill: #bfbf00; stroke: #008000"/>
     <use xlink:href="#m795df74a3c" x="517.703166" y="335.070303" style="fill: #bfbf00; stroke: #008000"/>
     <use xlink:href="#m795df74a3c" x="548.703166" y="19922.492944" style="fill: #bfbf00; stroke: #008000"/>
     <use xlink:href="#m795df74a3c" x="579.703166" y="344.556997" style="fill: #bfbf00; stroke: #008000"/>
     <use xlink:href="#m795df74a3c" x="610.703166" y="19922.492944" style="fill: #bfbf00; stroke: #008000"/>
    </g>
   </g>
   <g id="patch_3">
    <path d="M 52.703166 359.676997 
L 52.703166 27.036997 
" style="fill: none; stroke: #000000; stroke-width: 0.8; stroke-linejoin: miter; stroke-linecap: square"/>
   </g>
   <g id="patch_4">
    <path d="M 610.703166 359.676997 
L 610.703166 27.036997 
" style="fill: none; stroke: #000000; stroke-width: 0.8; stroke-linejoin: miter; stroke-linecap: square"/>
   </g>
   <g id="patch_5">
    <path d="M 52.703166 359.676997 
L 610.703166 359.676997 
" style="fill: none; stroke: #000000; stroke-width: 0.8; stroke-linejoin: miter; stroke-linecap: square"/>
   </g>
   <g id="patch_6">
    <path d="M 52.703166 27.036997 
L 610.703166 27.036997 
" style="fill: none; stroke: #000000; stroke-width: 0.8; stroke-linejoin: miter; stroke-linecap: square"/>
   </g>
   <g id="text_20">
    <!-- Euler's number: series, continued fraction and derangements -->
    <g transform="translate(90.159492 21.036997) scale(0.2 -0.2)">
     <defs>
      <path id="CMR17-45" d="M 3885 1615 
L 3770 1615 
C 3629 676 3546 166 2419 166 
L 1530 166 
C 1274 166 1261 197 1261 414 
L 1261 2176 
L 1862 2176 
C 2464 2176 2522 1960 2522 1430 
L 2637 1430 
L 2637 3081 
L 2522 3081 
C 2522 2557 2464 2342 1862 2342 
L 1261 2342 
L 1261 3913 
C 1261 4128 1274 4160 1530 4160 
L 2406 4160 
C 3398 4160 3514 3769 3603 2929 
L 3718 2929 
L 3565 4325 
L 326 4325 
L 326 4160 
C 768 4160 838 4160 838 3874 
L 838 451 
C 838 166 768 166 326 166 
L 326 0 
L 3654 0 
L 3885 1615 
z
" transform="scale(0.015625)"/>
      <path id="CMR17-75" d="M 1882 2693 
L 1882 2528 
C 2259 2528 2317 2489 2317 2186 
L 2317 1032 
C 2317 500 2029 38 1555 38 
C 1030 38 986 348 986 678 
L 986 2763 
L 211 2693 
L 211 2528 
C 467 2528 640 2528 646 2274 
L 646 1058 
C 646 633 646 361 813 183 
C 896 101 1056 -64 1517 -64 
C 2061 -64 2272 377 2323 506 
L 2330 506 
L 2330 -63 
L 3091 -63 
L 3091 128 
C 2714 128 2656 166 2656 473 
L 2656 2763 
L 1882 2693 
z
" transform="scale(0.015625)"/>
      <path id="CMR17-6c" d="M 979 4396 
L 218 4326 
L 218 4160 
C 595 4160 653 4122 653 3817 
L 653 426 
C 653 184 627 153 218 153 
L 218 -13 
C 371 0 653 0 813 0 
C 979 0 1261 0 1414 -13 
L 1414 153 
C 1005 153 979 178 979 426 
L 979 4396 
z
" transform="scale(0.015625)"/>
      <path id="CMR17-65" d="M 2438 1472 
C 2464 1498 2464 1511 2464 1576 
C 2464 2238 2118 2816 1389 2816 
C 710 2816 173 2169 173 1383 
C 173 551 781 -64 1459 -64 
C 2176 -64 2458 607 2458 740 
C 2458 784 2419 784 2406 784 
C 2362 784 2355 771 2330 696 
C 2189 265 1837 51 1504 51 
C 1229 51 954 203 781 480 
C 582 803 582 1176 582 1472 
L 2438 1472 
z
M 589 1568 
C 634 2505 1126 2714 1382 2714 
C 1818 2714 2112 2297 2118 1568 
L 589 1568 
z
" transform="scale(0.015625)"/>
      <path id="CMR17-72" d="M 960 1497 
C 960 2112 1222 2688 1702 2688 
C 1747 2688 1792 2682 1837 2662 
C 1837 2662 1696 2617 1696 2452 
C 1696 2298 1818 2234 1914 2234 
C 1990 2234 2131 2279 2131 2458 
C 2131 2663 1926 2790 1709 2790 
C 1222 2790 1011 2317 947 2093 
L 941 2093 
L 941 2790 
L 198 2720 
L 198 2554 
C 576 2554 634 2515 634 2208 
L 634 428 
C 634 184 608 153 198 153 
L 198 -13 
C 352 0 646 0 813 0 
C 998 0 1325 0 1498 -13 
L 1498 153 
C 1037 153 960 153 960 440 
L 960 1497 
z
" transform="scale(0.015625)"/>
      <path id="CMR17-27" d="M 1024 4025 
C 1037 3955 1043 3929 1043 3820 
C 1043 3415 883 3042 634 2778 
C 608 2752 595 2733 595 2707 
C 595 2681 621 2656 646 2656 
C 691 2656 1146 3105 1146 3811 
C 1146 3952 1133 4426 800 4426 
C 659 4426 538 4331 538 4165 
C 538 3999 659 3904 800 3904 
C 858 3904 966 3923 1024 4025 
z
" transform="scale(0.015625)"/>
      <path id="CMR17-73" d="M 1978 2697 
C 1978 2813 1971 2819 1933 2819 
C 1907 2819 1901 2813 1824 2717 
C 1805 2691 1747 2626 1728 2601 
C 1523 2819 1235 2819 1126 2819 
C 416 2819 160 2447 160 2076 
C 160 1498 813 1365 998 1325 
C 1402 1243 1542 1217 1677 1101 
C 1760 1025 1901 884 1901 654 
C 1901 384 1747 38 1158 38 
C 602 38 403 460 288 1021 
C 269 1110 269 1117 218 1117 
C 166 1117 160 1110 160 983 
L 160 63 
C 160 -51 166 -58 205 -58 
C 237 -58 243 -51 275 0 
C 314 57 410 211 448 276 
C 576 103 800 -64 1158 -64 
C 1792 -64 2131 283 2131 784 
C 2131 1112 1958 1285 1875 1362 
C 1683 1561 1459 1606 1190 1657 
C 838 1735 390 1825 390 2217 
C 390 2383 480 2737 1126 2737 
C 1811 2737 1850 2094 1862 1888 
C 1869 1856 1901 1849 1920 1849 
C 1978 1849 1978 1869 1978 1978 
L 1978 2697 
z
" transform="scale(0.015625)"/>
      <path id="CMR17-6e" d="M 2656 1933 
C 2656 2259 2592 2790 1837 2790 
C 1331 2790 1069 2400 973 2144 
L 966 2144 
L 966 2790 
L 211 2720 
L 211 2554 
C 589 2554 646 2515 646 2208 
L 646 428 
C 646 184 621 153 211 153 
L 211 -13 
C 365 0 646 0 813 0 
C 979 0 1267 0 1421 -13 
L 1421 153 
C 1011 153 986 178 986 428 
L 986 1658 
C 986 2247 1344 2688 1792 2688 
C 2266 2688 2317 2266 2317 1958 
L 2317 428 
C 2317 184 2291 153 1882 153 
L 1882 -13 
C 2035 0 2317 0 2483 0 
C 2650 0 2938 0 3091 -13 
L 3091 153 
C 2682 153 2656 178 2656 428 
L 2656 1933 
z
" transform="scale(0.015625)"/>
      <path id="CMR17-6d" d="M 4326 1933 
C 4326 2252 4269 2790 3507 2790 
C 3072 2790 2771 2496 2656 2151 
L 2650 2151 
C 2573 2676 2195 2790 1837 2790 
C 1331 2790 1069 2400 973 2144 
L 966 2144 
L 966 2790 
L 211 2720 
L 211 2554 
C 589 2554 646 2515 646 2208 
L 646 428 
C 646 184 621 153 211 153 
L 211 -13 
C 365 0 646 0 813 0 
C 979 0 1267 0 1421 -13 
L 1421 153 
C 1011 153 986 178 986 428 
L 986 1658 
C 986 2247 1344 2688 1792 2688 
C 2266 2688 2317 2266 2317 1958 
L 2317 428 
C 2317 184 2291 153 1882 153 
L 1882 -13 
C 2035 0 2317 0 2483 0 
C 2650 0 2938 0 3091 -13 
L 3091 153 
C 2682 153 2656 178 2656 428 
L 2656 1658 
C 2656 2247 3014 2688 3462 2688 
C 3936 2688 3987 2266 3987 1958 
L 3987 428 
C 3987 184 3962 153 3552 153 
L 3552 -13 
C 3706 0 3987 0 4154 0 
C 4320 0 4608 0 4762 -13 
L 4762 153 
C 4352 153 4326 178 4326 428 
L 4326 1933 
z
" transform="scale(0.015625)"/>
      <path id="CMR17-62" d="M 960 4396 
L 198 4326 
L 198 4160 
C 576 4160 634 4122 634 3817 
L 634 -13 
L 749 -13 
L 934 441 
C 1120 141 1395 -64 1766 -64 
C 2406 -64 3053 500 3053 1370 
C 3053 2188 2477 2790 1830 2790 
C 1434 2790 1152 2579 960 2330 
L 960 4396 
z
M 973 2004 
C 973 2118 973 2138 1062 2272 
C 1312 2657 1670 2688 1792 2688 
C 1984 2688 2643 2585 2643 1376 
C 2643 108 1888 38 1734 38 
C 1536 38 1248 114 1043 486 
C 973 608 973 621 973 735 
L 973 2004 
z
" transform="scale(0.015625)"/>
      <path id="CMR17-3a" d="M 1062 2491 
C 1062 2650 934 2752 800 2752 
C 672 2752 538 2650 538 2491 
C 538 2332 666 2230 800 2230 
C 928 2230 1062 2332 1062 2491 
z
M 1062 261 
C 1062 420 934 522 800 522 
C 672 522 538 420 538 261 
C 538 102 666 0 800 0 
C 928 0 1062 102 1062 261 
z
" transform="scale(0.015625)"/>
      <path id="CMR17-69" d="M 992 3909 
C 992 4049 877 4170 730 4170 
C 589 4170 467 4056 467 3909 
C 467 3769 582 3648 730 3648 
C 870 3648 992 3763 992 3909 
z
M 243 2706 
L 243 2541 
C 602 2541 653 2502 653 2197 
L 653 427 
C 653 184 627 153 218 153 
L 218 -13 
C 371 0 646 0 806 0 
C 960 0 1222 0 1370 -13 
L 1370 153 
C 992 153 979 191 979 420 
L 979 2776 
L 243 2706 
z
" transform="scale(0.015625)"/>
      <path id="CMR17-2c" d="M 1011 102 
C 1024 45 1024 25 1024 -77 
C 1024 -463 896 -817 627 -1139 
C 595 -1170 595 -1183 595 -1197 
C 595 -1222 621 -1248 646 -1248 
C 685 -1248 1126 -799 1126 -87 
C 1126 124 1101 522 800 522 
C 659 522 538 427 538 261 
C 538 96 659 0 800 0 
C 877 0 960 32 1011 102 
z
" transform="scale(0.015625)"/>
      <path id="CMR17-63" d="M 2234 2240 
C 2112 2240 1933 2240 1933 2017 
C 1933 1838 2080 1787 2163 1787 
C 2208 1787 2394 1807 2394 2024 
C 2394 2467 1958 2803 1466 2803 
C 787 2803 211 2178 211 1363 
C 211 516 813 -64 1466 -64 
C 2259 -64 2458 677 2458 748 
C 2458 774 2451 793 2406 793 
C 2362 793 2355 787 2330 703 
C 2163 180 1798 51 1523 51 
C 1114 51 621 427 621 1369 
C 621 2338 1094 2688 1472 2688 
C 1722 2688 2093 2573 2234 2240 
z
" transform="scale(0.015625)"/>
      <path id="CMR17-6f" d="M 2758 1356 
C 2758 2176 2163 2816 1466 2816 
C 768 2816 173 2176 173 1356 
C 173 551 768 -64 1466 -64 
C 2163 -64 2758 551 2758 1356 
z
M 1466 51 
C 1165 51 909 230 762 480 
C 602 767 582 1126 582 1408 
C 582 1677 595 2010 762 2298 
C 890 2509 1139 2714 1466 2714 
C 1754 2714 1997 2554 2150 2330 
C 2349 2029 2349 1607 2349 1408 
C 2349 1158 2336 775 2163 467 
C 1984 173 1709 51 1466 51 
z
" transform="scale(0.015625)"/>
      <path id="CMR17-74" d="M 966 2560 
L 1862 2560 
L 1862 2725 
L 966 2725 
L 966 3904 
L 851 3904 
C 838 3245 614 2668 70 2668 
L 70 2560 
L 627 2560 
L 627 771 
C 627 650 627 -64 1370 -64 
C 1747 -64 1965 306 1965 777 
L 1965 1140 
L 1850 1140 
L 1850 783 
C 1850 344 1677 51 1408 51 
C 1222 51 966 178 966 758 
L 966 2560 
z
" transform="scale(0.015625)"/>
      <path id="CMR17-64" d="M 1869 4326 
L 1869 4160 
C 2246 4160 2304 4122 2304 3820 
L 2304 2345 
C 2278 2377 2016 2790 1498 2790 
C 845 2790 211 2208 211 1364 
C 211 525 806 -64 1434 -64 
C 1978 -64 2259 337 2291 380 
L 2291 -63 
L 3066 -63 
L 3066 128 
C 2688 128 2630 166 2630 473 
L 2630 4396 
L 1869 4326 
z
M 2291 755 
C 2291 563 2176 390 2029 262 
C 1811 70 1594 38 1472 38 
C 1286 38 621 134 621 1356 
C 621 2612 1363 2688 1530 2688 
C 1824 2688 2061 2522 2208 2291 
C 2291 2157 2291 2138 2291 2023 
L 2291 755 
z
" transform="scale(0.015625)"/>
      <path id="CMR17-66" d="M 979 2560 
L 1709 2560 
L 1709 2725 
L 966 2725 
L 966 3494 
C 966 4022 1235 4352 1510 4352 
C 1594 4352 1690 4327 1754 4282 
C 1702 4269 1568 4225 1568 4067 
C 1568 3901 1696 3850 1786 3850 
C 1875 3850 2003 3901 2003 4067 
C 2003 4308 1773 4454 1517 4454 
C 1152 4454 653 4156 653 3481 
L 653 2725 
L 141 2725 
L 141 2560 
L 653 2560 
L 653 427 
C 653 184 627 153 218 153 
L 218 -13 
C 371 0 666 0 832 0 
C 1018 0 1344 0 1517 -13 
L 1517 153 
C 1056 153 979 153 979 439 
L 979 2560 
z
" transform="scale(0.015625)"/>
      <path id="CMR17-61" d="M 2304 1653 
C 2304 2072 2304 2294 2035 2543 
C 1798 2752 1523 2816 1306 2816 
C 800 2816 435 2407 435 1971 
C 435 1728 627 1728 666 1728 
C 749 1728 896 1778 896 1954 
C 896 2112 774 2181 666 2181 
C 640 2181 608 2174 589 2168 
C 723 2592 1069 2714 1293 2714 
C 1613 2714 1965 2429 1965 1885 
L 1965 1600 
C 1587 1600 1133 1549 774 1357 
C 371 1133 256 813 256 570 
C 256 77 832 -64 1171 -64 
C 1523 -64 1850 139 1990 511 
C 2003 233 2182 -18 2464 -18 
C 2598 -18 2938 70 2938 567 
L 2938 920 
L 2822 920 
L 2822 562 
C 2822 178 2650 128 2566 128 
C 2304 128 2304 458 2304 738 
L 2304 1653 
z
M 1965 870 
C 1965 317 1568 38 1216 38 
C 896 38 646 275 646 570 
C 646 761 730 1100 1101 1305 
C 1408 1478 1760 1504 1965 1504 
L 1965 870 
z
" transform="scale(0.015625)"/>
      <path id="CMR17-67" d="M 710 1164 
C 832 1068 1043 960 1299 960 
C 1805 960 2240 1357 2240 1888 
C 2240 2054 2189 2310 1997 2509 
C 2176 2692 2438 2752 2586 2752 
C 2611 2752 2650 2752 2682 2734 
C 2656 2728 2598 2703 2598 2605 
C 2598 2527 2656 2471 2739 2471 
C 2835 2471 2886 2533 2886 2614 
C 2886 2731 2790 2854 2586 2854 
C 2330 2854 2106 2738 1926 2580 
C 1734 2753 1504 2816 1299 2816 
C 794 2816 358 2419 358 1888 
C 358 1522 570 1292 634 1228 
C 442 1004 442 743 442 711 
C 442 545 506 302 723 168 
C 390 85 128 -169 128 -486 
C 128 -943 736 -1280 1466 -1280 
C 2170 -1280 2803 -956 2803 -479 
C 2803 384 1856 384 1363 384 
C 1216 384 954 384 922 391 
C 723 423 589 602 589 826 
C 589 883 589 1024 710 1164 
z
M 1299 1068 
C 736 1068 736 1760 736 1889 
C 736 2016 736 2708 1299 2708 
C 1862 2708 1862 2016 1862 1889 
C 1862 1760 1862 1068 1299 1068 
z
M 1466 -1171 
C 826 -1171 384 -835 384 -486 
C 384 -289 493 -105 634 -4 
C 794 104 858 104 1293 104 
C 1818 104 2547 104 2547 -486 
C 2547 -835 2106 -1171 1466 -1171 
z
" transform="scale(0.015625)"/>
     </defs>
     <use xlink:href="#CMR17-45" transform="scale(0.996264)"/>
     <use xlink:href="#CMR17-75" transform="translate(62.586301 0) scale(0.996264)"/>
     <use xlink:href="#CMR17-6c" transform="translate(113.48167 0) scale(0.996264)"/>
     <use xlink:href="#CMR17-65" transform="translate(138.352729 0) scale(0.996264)"/>
     <use xlink:href="#CMR17-72" transform="translate(178.838389 0) scale(0.996264)"/>
     <use xlink:href="#CMR17-27" transform="translate(214.119157 0) scale(0.996264)"/>
     <use xlink:href="#CMR17-73" transform="translate(238.990216 0) scale(0.996264)"/>
     <use xlink:href="#CMR17-6e" transform="translate(304.86752 0) scale(0.996264)"/>
     <use xlink:href="#CMR17-75" transform="translate(353.160435 0) scale(0.996264)"/>
     <use xlink:href="#CMR17-6d" transform="translate(404.055805 0) scale(0.996264)"/>
     <use xlink:href="#CMR17-62" transform="translate(478.372941 0) scale(0.996264)"/>
     <use xlink:href="#CMR17-65" transform="translate(531.87075 0) scale(0.996264)"/>
     <use xlink:href="#CMR17-72" transform="translate(572.35641 0) scale(0.996264)"/>
     <use xlink:href="#CMR17-3a" transform="translate(607.637178 0) scale(0.996264)"/>
     <use xlink:href="#CMR17-73" transform="translate(672.993897 0) scale(0.996264)"/>
     <use xlink:href="#CMR17-65" transform="translate(708.795234 0) scale(0.996264)"/>
     <use xlink:href="#CMR17-72" transform="translate(749.280895 0) scale(0.996264)"/>
     <use xlink:href="#CMR17-69" transform="translate(784.561663 0) scale(0.996264)"/>
     <use xlink:href="#CMR17-65" transform="translate(809.432721 0) scale(0.996264)"/>
     <use xlink:href="#CMR17-73" transform="translate(849.918382 0) scale(0.996264)"/>
     <use xlink:href="#CMR17-2c" transform="translate(885.719719 0) scale(0.996264)"/>
     <use xlink:href="#CMR17-63" transform="translate(940.666744 0) scale(0.996264)"/>
     <use xlink:href="#CMR17-6f" transform="translate(981.152405 0) scale(0.996264)"/>
     <use xlink:href="#CMR17-6e" transform="translate(1026.842882 0) scale(0.996264)"/>
     <use xlink:href="#CMR17-74" transform="translate(1075.135798 0) scale(0.996264)"/>
     <use xlink:href="#CMR17-69" transform="translate(1110.416565 0) scale(0.996264)"/>
     <use xlink:href="#CMR17-6e" transform="translate(1135.287624 0) scale(0.996264)"/>
     <use xlink:href="#CMR17-75" transform="translate(1183.58054 0) scale(0.996264)"/>
     <use xlink:href="#CMR17-65" transform="translate(1234.475909 0) scale(0.996264)"/>
     <use xlink:href="#CMR17-64" transform="translate(1274.96157 0) scale(0.996264)"/>
     <use xlink:href="#CMR17-66" transform="translate(1355.932906 0) scale(0.996264)"/>
     <use xlink:href="#CMR17-72" transform="translate(1383.406418 0) scale(0.996264)"/>
     <use xlink:href="#CMR17-61" transform="translate(1418.687186 0) scale(0.996264)"/>
     <use xlink:href="#CMR17-63" transform="translate(1464.377663 0) scale(0.996264)"/>
     <use xlink:href="#CMR17-74" transform="translate(1504.863324 0) scale(0.996264)"/>
     <use xlink:href="#CMR17-69" transform="translate(1540.144092 0) scale(0.996264)"/>
     <use xlink:href="#CMR17-6f" transform="translate(1565.01515 0) scale(0.996264)"/>
     <use xlink:href="#CMR17-6e" transform="translate(1610.705627 0) scale(0.996264)"/>
     <use xlink:href="#CMR17-61" transform="translate(1691.676963 0) scale(0.996264)"/>
     <use xlink:href="#CMR17-6e" transform="translate(1737.36744 0) scale(0.996264)"/>
     <use xlink:href="#CMR17-64" transform="translate(1788.26281 0) scale(0.996264)"/>
     <use xlink:href="#CMR17-64" transform="translate(1869.234146 0) scale(0.996264)"/>
     <use xlink:href="#CMR17-65" transform="translate(1920.129516 0) scale(0.996264)"/>
     <use xlink:href="#CMR17-72" transform="translate(1960.615177 0) scale(0.996264)"/>
     <use xlink:href="#CMR17-61" transform="translate(1995.895944 0) scale(0.996264)"/>
     <use xlink:href="#CMR17-6e" transform="translate(2041.586422 0) scale(0.996264)"/>
     <use xlink:href="#CMR17-67" transform="translate(2092.481791 0) scale(0.996264)"/>
     <use xlink:href="#CMR17-65" transform="translate(2138.172268 0) scale(0.996264)"/>
     <use xlink:href="#CMR17-6d" transform="translate(2178.657929 0) scale(0.996264)"/>
     <use xlink:href="#CMR17-65" transform="translate(2255.577519 0) scale(0.996264)"/>
     <use xlink:href="#CMR17-6e" transform="translate(2296.063179 0) scale(0.996264)"/>
     <use xlink:href="#CMR17-74" transform="translate(2344.356095 0) scale(0.996264)"/>
     <use xlink:href="#CMR17-73" transform="translate(2379.636863 0) scale(0.996264)"/>
    </g>
   </g>
   <g id="legend_1">
    <g id="patch_7">
     <path d="M 482.671283 124.419691 
L 598.103166 124.419691 
Q 601.703166 124.419691 601.703166 120.819691 
L 601.703166 39.636997 
Q 601.703166 36.036997 598.103166 36.036997 
L 482.671283 36.036997 
Q 479.071283 36.036997 479.071283 39.636997 
L 479.071283 120.819691 
Q 479.071283 124.419691 482.671283 124.419691 
z
" style="fill: #ffffff; opacity: 0.8; stroke: #cccccc; stroke-linejoin: miter"/>
    </g>
    <g id="line2d_40">
     <path d="M 486.271283 50.386561 
L 504.271283 50.386561 
L 522.271283 50.386561 
" style="fill: none; stroke: #ff0000; stroke-width: 2; stroke-linecap: square"/>
     <g>
      <use xlink:href="#m9691398ebb" x="504.271283" y="50.386561" style="fill: #ff0000; stroke: #0000ff"/>
     </g>
    </g>
    <g id="text_21">
     <!-- $|e - x_n|$ -->
     <g transform="translate(536.671283 56.686561) scale(0.18 -0.18)">
      <defs>
       <path id="CMSY10-6a" d="M 1018 4570 
C 1018 4685 1018 4800 890 4800 
C 762 4800 762 4685 762 4570 
L 762 -1370 
C 762 -1485 762 -1600 890 -1600 
C 1018 -1600 1018 -1485 1018 -1370 
L 1018 4570 
z
" transform="scale(0.015625)"/>
       <path id="CMMI12-65" d="M 1146 1479 
C 1318 1479 1754 1479 2061 1595 
C 2547 1783 2592 2158 2592 2274 
C 2592 2558 2349 2816 1926 2816 
C 1254 2816 288 2210 288 1073 
C 288 402 672 -64 1254 -64 
C 2125 -64 2675 609 2675 692 
C 2675 730 2637 762 2611 762 
C 2592 762 2586 756 2528 699 
C 2118 159 1510 64 1267 64 
C 902 64 710 350 710 822 
C 710 911 710 1071 806 1479 
L 1146 1479 
z
M 838 1600 
C 1114 2592 1722 2689 1926 2689 
C 2208 2689 2400 2522 2400 2277 
C 2400 1600 1376 1600 1107 1600 
L 838 1600 
z
" transform="scale(0.015625)"/>
       <path id="CMMI12-78" d="M 3034 2606 
C 2829 2567 2752 2414 2752 2293 
C 2752 2139 2874 2088 2963 2088 
C 3155 2088 3290 2254 3290 2427 
C 3290 2695 2982 2816 2714 2816 
C 2323 2816 2106 2433 2048 2312 
C 1901 2816 1504 2816 1389 2816 
C 736 2816 390 1980 390 1839 
C 390 1814 416 1782 461 1782 
C 512 1782 525 1820 538 1846 
C 755 2555 1184 2689 1370 2689 
C 1658 2689 1715 2420 1715 2267 
C 1715 2127 1677 1980 1600 1673 
L 1382 798 
C 1286 415 1101 64 762 64 
C 730 64 570 64 435 147 
C 666 192 717 383 717 460 
C 717 588 621 664 499 664 
C 346 664 179 530 179 326 
C 179 57 480 -64 755 -64 
C 1062 -64 1280 179 1414 441 
C 1517 64 1837 -64 2074 -64 
C 2726 -64 3072 773 3072 913 
C 3072 945 3046 971 3008 971 
C 2950 971 2944 939 2925 888 
C 2752 326 2381 64 2093 64 
C 1869 64 1747 230 1747 492 
C 1747 632 1773 734 1875 1156 
L 2099 2024 
C 2195 2408 2413 2689 2707 2689 
C 2720 2689 2899 2689 3034 2606 
z
" transform="scale(0.015625)"/>
      </defs>
      <use xlink:href="#CMSY10-6a" transform="scale(0.996264)"/>
      <use xlink:href="#CMMI12-65" transform="translate(27.674085 0) scale(0.996264)"/>
      <use xlink:href="#CMSY10-0" transform="translate(95.025293 0) scale(0.996264)"/>
      <use xlink:href="#CMMI12-78" transform="translate(194.651967 0) scale(0.996264)"/>
      <use xlink:href="#CMMI12-6e" transform="translate(250.086027 -14.943915) scale(0.697382)"/>
      <use xlink:href="#CMSY10-6a" transform="translate(291.345002 0) scale(0.996264)"/>
     </g>
    </g>
    <g id="line2d_41">
     <path d="M 486.271283 76.469749 
L 504.271283 76.469749 
L 522.271283 76.469749 
" style="fill: none; stroke: #ffa500; stroke-width: 2; stroke-linecap: square"/>
     <g>
      <use xlink:href="#m8bcfa19ebe" x="504.271283" y="76.469749" style="fill: #ffa500; stroke: #a52a2a"/>
     </g>
    </g>
    <g id="text_22">
     <!-- $e - s_n$ -->
     <g transform="translate(536.671283 82.769749) scale(0.18 -0.18)">
      <defs>
       <path id="CMMI12-73" d="M 1459 1280 
C 1568 1261 1741 1223 1779 1216 
C 1862 1192 2150 1090 2150 783 
C 2150 586 1971 70 1229 70 
C 1094 70 614 70 486 436 
C 742 404 870 603 870 745 
C 870 880 781 950 653 950 
C 512 950 326 841 326 552 
C 326 173 710 -64 1222 -64 
C 2195 -64 2483 651 2483 984 
C 2483 1079 2483 1258 2278 1462 
C 2118 1616 1965 1648 1619 1718 
C 1446 1756 1171 1814 1171 2101 
C 1171 2229 1286 2689 1894 2689 
C 2163 2689 2426 2589 2490 2368 
C 2208 2368 2195 2125 2195 2119 
C 2195 1984 2317 1946 2374 1946 
C 2464 1946 2643 2015 2643 2281 
C 2643 2545 2400 2816 1901 2816 
C 1062 2816 838 2160 838 1899 
C 838 1414 1312 1312 1459 1280 
z
" transform="scale(0.015625)"/>
      </defs>
      <use xlink:href="#CMMI12-65" transform="scale(0.996264)"/>
      <use xlink:href="#CMSY10-0" transform="translate(67.351208 0) scale(0.996264)"/>
      <use xlink:href="#CMMI12-73" transform="translate(166.977883 0) scale(0.996264)"/>
      <use xlink:href="#CMMI12-6e" transform="translate(212.92793 -14.943915) scale(0.697382)"/>
     </g>
    </g>
    <g id="line2d_42">
     <path d="M 486.271283 104.735758 
L 504.271283 104.735758 
L 522.271283 104.735758 
" style="fill: none; stroke: #bfbf00; stroke-width: 2; stroke-linecap: square"/>
     <g>
      <use xlink:href="#m795df74a3c" x="504.271283" y="104.735758" style="fill: #bfbf00; stroke: #008000"/>
     </g>
    </g>
    <g id="text_23">
     <!-- $|e - \frac{n!}{!n}|$ -->
     <g transform="translate(536.671283 111.035758) scale(0.18 -0.18)">
      <defs>
       <path id="CMR17-21" d="M 1062 4259 
C 1062 4442 909 4512 800 4512 
C 691 4512 538 4442 538 4259 
L 736 1202 
C 742 1119 742 1088 800 1088 
C 858 1088 858 1119 864 1201 
L 1062 4259 
z
M 1062 261 
C 1062 401 947 522 800 522 
C 659 522 538 408 538 261 
C 538 121 653 0 800 0 
C 941 0 1062 115 1062 261 
z
" transform="scale(0.015625)"/>
      </defs>
      <use xlink:href="#CMSY10-6a" transform="scale(0.996264)"/>
      <use xlink:href="#CMMI12-65" transform="translate(27.674085 0) scale(0.996264)"/>
      <use xlink:href="#CMSY10-0" transform="translate(95.025293 0) scale(0.996264)"/>
      <use xlink:href="#CMMI12-6e" transform="translate(195.847481 39.226102) scale(0.697382)"/>
      <use xlink:href="#CMR17-21" transform="translate(236.608324 39.226102) scale(0.697382)"/>
      <use xlink:href="#CMR17-21" transform="translate(195.847481 -34.355253) scale(0.697382)"/>
      <use xlink:href="#CMMI12-6e" transform="translate(213.25714 -34.355253) scale(0.697382)"/>
      <use xlink:href="#CMSY10-6a" transform="translate(255.213497 0) scale(0.996264)"/>
      <path d="M 195.847481 24.410885 
L 254.017983 24.410885 
L 254.017983 25.40233 
L 195.847481 25.40233 
L 195.847481 24.410885 
z
"/>
     </g>
    </g>
   </g>
  </g>
 </g>
 <defs>
  <clipPath id="pa443594ad2">
   <rect x="52.703166" y="27.036997" width="558" height="332.64"/>
  </clipPath>
 </defs>
</svg>