<?xml version="1.0" encoding="utf-8" standalone="no"?>
<!DOCTYPE svg PUBLIC "-//W3C//DTD SVG 1.1//EN"
  "http://www.w3.org/Graphics/SVG/1.1/DTD/svg11.dtd">
<svg xmlns:xlink="http://www.w3.org/1999/xlink" width="644.046642pt" height="321.418663pt" viewBox="0 0 644.046642 321.418663" xmlns="http://www.w3.org/2000/svg" version="1.1">
 <metadata>
  <rdf:RDF xmlns:dc="http://purl.org/dc/elements/1.1/" xmlns:cc="http://creativecommons.org/ns#" xmlns:rdf="http://www.w3.org/1999/02/22-rdf-syntax-ns#">
   <cc:Work>
    <dc:type rdf:resource="http://purl.org/dc/dcmitype/StillImage"/>
    <dc:date>2023-08-23T13:08:22.716323</dc:date>
    <dc:format>image/svg+xml</dc:format>
    <dc:creator>
     <cc:Agent>
      <dc:title>Matplotlib v3.7.1, https://matplotlib.org/</dc:title>
     </cc:Agent>
    </dc:creator>
   </cc:Work>
  </rdf:RDF>
 </metadata>
 <defs>
  <style type="text/css">*{stroke-linejoin: round; stroke-linecap: butt}</style>
 </defs>
 <g id="figure_1">
  <g id="patch_1">
   <path d="M 0 321.418663 
L 644.046642 321.418663 
L 644.046642 0 
L 0 0 
z
" style="fill: #ffffff"/>
  </g>
  <g id="axes_1">
   <g id="patch_2">
    <path d="M 9.742468 298.484405 
L 288.742468 298.484405 
L 288.742468 21.284405 
L 9.742468 21.284405 
z
" style="fill: #ffffff"/>
   </g>
   <g id="PolyCollection_1">
    <defs>
     <path id="m2c6aef5e2d" d="M 73.151559 -35.534257 
L 73.151559 -85.934257 
L 74.032001 -85.074419 
L 74.912442 -84.243427 
L 75.792884 -83.439854 
L 76.673326 -82.662364 
L 77.553768 -81.909707 
L 78.43421 -81.180713 
L 79.314652 -80.474284 
L 80.195094 -79.789386 
L 81.075536 -79.125051 
L 81.955978 -78.480367 
L 82.83642 -77.854473 
L 83.716862 -77.246561 
L 84.597304 -76.655867 
L 85.477746 -76.081668 
L 86.358188 -75.523285 
L 87.238629 -74.980071 
L 88.119071 -74.451418 
L 88.999513 -73.936748 
L 89.879955 -73.435513 
L 90.760397 -72.947193 
L 91.640839 -72.471297 
L 92.521281 -72.007355 
L 93.401723 -71.554923 
L 94.282165 -71.113578 
L 95.162607 -70.682918 
L 96.043049 -70.262558 
L 96.923491 -69.852134 
L 97.803933 -69.451298 
L 98.684375 -69.059717 
L 99.564816 -68.677075 
L 100.445258 -68.303069 
L 101.3257 -67.93741 
L 102.206142 -67.579821 
L 103.086584 -67.230038 
L 103.967026 -66.887809 
L 104.847468 -66.552892 
L 105.72791 -66.225054 
L 106.608352 -65.904073 
L 107.488794 -65.589737 
L 108.369236 -65.281841 
L 109.249678 -64.980189 
L 110.13012 -64.684594 
L 111.010562 -64.394874 
L 111.891003 -64.110857 
L 112.771445 -63.832375 
L 113.651887 -63.559269 
L 114.532329 -63.291383 
L 115.412771 -63.028571 
L 116.293213 -62.770688 
L 117.173655 -62.517598 
L 118.054097 -62.269169 
L 118.934539 -62.025272 
L 119.814981 -61.785785 
L 120.695423 -61.55059 
L 121.575865 -61.319571 
L 122.456307 -61.092619 
L 123.336749 -60.869627 
L 124.21719 -60.650493 
L 125.097632 -60.435117 
L 125.978074 -60.223403 
L 126.858516 -60.015259 
L 127.738958 -59.810595 
L 128.6194 -59.609325 
L 129.499842 -59.411365 
L 130.380284 -59.216633 
L 131.260726 -59.025053 
L 132.141168 -58.836547 
L 133.02161 -58.651042 
L 133.902052 -58.468468 
L 134.782494 -58.288755 
L 135.662936 -58.111836 
L 136.543377 -57.937648 
L 137.423819 -57.766126 
L 138.304261 -57.597211 
L 139.184703 -57.430844 
L 140.065145 -57.266966 
L 140.945587 -57.105524 
L 141.826029 -56.946462 
L 142.706471 -56.789729 
L 143.586913 -56.635274 
L 144.467355 -56.483047 
L 145.347797 -56.333001 
L 146.228239 -56.185089 
L 147.108681 -56.039266 
L 147.989123 -55.895488 
L 148.869564 -55.753712 
L 149.750006 -55.613897 
L 150.630448 -55.476002 
L 151.51089 -55.339988 
L 152.391332 -55.205817 
L 153.271774 -55.073452 
L 154.152216 -54.942856 
L 155.032658 -54.813994 
L 155.9131 -54.686833 
L 156.793542 -54.561337 
L 157.673984 -54.437476 
L 158.554426 -54.315216 
L 159.434868 -54.194528 
L 160.31531 -54.075381 
L 160.31531 -35.534257 
L 160.31531 -35.534257 
L 159.434868 -35.534257 
L 158.554426 -35.534257 
L 157.673984 -35.534257 
L 156.793542 -35.534257 
L 155.9131 -35.534257 
L 155.032658 -35.534257 
L 154.152216 -35.534257 
L 153.271774 -35.534257 
L 152.391332 -35.534257 
L 151.51089 -35.534257 
L 150.630448 -35.534257 
L 149.750006 -35.534257 
L 148.869564 -35.534257 
L 147.989123 -35.534257 
L 147.108681 -35.534257 
L 146.228239 -35.534257 
L 145.347797 -35.534257 
L 144.467355 -35.534257 
L 143.586913 -35.534257 
L 142.706471 -35.534257 
L 141.826029 -35.534257 
L 140.945587 -35.534257 
L 140.065145 -35.534257 
L 139.184703 -35.534257 
L 138.304261 -35.534257 
L 137.423819 -35.534257 
L 136.543377 -35.534257 
L 135.662936 -35.534257 
L 134.782494 -35.534257 
L 133.902052 -35.534257 
L 133.02161 -35.534257 
L 132.141168 -35.534257 
L 131.260726 -35.534257 
L 130.380284 -35.534257 
L 129.499842 -35.534257 
L 128.6194 -35.534257 
L 127.738958 -35.534257 
L 126.858516 -35.534257 
L 125.978074 -35.534257 
L 125.097632 -35.534257 
L 124.21719 -35.534257 
L 123.336749 -35.534257 
L 122.456307 -35.534257 
L 121.575865 -35.534257 
L 120.695423 -35.534257 
L 119.814981 -35.534257 
L 118.934539 -35.534257 
L 118.054097 -35.534257 
L 117.173655 -35.534257 
L 116.293213 -35.534257 
L 115.412771 -35.534257 
L 114.532329 -35.534257 
L 113.651887 -35.534257 
L 112.771445 -35.534257 
L 111.891003 -35.534257 
L 111.010562 -35.534257 
L 110.13012 -35.534257 
L 109.249678 -35.534257 
L 108.369236 -35.534257 
L 107.488794 -35.534257 
L 106.608352 -35.534257 
L 105.72791 -35.534257 
L 104.847468 -35.534257 
L 103.967026 -35.534257 
L 103.086584 -35.534257 
L 102.206142 -35.534257 
L 101.3257 -35.534257 
L 100.445258 -35.534257 
L 99.564816 -35.534257 
L 98.684375 -35.534257 
L 97.803933 -35.534257 
L 96.923491 -35.534257 
L 96.043049 -35.534257 
L 95.162607 -35.534257 
L 94.282165 -35.534257 
L 93.401723 -35.534257 
L 92.521281 -35.534257 
L 91.640839 -35.534257 
L 90.760397 -35.534257 
L 89.879955 -35.534257 
L 88.999513 -35.534257 
L 88.119071 -35.534257 
L 87.238629 -35.534257 
L 86.358188 -35.534257 
L 85.477746 -35.534257 
L 84.597304 -35.534257 
L 83.716862 -35.534257 
L 82.83642 -35.534257 
L 81.955978 -35.534257 
L 81.075536 -35.534257 
L 80.195094 -35.534257 
L 79.314652 -35.534257 
L 78.43421 -35.534257 
L 77.553768 -35.534257 
L 76.673326 -35.534257 
L 75.792884 -35.534257 
L 74.912442 -35.534257 
L 74.032001 -35.534257 
L 73.151559 -35.534257 
z
" style="stroke: #0000ff; stroke-opacity: 0.3"/>
    </defs>
    <g clip-path="url(#p7f897b5a76)">
     <use xlink:href="#m2c6aef5e2d" x="0" y="321.418663" style="fill: #0000ff; fill-opacity: 0.3; stroke: #0000ff; stroke-opacity: 0.3"/>
    </g>
   </g>
   <g id="PolyCollection_2">
    <defs>
     <path id="m9b5e53b3df" d="M 73.151559 -35.534257 
L 73.151559 -85.934257 
L 72.286137 -86.809019 
L 71.449749 -87.683781 
L 70.640958 -88.558542 
L 69.858419 -89.433304 
L 69.100875 -90.308066 
L 68.367147 -91.182827 
L 67.65613 -92.057589 
L 66.966785 -92.932351 
L 66.298137 -93.807112 
L 65.649266 -94.681874 
L 65.019308 -95.556636 
L 64.407449 -96.431397 
L 63.812919 -97.306159 
L 63.234992 -98.180921 
L 62.672982 -99.055682 
L 62.126242 -99.930444 
L 61.594156 -100.805206 
L 61.076143 -101.679967 
L 60.571653 -102.554729 
L 60.080163 -103.429491 
L 59.601176 -104.304252 
L 59.134222 -105.179014 
L 58.678852 -106.053776 
L 58.234641 -106.928537 
L 57.801184 -107.803299 
L 57.378095 -108.678061 
L 56.965006 -109.552822 
L 56.561567 -110.427584 
L 56.167444 -111.302345 
L 55.782317 -112.177107 
L 55.405882 -113.051869 
L 55.037848 -113.92663 
L 54.677937 -114.801392 
L 54.325884 -115.676154 
L 53.981432 -116.550915 
L 53.64434 -117.425677 
L 53.314373 -118.300439 
L 52.991308 -119.1752 
L 52.67493 -120.049962 
L 52.365035 -120.924724 
L 52.061425 -121.799485 
L 51.76391 -122.674247 
L 51.472309 -123.549009 
L 51.186448 -124.42377 
L 50.906157 -125.298532 
L 50.631278 -126.173294 
L 50.361653 -127.048055 
L 50.097134 -127.922817 
L 49.837577 -128.797579 
L 49.582843 -129.67234 
L 49.332801 -130.547102 
L 49.08732 -131.421864 
L 48.846278 -132.296625 
L 48.609555 -133.171387 
L 48.377037 -134.046149 
L 48.148611 -134.92091 
L 47.924171 -135.795672 
L 47.703614 -136.670434 
L 47.486839 -137.545195 
L 47.27375 -138.419957 
L 47.064255 -139.294719 
L 46.858262 -140.16948 
L 46.655685 -141.044242 
L 46.456439 -141.919004 
L 46.260444 -142.793765 
L 46.067619 -143.668527 
L 45.877889 -144.543288 
L 45.69118 -145.41805 
L 45.50742 -146.292812 
L 45.32654 -147.167573 
L 45.148472 -148.042335 
L 44.973153 -148.917097 
L 44.800518 -149.791858 
L 44.630506 -150.66662 
L 44.463058 -151.541382 
L 44.298116 -152.416143 
L 44.135625 -153.290905 
L 43.975531 -154.165667 
L 43.81778 -155.040428 
L 43.662322 -155.91519 
L 43.509106 -156.789952 
L 43.358086 -157.664713 
L 43.209214 -158.539475 
L 43.062444 -159.414237 
L 42.917732 -160.288998 
L 42.775035 -161.16376 
L 42.634312 -162.038522 
L 42.495522 -162.913283 
L 42.358625 -163.788045 
L 42.223583 -164.662807 
L 42.090358 -165.537568 
L 41.958915 -166.41233 
L 41.829216 -167.287092 
L 41.701228 -168.161853 
L 41.574918 -169.036615 
L 41.450252 -169.911377 
L 41.327199 -170.786138 
L 41.205727 -171.6609 
L 41.085807 -172.535662 
L 41.085807 -35.534257 
L 41.085807 -35.534257 
L 41.205727 -35.534257 
L 41.327199 -35.534257 
L 41.450252 -35.534257 
L 41.574918 -35.534257 
L 41.701228 -35.534257 
L 41.829216 -35.534257 
L 41.958915 -35.534257 
L 42.090358 -35.534257 
L 42.223583 -35.534257 
L 42.358625 -35.534257 
L 42.495522 -35.534257 
L 42.634312 -35.534257 
L 42.775035 -35.534257 
L 42.917732 -35.534257 
L 43.062444 -35.534257 
L 43.209214 -35.534257 
L 43.358086 -35.534257 
L 43.509106 -35.534257 
L 43.662322 -35.534257 
L 43.81778 -35.534257 
L 43.975531 -35.534257 
L 44.135625 -35.534257 
L 44.298116 -35.534257 
L 44.463058 -35.534257 
L 44.630506 -35.534257 
L 44.800518 -35.534257 
L 44.973153 -35.534257 
L 45.148472 -35.534257 
L 45.32654 -35.534257 
L 45.50742 -35.534257 
L 45.69118 -35.534257 
L 45.877889 -35.534257 
L 46.067619 -35.534257 
L 46.260444 -35.534257 
L 46.456439 -35.534257 
L 46.655685 -35.534257 
L 46.858262 -35.534257 
L 47.064255 -35.534257 
L 47.27375 -35.534257 
L 47.486839 -35.534257 
L 47.703614 -35.534257 
L 47.924171 -35.534257 
L 48.148611 -35.534257 
L 48.377037 -35.534257 
L 48.609555 -35.534257 
L 48.846278 -35.534257 
L 49.08732 -35.534257 
L 49.332801 -35.534257 
L 49.582843 -35.534257 
L 49.837577 -35.534257 
L 50.097134 -35.534257 
L 50.361653 -35.534257 
L 50.631278 -35.534257 
L 50.906157 -35.534257 
L 51.186448 -35.534257 
L 51.472309 -35.534257 
L 51.76391 -35.534257 
L 52.061425 -35.534257 
L 52.365035 -35.534257 
L 52.67493 -35.534257 
L 52.991308 -35.534257 
L 53.314373 -35.534257 
L 53.64434 -35.534257 
L 53.981432 -35.534257 
L 54.325884 -35.534257 
L 54.677937 -35.534257 
L 55.037848 -35.534257 
L 55.405882 -35.534257 
L 55.782317 -35.534257 
L 56.167444 -35.534257 
L 56.561567 -35.534257 
L 56.965006 -35.534257 
L 57.378095 -35.534257 
L 57.801184 -35.534257 
L 58.234641 -35.534257 
L 58.678852 -35.534257 
L 59.134222 -35.534257 
L 59.601176 -35.534257 
L 60.080163 -35.534257 
L 60.571653 -35.534257 
L 61.076143 -35.534257 
L 61.594156 -35.534257 
L 62.126242 -35.534257 
L 62.672982 -35.534257 
L 63.234992 -35.534257 
L 63.812919 -35.534257 
L 64.407449 -35.534257 
L 65.019308 -35.534257 
L 65.649266 -35.534257 
L 66.298137 -35.534257 
L 66.966785 -35.534257 
L 67.65613 -35.534257 
L 68.367147 -35.534257 
L 69.100875 -35.534257 
L 69.858419 -35.534257 
L 70.640958 -35.534257 
L 71.449749 -35.534257 
L 72.286137 -35.534257 
L 73.151559 -35.534257 
z
" style="stroke: #008000; stroke-opacity: 0.3"/>
    </defs>
    <g clip-path="url(#p7f897b5a76)">
     <use xlink:href="#m9b5e53b3df" x="0" y="321.418663" style="fill: #008000; fill-opacity: 0.3; stroke: #008000; stroke-opacity: 0.3"/>
    </g>
   </g>
   <g id="PolyCollection_3">
    <defs>
     <path id="mec8b2645d4" d="M 22.424286 -35.534257 
L 22.424286 -172.535662 
L 41.085807 -172.535662 
L 41.085807 -35.534257 
L 41.085807 -35.534257 
L 22.424286 -35.534257 
z
" style="stroke: #ffa500; stroke-opacity: 0.3"/>
    </defs>
    <g clip-path="url(#p7f897b5a76)">
     <use xlink:href="#mec8b2645d4" x="0" y="321.418663" style="fill: #ffa500; fill-opacity: 0.3; stroke: #ffa500; stroke-opacity: 0.3"/>
    </g>
   </g>
   <g id="matplotlib.axis_1">
    <g id="xtick_1">
     <g id="line2d_1">
      <path d="M 41.085807 298.484405 
L 41.085807 21.284405 
" clip-path="url(#p7f897b5a76)" style="fill: none; stroke-dasharray: 0.8,1.32; stroke-dashoffset: 0; stroke: #b0b0b0; stroke-width: 0.8"/>
     </g>
     <g id="line2d_2">
      <defs>
       <path id="m807dff3318" d="M 0 0 
L 0 3.5 
" style="stroke: #000000; stroke-width: 0.8"/>
      </defs>
      <g>
       <use xlink:href="#m807dff3318" x="41.085807" y="285.884405" style="stroke: #000000; stroke-width: 0.8"/>
      </g>
     </g>
     <g id="text_1">
      <!-- $\frac 1e$ -->
      <g transform="translate(38.013002 308.03473) scale(0.18 -0.18)">
       <defs>
        <path id="CMR17-31" d="M 1702 4058 
C 1702 4192 1696 4192 1606 4192 
C 1357 3916 979 3827 621 3827 
C 602 3827 570 3827 563 3808 
C 557 3795 557 3782 557 3648 
C 755 3648 1088 3686 1344 3839 
L 1344 461 
C 1344 236 1331 160 781 160 
L 589 160 
L 589 0 
C 896 0 1216 0 1523 0 
C 1830 0 2150 0 2458 0 
L 2458 160 
L 2266 160 
C 1715 160 1702 230 1702 458 
L 1702 4058 
z
" transform="scale(0.015625)"/>
        <path id="CMMI12-65" d="M 1146 1479 
C 1318 1479 1754 1479 2061 1595 
C 2547 1783 2592 2158 2592 2274 
C 2592 2558 2349 2816 1926 2816 
C 1254 2816 288 2210 288 1073 
C 288 402 672 -64 1254 -64 
C 2125 -64 2675 609 2675 692 
C 2675 730 2637 762 2611 762 
C 2592 762 2586 756 2528 699 
C 2118 159 1510 64 1267 64 
C 902 64 710 350 710 822 
C 710 911 710 1071 806 1479 
L 1146 1479 
z
M 838 1600 
C 1114 2592 1722 2689 1926 2689 
C 2208 2689 2400 2522 2400 2277 
C 2400 1600 1376 1600 1107 1600 
L 838 1600 
z
" transform="scale(0.015625)"/>
       </defs>
       <use xlink:href="#CMR17-31" transform="translate(0 39.226102) scale(0.697382)"/>
       <use xlink:href="#CMMI12-65" transform="translate(0.167463 -34.355253) scale(0.697382)"/>
       <path d="M 0 24.410885 
L 31.983182 24.410885 
L 31.983182 25.40233 
L 0 25.40233 
L 0 24.410885 
z
"/>
      </g>
     </g>
    </g>
    <g id="xtick_2">
     <g id="line2d_3">
      <path d="M 73.151559 298.484405 
L 73.151559 21.284405 
" clip-path="url(#p7f897b5a76)" style="fill: none; stroke-dasharray: 0.8,1.32; stroke-dashoffset: 0; stroke: #b0b0b0; stroke-width: 0.8"/>
     </g>
     <g id="line2d_4">
      <g>
       <use xlink:href="#m807dff3318" x="73.151559" y="285.884405" style="stroke: #000000; stroke-width: 0.8"/>
      </g>
     </g>
     <g id="text_2">
      <!-- 1 -->
      <g transform="translate(69.039416 305.337705) scale(0.18 -0.18)">
       <use xlink:href="#CMR17-31" transform="scale(0.996264)"/>
      </g>
     </g>
    </g>
    <g id="xtick_3">
     <g id="line2d_5">
      <path d="M 123.878831 298.484405 
L 123.878831 21.284405 
" clip-path="url(#p7f897b5a76)" style="fill: none; stroke-dasharray: 0.8,1.32; stroke-dashoffset: 0; stroke: #b0b0b0; stroke-width: 0.8"/>
     </g>
     <g id="line2d_6">
      <g>
       <use xlink:href="#m807dff3318" x="123.878831" y="285.884405" style="stroke: #000000; stroke-width: 0.8"/>
      </g>
     </g>
     <g id="text_3">
      <!-- 2 -->
      <g transform="translate(119.766688 305.337705) scale(0.18 -0.18)">
       <defs>
        <path id="CMR17-32" d="M 2669 989 
L 2554 989 
C 2490 536 2438 459 2413 420 
C 2381 369 1920 369 1830 369 
L 602 369 
C 832 619 1280 1072 1824 1597 
C 2214 1967 2669 2402 2669 3035 
C 2669 3790 2067 4224 1395 4224 
C 691 4224 262 3604 262 3030 
C 262 2780 448 2748 525 2748 
C 589 2748 781 2787 781 3010 
C 781 3207 614 3264 525 3264 
C 486 3264 448 3258 422 3245 
C 544 3790 915 4058 1306 4058 
C 1862 4058 2227 3617 2227 3035 
C 2227 2479 1901 2000 1536 1584 
L 262 146 
L 262 0 
L 2515 0 
L 2669 989 
z
" transform="scale(0.015625)"/>
       </defs>
       <use xlink:href="#CMR17-32" transform="scale(0.996264)"/>
      </g>
     </g>
    </g>
    <g id="xtick_4">
     <g id="line2d_7">
      <path d="M 160.31531 298.484405 
L 160.31531 21.284405 
" clip-path="url(#p7f897b5a76)" style="fill: none; stroke-dasharray: 0.8,1.32; stroke-dashoffset: 0; stroke: #b0b0b0; stroke-width: 0.8"/>
     </g>
     <g id="line2d_8">
      <g>
       <use xlink:href="#m807dff3318" x="160.31531" y="285.884405" style="stroke: #000000; stroke-width: 0.8"/>
      </g>
     </g>
     <g id="text_4">
      <!-- $e$ -->
      <g transform="translate(156.246233 305.337705) scale(0.18 -0.18)">
       <use xlink:href="#CMMI12-65" transform="scale(0.996264)"/>
      </g>
     </g>
    </g>
    <g id="xtick_5">
     <g id="line2d_9">
      <path d="M 174.606104 298.484405 
L 174.606104 21.284405 
" clip-path="url(#p7f897b5a76)" style="fill: none; stroke-dasharray: 0.8,1.32; stroke-dashoffset: 0; stroke: #b0b0b0; stroke-width: 0.8"/>
     </g>
     <g id="line2d_10">
      <g>
       <use xlink:href="#m807dff3318" x="174.606104" y="285.884405" style="stroke: #000000; stroke-width: 0.8"/>
      </g>
     </g>
     <g id="text_5">
      <!-- 3 -->
      <g transform="translate(170.493961 305.337705) scale(0.18 -0.18)">
       <defs>
        <path id="CMR17-33" d="M 1414 2157 
C 1984 2157 2234 1662 2234 1090 
C 2234 320 1824 25 1453 25 
C 1114 25 563 194 390 693 
C 422 680 454 680 486 680 
C 640 680 755 782 755 948 
C 755 1133 614 1216 486 1216 
C 378 1216 211 1165 211 926 
C 211 335 787 -128 1466 -128 
C 2176 -128 2720 430 2720 1085 
C 2720 1707 2208 2157 1600 2227 
C 2086 2328 2554 2756 2554 3329 
C 2554 3820 2048 4179 1472 4179 
C 890 4179 378 3829 378 3329 
C 378 3110 544 3072 627 3072 
C 762 3072 877 3155 877 3321 
C 877 3486 762 3569 627 3569 
C 602 3569 570 3569 544 3557 
C 730 3959 1235 4032 1459 4032 
C 1683 4032 2106 3925 2106 3320 
C 2106 3143 2080 2828 1862 2550 
C 1670 2304 1453 2304 1242 2284 
C 1210 2284 1062 2269 1037 2269 
C 992 2263 966 2257 966 2208 
C 966 2163 973 2157 1101 2157 
L 1414 2157 
z
" transform="scale(0.015625)"/>
       </defs>
       <use xlink:href="#CMR17-33" transform="scale(0.996264)"/>
      </g>
     </g>
    </g>
    <g id="xtick_6">
     <g id="line2d_11">
      <path d="M 225.333377 298.484405 
L 225.333377 21.284405 
" clip-path="url(#p7f897b5a76)" style="fill: none; stroke-dasharray: 0.8,1.32; stroke-dashoffset: 0; stroke: #b0b0b0; stroke-width: 0.8"/>
     </g>
     <g id="line2d_12">
      <g>
       <use xlink:href="#m807dff3318" x="225.333377" y="285.884405" style="stroke: #000000; stroke-width: 0.8"/>
      </g>
     </g>
     <g id="text_6">
      <!-- 4 -->
      <g transform="translate(221.221234 305.337705) scale(0.18 -0.18)">
       <defs>
        <path id="CMR17-34" d="M 2150 4122 
C 2150 4256 2144 4256 2029 4256 
L 128 1254 
L 128 1088 
L 1779 1088 
L 1779 457 
C 1779 224 1766 160 1318 160 
L 1197 160 
L 1197 0 
C 1402 0 1747 0 1965 0 
C 2182 0 2528 0 2733 0 
L 2733 160 
L 2611 160 
C 2163 160 2150 224 2150 457 
L 2150 1088 
L 2803 1088 
L 2803 1254 
L 2150 1254 
L 2150 4122 
z
M 1798 3703 
L 1798 1254 
L 256 1254 
L 1798 3703 
z
" transform="scale(0.015625)"/>
       </defs>
       <use xlink:href="#CMR17-34" transform="scale(0.996264)"/>
      </g>
     </g>
    </g>
    <g id="xtick_7">
     <g id="line2d_13">
      <path d="M 276.06065 298.484405 
L 276.06065 21.284405 
" clip-path="url(#p7f897b5a76)" style="fill: none; stroke-dasharray: 0.8,1.32; stroke-dashoffset: 0; stroke: #b0b0b0; stroke-width: 0.8"/>
     </g>
     <g id="line2d_14">
      <g>
       <use xlink:href="#m807dff3318" x="276.06065" y="285.884405" style="stroke: #000000; stroke-width: 0.8"/>
      </g>
     </g>
     <g id="text_7">
      <!-- 5 -->
      <g transform="translate(271.948507 305.337705) scale(0.18 -0.18)">
       <defs>
        <path id="CMR17-35" d="M 730 3692 
C 794 3666 1056 3584 1325 3584 
C 1920 3584 2246 3911 2432 4100 
C 2432 4157 2432 4192 2394 4192 
C 2387 4192 2374 4192 2323 4163 
C 2099 4058 1837 3973 1517 3973 
C 1325 3973 1037 3999 723 4139 
C 653 4171 640 4171 634 4171 
C 602 4171 595 4164 595 4037 
L 595 2203 
C 595 2089 595 2057 659 2057 
C 691 2057 704 2070 736 2114 
C 941 2401 1222 2522 1542 2522 
C 1766 2522 2246 2382 2246 1289 
C 2246 1085 2246 715 2054 421 
C 1894 159 1645 25 1370 25 
C 947 25 518 320 403 814 
C 429 807 480 795 506 795 
C 589 795 749 840 749 1038 
C 749 1210 627 1280 506 1280 
C 358 1280 262 1190 262 1011 
C 262 454 704 -128 1382 -128 
C 2042 -128 2669 440 2669 1264 
C 2669 2030 2170 2624 1549 2624 
C 1222 2624 947 2503 730 2274 
L 730 3692 
z
" transform="scale(0.015625)"/>
       </defs>
       <use xlink:href="#CMR17-35" transform="scale(0.996264)"/>
      </g>
     </g>
    </g>
   </g>
   <g id="matplotlib.axis_2">
    <g id="ytick_1">
     <g id="line2d_15">
      <path d="M 9.742468 235.484405 
L 288.742468 235.484405 
" clip-path="url(#p7f897b5a76)" style="fill: none; stroke-dasharray: 0.8,1.32; stroke-dashoffset: 0; stroke: #b0b0b0; stroke-width: 0.8"/>
     </g>
     <g id="line2d_16">
      <defs>
       <path id="mfb40428654" d="M 0 0 
L -3.5 0 
" style="stroke: #000000; stroke-width: 0.8"/>
      </defs>
      <g>
       <use xlink:href="#mfb40428654" x="22.424286" y="235.484405" style="stroke: #000000; stroke-width: 0.8"/>
      </g>
     </g>
     <g id="text_8">
      <!-- $\mathdefault{1}$ -->
      <g transform="translate(7.2 241.711055) scale(0.18 -0.18)">
       <use xlink:href="#CMR17-31" transform="scale(0.996264)"/>
      </g>
     </g>
    </g>
    <g id="ytick_2">
     <g id="line2d_17">
      <path d="M 9.742468 185.084405 
L 288.742468 185.084405 
" clip-path="url(#p7f897b5a76)" style="fill: none; stroke-dasharray: 0.8,1.32; stroke-dashoffset: 0; stroke: #b0b0b0; stroke-width: 0.8"/>
     </g>
     <g id="line2d_18">
      <g>
       <use xlink:href="#mfb40428654" x="22.424286" y="185.084405" style="stroke: #000000; stroke-width: 0.8"/>
      </g>
     </g>
     <g id="text_9">
      <!-- $\mathdefault{2}$ -->
      <g transform="translate(7.2 191.311055) scale(0.18 -0.18)">
       <use xlink:href="#CMR17-32" transform="scale(0.996264)"/>
      </g>
     </g>
    </g>
    <g id="ytick_3">
     <g id="line2d_19">
      <path d="M 9.742468 134.684405 
L 288.742468 134.684405 
" clip-path="url(#p7f897b5a76)" style="fill: none; stroke-dasharray: 0.8,1.32; stroke-dashoffset: 0; stroke: #b0b0b0; stroke-width: 0.8"/>
     </g>
     <g id="line2d_20">
      <g>
       <use xlink:href="#mfb40428654" x="22.424286" y="134.684405" style="stroke: #000000; stroke-width: 0.8"/>
      </g>
     </g>
     <g id="text_10">
      <!-- $\mathdefault{3}$ -->
      <g transform="translate(7.2 140.911055) scale(0.18 -0.18)">
       <use xlink:href="#CMR17-33" transform="scale(0.996264)"/>
      </g>
     </g>
    </g>
    <g id="ytick_4">
     <g id="line2d_21">
      <path d="M 9.742468 84.284405 
L 288.742468 84.284405 
" clip-path="url(#p7f897b5a76)" style="fill: none; stroke-dasharray: 0.8,1.32; stroke-dashoffset: 0; stroke: #b0b0b0; stroke-width: 0.8"/>
     </g>
     <g id="line2d_22">
      <g>
       <use xlink:href="#mfb40428654" x="22.424286" y="84.284405" style="stroke: #000000; stroke-width: 0.8"/>
      </g>
     </g>
     <g id="text_11">
      <!-- $\mathdefault{4}$ -->
      <g transform="translate(7.2 90.511055) scale(0.18 -0.18)">
       <use xlink:href="#CMR17-34" transform="scale(0.996264)"/>
      </g>
     </g>
    </g>
    <g id="ytick_5">
     <g id="line2d_23">
      <path d="M 9.742468 33.884405 
L 288.742468 33.884405 
" clip-path="url(#p7f897b5a76)" style="fill: none; stroke-dasharray: 0.8,1.32; stroke-dashoffset: 0; stroke: #b0b0b0; stroke-width: 0.8"/>
     </g>
     <g id="line2d_24">
      <g>
       <use xlink:href="#mfb40428654" x="22.424286" y="33.884405" style="stroke: #000000; stroke-width: 0.8"/>
      </g>
     </g>
     <g id="text_12">
      <!-- $\mathdefault{5}$ -->
      <g transform="translate(7.2 40.111055) scale(0.18 -0.18)">
       <use xlink:href="#CMR17-35" transform="scale(0.996264)"/>
      </g>
     </g>
    </g>
   </g>
   <g id="line2d_25">
    <path d="M 32.56974 33.884405 
L 33.790246 60.944808 
L 35.010752 82.757133 
L 36.231258 100.713135 
L 37.451764 115.752426 
L 38.672269 128.532293 
L 39.892775 139.526327 
L 41.113281 149.084405 
L 42.94404 161.28961 
L 44.774799 171.495327 
L 46.605557 180.155699 
L 48.436316 187.597015 
L 50.267075 194.059748 
L 52.097833 199.725022 
L 53.928592 204.731863 
L 55.759351 209.188753 
L 57.59011 213.181585 
L 60.031121 217.900632 
L 62.472133 222.044405 
L 64.913144 225.712053 
L 67.354156 228.981179 
L 69.795168 231.913391 
L 72.846432 235.179413 
L 75.897697 238.072708 
L 78.948961 240.653636 
L 82.000226 242.970193 
L 85.661743 245.454972 
L 89.323261 247.667758 
L 93.595031 249.961576 
L 97.866801 251.995629 
L 102.748825 254.055345 
L 107.630848 255.879034 
L 113.123124 257.696012 
L 119.225653 259.473058 
L 125.938435 261.185805 
L 133.26147 262.817647 
L 141.194758 264.358394 
L 150.348551 265.898717 
L 160.112598 267.315984 
L 171.09715 268.687894 
L 183.912461 270.052568 
L 197.948278 271.318564 
L 213.814853 272.526095 
L 232.12244 273.692335 
L 253.481292 274.819367 
L 276.06065 275.804405 
L 276.06065 275.804405 
" clip-path="url(#p7f897b5a76)" style="fill: none; stroke: #ff0000; stroke-width: 3; stroke-linecap: square"/>
   </g>
   <g id="line2d_26">
    <path d="M 288.742468 285.884405 
" style="fill: none; stroke: #000000; stroke-width: 1.5; stroke-linecap: square"/>
    <defs>
     <path id="m45646b1c17" d="M 3 0 
L -3 -3 
L -3 3 
z
" style="stroke: #000000; stroke-linejoin: miter"/>
    </defs>
    <g>
     <use xlink:href="#m45646b1c17" x="288.742468" y="285.884405" style="stroke: #000000; stroke-linejoin: miter"/>
    </g>
   </g>
   <g id="line2d_27">
    <path d="M 22.424286 21.284405 
" style="fill: none; stroke: #000000; stroke-width: 1.5; stroke-linecap: square"/>
    <defs>
     <path id="m19a1d7fd9b" d="M 0 -3 
L -3 3 
L 3 3 
z
" style="stroke: #000000; stroke-linejoin: miter"/>
    </defs>
    <g>
     <use xlink:href="#m19a1d7fd9b" x="22.424286" y="21.284405" style="stroke: #000000; stroke-linejoin: miter"/>
    </g>
   </g>
   <g id="patch_3">
    <path d="M 22.424286 298.484405 
L 22.424286 21.284405 
" style="fill: none; stroke: #000000; stroke-width: 2; stroke-linejoin: miter; stroke-linecap: square"/>
   </g>
   <g id="patch_4">
    <path d="M 9.742468 285.884405 
L 288.742468 285.884405 
" style="fill: none; stroke: #000000; stroke-width: 2; stroke-linejoin: miter; stroke-linecap: square"/>
   </g>
   <g id="text_13">
    <!-- $x$ -->
    <g transform="translate(288.742468 298.484405) scale(0.24 -0.24)">
     <defs>
      <path id="CMMI12-78" d="M 3034 2606 
C 2829 2567 2752 2414 2752 2293 
C 2752 2139 2874 2088 2963 2088 
C 3155 2088 3290 2254 3290 2427 
C 3290 2695 2982 2816 2714 2816 
C 2323 2816 2106 2433 2048 2312 
C 1901 2816 1504 2816 1389 2816 
C 736 2816 390 1980 390 1839 
C 390 1814 416 1782 461 1782 
C 512 1782 525 1820 538 1846 
C 755 2555 1184 2689 1370 2689 
C 1658 2689 1715 2420 1715 2267 
C 1715 2127 1677 1980 1600 1673 
L 1382 798 
C 1286 415 1101 64 762 64 
C 730 64 570 64 435 147 
C 666 192 717 383 717 460 
C 717 588 621 664 499 664 
C 346 664 179 530 179 326 
C 179 57 480 -64 755 -64 
C 1062 -64 1280 179 1414 441 
C 1517 64 1837 -64 2074 -64 
C 2726 -64 3072 773 3072 913 
C 3072 945 3046 971 3008 971 
C 2950 971 2944 939 2925 888 
C 2752 326 2381 64 2093 64 
C 1869 64 1747 230 1747 492 
C 1747 632 1773 734 1875 1156 
L 2099 2024 
C 2195 2408 2413 2689 2707 2689 
C 2720 2689 2899 2689 3034 2606 
z
" transform="scale(0.015625)"/>
     </defs>
     <use xlink:href="#CMMI12-78" transform="scale(0.996264)"/>
    </g>
   </g>
   <g id="text_14">
    <!-- $y$ -->
    <g transform="translate(27.497013 23.804405) scale(0.24 -0.24)">
     <defs>
      <path id="CMMI12-79" d="M 1683 -700 
C 1510 -939 1261 -1152 947 -1152 
C 870 -1152 563 -1152 467 -889 
C 486 -895 518 -895 531 -895 
C 723 -895 851 -729 851 -582 
C 851 -435 730 -384 634 -384 
C 531 -384 307 -458 307 -759 
C 307 -1071 582 -1286 947 -1286 
C 1587 -1286 2234 -700 2413 6 
L 3040 2485 
C 3046 2517 3059 2556 3059 2594 
C 3059 2689 2982 2753 2886 2753 
C 2829 2753 2694 2727 2643 2535 
L 2170 658 
C 2138 543 2138 530 2086 460 
C 1958 281 1747 64 1440 64 
C 1082 64 1050 415 1050 588 
C 1050 952 1222 1443 1395 1903 
C 1466 2088 1504 2178 1504 2305 
C 1504 2574 1312 2816 998 2816 
C 410 2816 173 1890 173 1839 
C 173 1814 198 1782 243 1782 
C 301 1782 307 1807 333 1897 
C 486 2433 730 2689 979 2689 
C 1037 2689 1146 2689 1146 2478 
C 1146 2312 1075 2127 979 1884 
C 666 1047 666 837 666 683 
C 666 77 1101 -64 1421 -64 
C 1606 -64 1837 -6 2061 230 
L 2067 224 
C 1971 -147 1907 -392 1683 -700 
z
" transform="scale(0.015625)"/>
     </defs>
     <use xlink:href="#CMMI12-79" transform="scale(0.996264)"/>
    </g>
   </g>
   <g id="text_15">
    <!-- $1$ -->
    <g transform="translate(108.66065 275.804405) scale(0.2 -0.2)">
     <use xlink:href="#CMR17-31" transform="scale(0.996264)"/>
    </g>
   </g>
   <g id="text_16">
    <!-- ? -->
    <g transform="translate(52.86065 250.604405) scale(0.2 -0.2)">
     <defs>
      <path id="CMR17-3f" d="M 1350 1437 
C 1350 2037 1658 2567 2118 2930 
C 2240 3019 2464 3198 2464 3600 
C 2464 4117 2074 4480 1318 4480 
C 678 4480 294 4045 294 3628 
C 294 3382 506 3382 525 3382 
C 595 3382 755 3426 755 3611 
C 755 3770 634 3840 525 3840 
C 499 3840 467 3834 448 3828 
C 582 4222 966 4378 1306 4378 
C 2048 4378 2054 3868 2054 3632 
C 2054 3243 1933 3108 1811 2981 
C 1389 2529 1235 1929 1235 1463 
L 1235 1214 
C 1235 1106 1235 1081 1293 1081 
C 1350 1081 1350 1106 1350 1214 
L 1350 1437 
z
M 1555 261 
C 1555 401 1440 522 1293 522 
C 1152 522 1030 408 1030 261 
C 1030 121 1146 0 1293 0 
C 1434 0 1555 115 1555 261 
z
" transform="scale(0.015625)"/>
     </defs>
     <use xlink:href="#CMR17-3f" transform="scale(0.996264)"/>
    </g>
   </g>
  </g>
  <g id="axes_2">
   <g id="patch_5">
    <path d="M 344.542468 298.484405 
L 623.542468 298.484405 
L 623.542468 21.284405 
L 344.542468 21.284405 
z
" style="fill: #ffffff"/>
   </g>
   <g id="PolyCollection_4">
    <defs>
     <path id="m3f2a505a2f" d="M 407.951559 -35.534257 
L 407.951559 -85.934257 
L 408.832001 -85.074419 
L 409.712442 -84.243427 
L 410.592884 -83.439854 
L 411.473326 -82.662364 
L 412.353768 -81.909707 
L 413.23421 -81.180713 
L 414.114652 -80.474284 
L 414.995094 -79.789386 
L 415.875536 -79.125051 
L 416.755978 -78.480367 
L 417.63642 -77.854473 
L 418.516862 -77.246561 
L 419.397304 -76.655867 
L 420.277746 -76.081668 
L 421.158188 -75.523285 
L 422.038629 -74.980071 
L 422.919071 -74.451418 
L 423.799513 -73.936748 
L 424.679955 -73.435513 
L 425.560397 -72.947193 
L 426.440839 -72.471297 
L 427.321281 -72.007355 
L 428.201723 -71.554923 
L 429.082165 -71.113578 
L 429.962607 -70.682918 
L 430.843049 -70.262558 
L 431.723491 -69.852134 
L 432.603933 -69.451298 
L 433.484375 -69.059717 
L 434.364816 -68.677075 
L 435.245258 -68.303069 
L 436.1257 -67.93741 
L 437.006142 -67.579821 
L 437.886584 -67.230038 
L 438.767026 -66.887809 
L 439.647468 -66.552892 
L 440.52791 -66.225054 
L 441.408352 -65.904073 
L 442.288794 -65.589737 
L 443.169236 -65.281841 
L 444.049678 -64.980189 
L 444.93012 -64.684594 
L 445.810562 -64.394874 
L 446.691003 -64.110857 
L 447.571445 -63.832375 
L 448.451887 -63.559269 
L 449.332329 -63.291383 
L 450.212771 -63.028571 
L 451.093213 -62.770688 
L 451.973655 -62.517598 
L 452.854097 -62.269169 
L 453.734539 -62.025272 
L 454.614981 -61.785785 
L 455.495423 -61.55059 
L 456.375865 -61.319571 
L 457.256307 -61.092619 
L 458.136749 -60.869627 
L 459.01719 -60.650493 
L 459.897632 -60.435117 
L 460.778074 -60.223403 
L 461.658516 -60.015259 
L 462.538958 -59.810595 
L 463.4194 -59.609325 
L 464.299842 -59.411365 
L 465.180284 -59.216633 
L 466.060726 -59.025053 
L 466.941168 -58.836547 
L 467.82161 -58.651042 
L 468.702052 -58.468468 
L 469.582494 -58.288755 
L 470.462936 -58.111836 
L 471.343377 -57.937648 
L 472.223819 -57.766126 
L 473.104261 -57.597211 
L 473.984703 -57.430844 
L 474.865145 -57.266966 
L 475.745587 -57.105524 
L 476.626029 -56.946462 
L 477.506471 -56.789729 
L 478.386913 -56.635274 
L 479.267355 -56.483047 
L 480.147797 -56.333001 
L 481.028239 -56.185089 
L 481.908681 -56.039266 
L 482.789123 -55.895488 
L 483.669564 -55.753712 
L 484.550006 -55.613897 
L 485.430448 -55.476002 
L 486.31089 -55.339988 
L 487.191332 -55.205817 
L 488.071774 -55.073452 
L 488.952216 -54.942856 
L 489.832658 -54.813994 
L 490.7131 -54.686833 
L 491.593542 -54.561337 
L 492.473984 -54.437476 
L 493.354426 -54.315216 
L 494.234868 -54.194528 
L 495.11531 -54.075381 
L 495.11531 -35.534257 
L 495.11531 -35.534257 
L 494.234868 -35.534257 
L 493.354426 -35.534257 
L 492.473984 -35.534257 
L 491.593542 -35.534257 
L 490.7131 -35.534257 
L 489.832658 -35.534257 
L 488.952216 -35.534257 
L 488.071774 -35.534257 
L 487.191332 -35.534257 
L 486.31089 -35.534257 
L 485.430448 -35.534257 
L 484.550006 -35.534257 
L 483.669564 -35.534257 
L 482.789123 -35.534257 
L 481.908681 -35.534257 
L 481.028239 -35.534257 
L 480.147797 -35.534257 
L 479.267355 -35.534257 
L 478.386913 -35.534257 
L 477.506471 -35.534257 
L 476.626029 -35.534257 
L 475.745587 -35.534257 
L 474.865145 -35.534257 
L 473.984703 -35.534257 
L 473.104261 -35.534257 
L 472.223819 -35.534257 
L 471.343377 -35.534257 
L 470.462936 -35.534257 
L 469.582494 -35.534257 
L 468.702052 -35.534257 
L 467.82161 -35.534257 
L 466.941168 -35.534257 
L 466.060726 -35.534257 
L 465.180284 -35.534257 
L 464.299842 -35.534257 
L 463.4194 -35.534257 
L 462.538958 -35.534257 
L 461.658516 -35.534257 
L 460.778074 -35.534257 
L 459.897632 -35.534257 
L 459.01719 -35.534257 
L 458.136749 -35.534257 
L 457.256307 -35.534257 
L 456.375865 -35.534257 
L 455.495423 -35.534257 
L 454.614981 -35.534257 
L 453.734539 -35.534257 
L 452.854097 -35.534257 
L 451.973655 -35.534257 
L 451.093213 -35.534257 
L 450.212771 -35.534257 
L 449.332329 -35.534257 
L 448.451887 -35.534257 
L 447.571445 -35.534257 
L 446.691003 -35.534257 
L 445.810562 -35.534257 
L 444.93012 -35.534257 
L 444.049678 -35.534257 
L 443.169236 -35.534257 
L 442.288794 -35.534257 
L 441.408352 -35.534257 
L 440.52791 -35.534257 
L 439.647468 -35.534257 
L 438.767026 -35.534257 
L 437.886584 -35.534257 
L 437.006142 -35.534257 
L 436.1257 -35.534257 
L 435.245258 -35.534257 
L 434.364816 -35.534257 
L 433.484375 -35.534257 
L 432.603933 -35.534257 
L 431.723491 -35.534257 
L 430.843049 -35.534257 
L 429.962607 -35.534257 
L 429.082165 -35.534257 
L 428.201723 -35.534257 
L 427.321281 -35.534257 
L 426.440839 -35.534257 
L 425.560397 -35.534257 
L 424.679955 -35.534257 
L 423.799513 -35.534257 
L 422.919071 -35.534257 
L 422.038629 -35.534257 
L 421.158188 -35.534257 
L 420.277746 -35.534257 
L 419.397304 -35.534257 
L 418.516862 -35.534257 
L 417.63642 -35.534257 
L 416.755978 -35.534257 
L 415.875536 -35.534257 
L 414.995094 -35.534257 
L 414.114652 -35.534257 
L 413.23421 -35.534257 
L 412.353768 -35.534257 
L 411.473326 -35.534257 
L 410.592884 -35.534257 
L 409.712442 -35.534257 
L 408.832001 -35.534257 
L 407.951559 -35.534257 
z
" style="stroke: #0000ff; stroke-opacity: 0.3"/>
    </defs>
    <g clip-path="url(#pa5d2d1852e)">
     <use xlink:href="#m3f2a505a2f" x="0" y="321.418663" style="fill: #0000ff; fill-opacity: 0.3; stroke: #0000ff; stroke-opacity: 0.3"/>
    </g>
   </g>
   <g id="PolyCollection_5">
    <defs>
     <path id="m0ece1e2005" d="M 357.224286 -85.934257 
L 407.951559 -85.934257 
L 407.086137 -86.809019 
L 406.249749 -87.683781 
L 405.440958 -88.558542 
L 404.658419 -89.433304 
L 403.900875 -90.308066 
L 403.167147 -91.182827 
L 402.45613 -92.057589 
L 401.766785 -92.932351 
L 401.098137 -93.807112 
L 400.449266 -94.681874 
L 399.819308 -95.556636 
L 399.207449 -96.431397 
L 398.612919 -97.306159 
L 398.034992 -98.180921 
L 397.472982 -99.055682 
L 396.926242 -99.930444 
L 396.394156 -100.805206 
L 395.876143 -101.679967 
L 395.371653 -102.554729 
L 394.880163 -103.429491 
L 394.401176 -104.304252 
L 393.934222 -105.179014 
L 393.478852 -106.053776 
L 393.034641 -106.928537 
L 392.601184 -107.803299 
L 392.178095 -108.678061 
L 391.765006 -109.552822 
L 391.361567 -110.427584 
L 390.967444 -111.302345 
L 390.582317 -112.177107 
L 390.205882 -113.051869 
L 389.837848 -113.92663 
L 389.477937 -114.801392 
L 389.125884 -115.676154 
L 388.781432 -116.550915 
L 388.44434 -117.425677 
L 388.114373 -118.300439 
L 387.791308 -119.1752 
L 387.47493 -120.049962 
L 387.165035 -120.924724 
L 386.861425 -121.799485 
L 386.56391 -122.674247 
L 386.272309 -123.549009 
L 385.986448 -124.42377 
L 385.706157 -125.298532 
L 385.431278 -126.173294 
L 385.161653 -127.048055 
L 384.897134 -127.922817 
L 384.637577 -128.797579 
L 384.382843 -129.67234 
L 384.132801 -130.547102 
L 383.88732 -131.421864 
L 383.646278 -132.296625 
L 383.409555 -133.171387 
L 383.177037 -134.046149 
L 382.948611 -134.92091 
L 382.724171 -135.795672 
L 382.503614 -136.670434 
L 382.286839 -137.545195 
L 382.07375 -138.419957 
L 381.864255 -139.294719 
L 381.658262 -140.16948 
L 381.455685 -141.044242 
L 381.256439 -141.919004 
L 381.060444 -142.793765 
L 380.867619 -143.668527 
L 380.677889 -144.543288 
L 380.49118 -145.41805 
L 380.30742 -146.292812 
L 380.12654 -147.167573 
L 379.948472 -148.042335 
L 379.773153 -148.917097 
L 379.600518 -149.791858 
L 379.430506 -150.66662 
L 379.263058 -151.541382 
L 379.098116 -152.416143 
L 378.935625 -153.290905 
L 378.775531 -154.165667 
L 378.61778 -155.040428 
L 378.462322 -155.91519 
L 378.309106 -156.789952 
L 378.158086 -157.664713 
L 378.009214 -158.539475 
L 377.862444 -159.414237 
L 377.717732 -160.288998 
L 377.575035 -161.16376 
L 377.434312 -162.038522 
L 377.295522 -162.913283 
L 377.158625 -163.788045 
L 377.023583 -164.662807 
L 376.890358 -165.537568 
L 376.758915 -166.41233 
L 376.629216 -167.287092 
L 376.501228 -168.161853 
L 376.374918 -169.036615 
L 376.250252 -169.911377 
L 376.127199 -170.786138 
L 376.005727 -171.6609 
L 375.885807 -172.535662 
L 357.224286 -172.535662 
L 357.224286 -172.535662 
L 357.224286 -171.6609 
L 357.224286 -170.786138 
L 357.224286 -169.911377 
L 357.224286 -169.036615 
L 357.224286 -168.161853 
L 357.224286 -167.287092 
L 357.224286 -166.41233 
L 357.224286 -165.537568 
L 357.224286 -164.662807 
L 357.224286 -163.788045 
L 357.224286 -162.913283 
L 357.224286 -162.038522 
L 357.224286 -161.16376 
L 357.224286 -160.288998 
L 357.224286 -159.414237 
L 357.224286 -158.539475 
L 357.224286 -157.664713 
L 357.224286 -156.789952 
L 357.224286 -155.91519 
L 357.224286 -155.040428 
L 357.224286 -154.165667 
L 357.224286 -153.290905 
L 357.224286 -152.416143 
L 357.224286 -151.541382 
L 357.224286 -150.66662 
L 357.224286 -149.791858 
L 357.224286 -148.917097 
L 357.224286 -148.042335 
L 357.224286 -147.167573 
L 357.224286 -146.292812 
L 357.224286 -145.41805 
L 357.224286 -144.543288 
L 357.224286 -143.668527 
L 357.224286 -142.793765 
L 357.224286 -141.919004 
L 357.224286 -141.044242 
L 357.224286 -140.16948 
L 357.224286 -139.294719 
L 357.224286 -138.419957 
L 357.224286 -137.545195 
L 357.224286 -136.670434 
L 357.224286 -135.795672 
L 357.224286 -134.92091 
L 357.224286 -134.046149 
L 357.224286 -133.171387 
L 357.224286 -132.296625 
L 357.224286 -131.421864 
L 357.224286 -130.547102 
L 357.224286 -129.67234 
L 357.224286 -128.797579 
L 357.224286 -127.922817 
L 357.224286 -127.048055 
L 357.224286 -126.173294 
L 357.224286 -125.298532 
L 357.224286 -124.42377 
L 357.224286 -123.549009 
L 357.224286 -122.674247 
L 357.224286 -121.799485 
L 357.224286 -120.924724 
L 357.224286 -120.049962 
L 357.224286 -119.1752 
L 357.224286 -118.300439 
L 357.224286 -117.425677 
L 357.224286 -116.550915 
L 357.224286 -115.676154 
L 357.224286 -114.801392 
L 357.224286 -113.92663 
L 357.224286 -113.051869 
L 357.224286 -112.177107 
L 357.224286 -111.302345 
L 357.224286 -110.427584 
L 357.224286 -109.552822 
L 357.224286 -108.678061 
L 357.224286 -107.803299 
L 357.224286 -106.928537 
L 357.224286 -106.053776 
L 357.224286 -105.179014 
L 357.224286 -104.304252 
L 357.224286 -103.429491 
L 357.224286 -102.554729 
L 357.224286 -101.679967 
L 357.224286 -100.805206 
L 357.224286 -99.930444 
L 357.224286 -99.055682 
L 357.224286 -98.180921 
L 357.224286 -97.306159 
L 357.224286 -96.431397 
L 357.224286 -95.556636 
L 357.224286 -94.681874 
L 357.224286 -93.807112 
L 357.224286 -92.932351 
L 357.224286 -92.057589 
L 357.224286 -91.182827 
L 357.224286 -90.308066 
L 357.224286 -89.433304 
L 357.224286 -88.558542 
L 357.224286 -87.683781 
L 357.224286 -86.809019 
L 357.224286 -85.934257 
z
" style="stroke: #0000ff; stroke-opacity: 0.3"/>
    </defs>
    <g clip-path="url(#pa5d2d1852e)">
     <use xlink:href="#m0ece1e2005" x="0" y="321.418663" style="fill: #0000ff; fill-opacity: 0.3; stroke: #0000ff; stroke-opacity: 0.3"/>
    </g>
   </g>
   <g id="PolyCollection_6">
    <defs>
     <path id="m9d2c4b81f5" d="M 357.224286 -35.534257 
L 357.224286 -85.934257 
L 407.951559 -85.934257 
L 407.951559 -35.534257 
L 407.951559 -35.534257 
L 357.224286 -35.534257 
z
" style="stroke: #a52a2a; stroke-opacity: 0.3"/>
    </defs>
    <g clip-path="url(#pa5d2d1852e)">
     <use xlink:href="#m9d2c4b81f5" x="0" y="321.418663" style="fill: #a52a2a; fill-opacity: 0.3; stroke: #a52a2a; stroke-opacity: 0.3"/>
    </g>
   </g>
   <g id="matplotlib.axis_3">
    <g id="xtick_8">
     <g id="line2d_28">
      <path d="M 407.951559 298.484405 
L 407.951559 21.284405 
" clip-path="url(#pa5d2d1852e)" style="fill: none; stroke-dasharray: 0.8,1.32; stroke-dashoffset: 0; stroke: #b0b0b0; stroke-width: 0.8"/>
     </g>
     <g id="line2d_29">
      <g>
       <use xlink:href="#m807dff3318" x="407.951559" y="285.884405" style="stroke: #000000; stroke-width: 0.8"/>
      </g>
     </g>
     <g id="text_17">
      <!-- 1 -->
      <g transform="translate(403.839416 305.337705) scale(0.18 -0.18)">
       <use xlink:href="#CMR17-31" transform="scale(0.996264)"/>
      </g>
     </g>
    </g>
    <g id="xtick_9">
     <g id="line2d_30">
      <path d="M 458.678831 298.484405 
L 458.678831 21.284405 
" clip-path="url(#pa5d2d1852e)" style="fill: none; stroke-dasharray: 0.8,1.32; stroke-dashoffset: 0; stroke: #b0b0b0; stroke-width: 0.8"/>
     </g>
     <g id="line2d_31">
      <g>
       <use xlink:href="#m807dff3318" x="458.678831" y="285.884405" style="stroke: #000000; stroke-width: 0.8"/>
      </g>
     </g>
     <g id="text_18">
      <!-- 2 -->
      <g transform="translate(454.566688 305.337705) scale(0.18 -0.18)">
       <use xlink:href="#CMR17-32" transform="scale(0.996264)"/>
      </g>
     </g>
    </g>
    <g id="xtick_10">
     <g id="line2d_32">
      <path d="M 495.11531 298.484405 
L 495.11531 21.284405 
" clip-path="url(#pa5d2d1852e)" style="fill: none; stroke-dasharray: 0.8,1.32; stroke-dashoffset: 0; stroke: #b0b0b0; stroke-width: 0.8"/>
     </g>
     <g id="line2d_33">
      <g>
       <use xlink:href="#m807dff3318" x="495.11531" y="285.884405" style="stroke: #000000; stroke-width: 0.8"/>
      </g>
     </g>
     <g id="text_19">
      <!-- $e$ -->
      <g transform="translate(491.046233 305.337705) scale(0.18 -0.18)">
       <use xlink:href="#CMMI12-65" transform="scale(0.996264)"/>
      </g>
     </g>
    </g>
    <g id="xtick_11">
     <g id="line2d_34">
      <path d="M 509.406104 298.484405 
L 509.406104 21.284405 
" clip-path="url(#pa5d2d1852e)" style="fill: none; stroke-dasharray: 0.8,1.32; stroke-dashoffset: 0; stroke: #b0b0b0; stroke-width: 0.8"/>
     </g>
     <g id="line2d_35">
      <g>
       <use xlink:href="#m807dff3318" x="509.406104" y="285.884405" style="stroke: #000000; stroke-width: 0.8"/>
      </g>
     </g>
     <g id="text_20">
      <!-- 3 -->
      <g transform="translate(505.293961 305.337705) scale(0.18 -0.18)">
       <use xlink:href="#CMR17-33" transform="scale(0.996264)"/>
      </g>
     </g>
    </g>
    <g id="xtick_12">
     <g id="line2d_36">
      <path d="M 560.133377 298.484405 
L 560.133377 21.284405 
" clip-path="url(#pa5d2d1852e)" style="fill: none; stroke-dasharray: 0.8,1.32; stroke-dashoffset: 0; stroke: #b0b0b0; stroke-width: 0.8"/>
     </g>
     <g id="line2d_37">
      <g>
       <use xlink:href="#m807dff3318" x="560.133377" y="285.884405" style="stroke: #000000; stroke-width: 0.8"/>
      </g>
     </g>
     <g id="text_21">
      <!-- 4 -->
      <g transform="translate(556.021234 305.337705) scale(0.18 -0.18)">
       <use xlink:href="#CMR17-34" transform="scale(0.996264)"/>
      </g>
     </g>
    </g>
    <g id="xtick_13">
     <g id="line2d_38">
      <path d="M 610.86065 298.484405 
L 610.86065 21.284405 
" clip-path="url(#pa5d2d1852e)" style="fill: none; stroke-dasharray: 0.8,1.32; stroke-dashoffset: 0; stroke: #b0b0b0; stroke-width: 0.8"/>
     </g>
     <g id="line2d_39">
      <g>
       <use xlink:href="#m807dff3318" x="610.86065" y="285.884405" style="stroke: #000000; stroke-width: 0.8"/>
      </g>
     </g>
     <g id="text_22">
      <!-- 5 -->
      <g transform="translate(606.748507 305.337705) scale(0.18 -0.18)">
       <use xlink:href="#CMR17-35" transform="scale(0.996264)"/>
      </g>
     </g>
    </g>
   </g>
   <g id="matplotlib.axis_4">
    <g id="ytick_6">
     <g id="line2d_40">
      <path d="M 344.542468 235.484405 
L 623.542468 235.484405 
" clip-path="url(#pa5d2d1852e)" style="fill: none; stroke-dasharray: 0.8,1.32; stroke-dashoffset: 0; stroke: #b0b0b0; stroke-width: 0.8"/>
     </g>
     <g id="line2d_41">
      <g>
       <use xlink:href="#mfb40428654" x="357.224286" y="235.484405" style="stroke: #000000; stroke-width: 0.8"/>
      </g>
     </g>
     <g id="text_23">
      <!-- 1 -->
      <g transform="translate(342 241.711055) scale(0.18 -0.18)">
       <use xlink:href="#CMR17-31" transform="scale(0.996264)"/>
      </g>
     </g>
    </g>
    <g id="ytick_7">
     <g id="line2d_42">
      <path d="M 344.542468 185.084405 
L 623.542468 185.084405 
" clip-path="url(#pa5d2d1852e)" style="fill: none; stroke-dasharray: 0.8,1.32; stroke-dashoffset: 0; stroke: #b0b0b0; stroke-width: 0.8"/>
     </g>
     <g id="line2d_43">
      <g>
       <use xlink:href="#mfb40428654" x="357.224286" y="185.084405" style="stroke: #000000; stroke-width: 0.8"/>
      </g>
     </g>
     <g id="text_24">
      <!-- 2 -->
      <g transform="translate(342 191.311055) scale(0.18 -0.18)">
       <use xlink:href="#CMR17-32" transform="scale(0.996264)"/>
      </g>
     </g>
    </g>
    <g id="ytick_8">
     <g id="line2d_44">
      <path d="M 344.542468 148.883001 
L 623.542468 148.883001 
" clip-path="url(#pa5d2d1852e)" style="fill: none; stroke-dasharray: 0.8,1.32; stroke-dashoffset: 0; stroke: #b0b0b0; stroke-width: 0.8"/>
     </g>
     <g id="line2d_45">
      <g>
       <use xlink:href="#mfb40428654" x="357.224286" y="148.883001" style="stroke: #000000; stroke-width: 0.8"/>
      </g>
     </g>
     <g id="text_25">
      <!-- $e$ -->
      <g transform="translate(342.086133 155.109651) scale(0.18 -0.18)">
       <use xlink:href="#CMMI12-65" transform="scale(0.996264)"/>
      </g>
     </g>
    </g>
    <g id="ytick_9">
     <g id="line2d_46">
      <path d="M 344.542468 134.684405 
L 623.542468 134.684405 
" clip-path="url(#pa5d2d1852e)" style="fill: none; stroke-dasharray: 0.8,1.32; stroke-dashoffset: 0; stroke: #b0b0b0; stroke-width: 0.8"/>
     </g>
     <g id="line2d_47">
      <g>
       <use xlink:href="#mfb40428654" x="357.224286" y="134.684405" style="stroke: #000000; stroke-width: 0.8"/>
      </g>
     </g>
     <g id="text_26">
      <!-- 3 -->
      <g transform="translate(342 140.911055) scale(0.18 -0.18)">
       <use xlink:href="#CMR17-33" transform="scale(0.996264)"/>
      </g>
     </g>
    </g>
    <g id="ytick_10">
     <g id="line2d_48">
      <path d="M 344.542468 84.284405 
L 623.542468 84.284405 
" clip-path="url(#pa5d2d1852e)" style="fill: none; stroke-dasharray: 0.8,1.32; stroke-dashoffset: 0; stroke: #b0b0b0; stroke-width: 0.8"/>
     </g>
     <g id="line2d_49">
      <g>
       <use xlink:href="#mfb40428654" x="357.224286" y="84.284405" style="stroke: #000000; stroke-width: 0.8"/>
      </g>
     </g>
     <g id="text_27">
      <!-- 4 -->
      <g transform="translate(342 90.511055) scale(0.18 -0.18)">
       <use xlink:href="#CMR17-34" transform="scale(0.996264)"/>
      </g>
     </g>
    </g>
    <g id="ytick_11">
     <g id="line2d_50">
      <path d="M 344.542468 33.884405 
L 623.542468 33.884405 
" clip-path="url(#pa5d2d1852e)" style="fill: none; stroke-dasharray: 0.8,1.32; stroke-dashoffset: 0; stroke: #b0b0b0; stroke-width: 0.8"/>
     </g>
     <g id="line2d_51">
      <g>
       <use xlink:href="#mfb40428654" x="357.224286" y="33.884405" style="stroke: #000000; stroke-width: 0.8"/>
      </g>
     </g>
     <g id="text_28">
      <!-- 5 -->
      <g transform="translate(342 40.111055) scale(0.18 -0.18)">
       <use xlink:href="#CMR17-35" transform="scale(0.996264)"/>
      </g>
     </g>
    </g>
   </g>
   <g id="line2d_52">
    <path d="M 367.36974 33.884405 
L 368.590246 60.944808 
L 369.810752 82.757133 
L 371.031258 100.713135 
L 372.251764 115.752426 
L 373.472269 128.532293 
L 374.692775 139.526327 
L 375.913281 149.084405 
L 377.74404 161.28961 
L 379.574799 171.495327 
L 381.405557 180.155699 
L 383.236316 187.597015 
L 385.067075 194.059748 
L 386.897833 199.725022 
L 388.728592 204.731863 
L 390.559351 209.188753 
L 392.39011 213.181585 
L 394.831121 217.900632 
L 397.272133 222.044405 
L 399.713144 225.712053 
L 402.154156 228.981179 
L 404.595168 231.913391 
L 407.646432 235.179413 
L 410.697697 238.072708 
L 413.748961 240.653636 
L 416.800226 242.970193 
L 420.461743 245.454972 
L 424.123261 247.667758 
L 428.395031 249.961576 
L 432.666801 251.995629 
L 437.548825 254.055345 
L 442.430848 255.879034 
L 447.923124 257.696012 
L 454.025653 259.473058 
L 460.738435 261.185805 
L 468.06147 262.817647 
L 475.994758 264.358394 
L 485.148551 265.898717 
L 494.912598 267.315984 
L 505.89715 268.687894 
L 518.712461 270.052568 
L 532.748278 271.318564 
L 548.614853 272.526095 
L 566.92244 273.692335 
L 588.281292 274.819367 
L 610.86065 275.804405 
L 610.86065 275.804405 
" clip-path="url(#pa5d2d1852e)" style="fill: none; stroke: #ff0000; stroke-width: 3; stroke-linecap: square"/>
   </g>
   <g id="line2d_53">
    <path d="M 623.542468 285.884405 
" style="fill: none; stroke: #000000; stroke-width: 1.5; stroke-linecap: square"/>
    <g>
     <use xlink:href="#m45646b1c17" x="623.542468" y="285.884405" style="stroke: #000000; stroke-linejoin: miter"/>
    </g>
   </g>
   <g id="line2d_54">
    <path d="M 357.224286 21.284405 
" style="fill: none; stroke: #000000; stroke-width: 1.5; stroke-linecap: square"/>
    <g>
     <use xlink:href="#m19a1d7fd9b" x="357.224286" y="21.284405" style="stroke: #000000; stroke-linejoin: miter"/>
    </g>
   </g>
   <g id="patch_6">
    <path d="M 357.224286 298.484405 
L 357.224286 21.284405 
" style="fill: none; stroke: #000000; stroke-width: 2; stroke-linejoin: miter; stroke-linecap: square"/>
   </g>
   <g id="patch_7">
    <path d="M 344.542468 285.884405 
L 623.542468 285.884405 
" style="fill: none; stroke: #000000; stroke-width: 2; stroke-linejoin: miter; stroke-linecap: square"/>
   </g>
   <g id="text_29">
    <!-- $x$ -->
    <g transform="translate(623.542468 298.484405) scale(0.24 -0.24)">
     <use xlink:href="#CMMI12-78" transform="scale(0.996264)"/>
    </g>
   </g>
   <g id="text_30">
    <!-- $y$ -->
    <g transform="translate(362.297013 23.804405) scale(0.24 -0.24)">
     <use xlink:href="#CMMI12-79" transform="scale(0.996264)"/>
    </g>
   </g>
   <g id="text_31">
    <!-- $1$ -->
    <g transform="translate(443.46065 275.804405) scale(0.2 -0.2)">
     <use xlink:href="#CMR17-31" transform="scale(0.996264)"/>
    </g>
   </g>
  </g>
 </g>
 <defs>
  <clipPath id="p7f897b5a76">
   <rect x="9.742468" y="21.284405" width="279" height="277.2"/>
  </clipPath>
  <clipPath id="pa5d2d1852e">
   <rect x="344.542468" y="21.284405" width="279" height="277.2"/>
  </clipPath>
 </defs>
</svg>